<svg width="160" height="65" viewBox="0 0 160 65" fill="none" xmlns="http://www.w3.org/2000/svg">
<path d="M134.571 39.5427C136.334 39.5427 137.763 38.1137 137.763 36.3508C137.763 34.588 136.334 33.1589 134.571 33.1589C132.809 33.1589 131.379 34.588 131.379 36.3508C131.379 38.1137 132.809 39.5427 134.571 39.5427Z" fill="url(#paint0_linear_180_206)"/>
<path d="M132.958 33.5984C135.711 31.9852 138.118 23.7183 136.263 20.5515L141.203 21.9105C137.989 23.6838 135.827 32.0198 137.368 34.8131L132.961 33.6016L132.958 33.5984Z" fill="url(#paint1_linear_180_206)"/>
<path d="M131.401 36.7025C131.05 33.5326 128.351 30.7927 124.283 31.2446L127.921 26.9856C128.112 31.072 131.238 33.3129 134.424 33.1622L131.401 36.6994V36.7025Z" fill="url(#paint2_linear_180_206)"/>
<path d="M123.831 31.2698C126.092 31.2698 127.924 29.4374 127.924 27.1771C127.924 24.9168 126.092 23.0845 123.831 23.0845C121.571 23.0845 119.739 24.9168 119.739 27.1771C119.739 29.4374 121.571 31.2698 123.831 31.2698Z" fill="url(#paint3_linear_180_206)"/>
<path d="M121.12 24.1138C124.183 21.399 124.217 17.3283 121.782 14.582L127.039 14.8237C124.362 17.3345 124.02 21.3927 126.819 24.3774L121.12 24.1138Z" fill="url(#paint4_linear_180_206)"/>
<path d="M153.472 13.7095C155.732 13.7095 157.564 11.8772 157.564 9.61684C157.564 7.35653 155.732 5.52417 153.472 5.52417C151.211 5.52417 149.379 7.35653 149.379 9.61684C149.379 11.8772 151.211 13.7095 153.472 13.7095Z" fill="url(#paint5_linear_180_206)"/>
<path d="M152.562 13.606C148.572 12.6958 143.824 15.9316 143.008 19.5096L140.155 15.0968C143.752 15.8218 148.651 12.8214 149.461 8.8103L152.562 13.6091V13.606Z" fill="url(#paint6_linear_180_206)"/>
<path d="M156.761 12.0493C154.328 15.3385 155.254 20.109 158.208 22.2903L153.017 23.1377C155.119 20.1279 154.479 15.3134 151.127 12.9689L156.761 12.0461V12.0493Z" fill="url(#paint7_linear_180_206)"/>
<path d="M149.614 10.9822C148.249 7.12496 142.848 5.19475 140.089 6.17398L141.79 2.23511C142.97 4.91229 148.077 7.52042 151.821 5.86955L149.614 10.9822Z" fill="url(#paint8_linear_180_206)"/>
<path d="M124.528 15.8185C126.556 15.8185 128.2 14.1745 128.2 12.1465C128.2 10.1184 126.556 8.47437 124.528 8.47437C122.5 8.47437 120.856 10.1184 120.856 12.1465C120.856 14.1745 122.5 15.8185 124.528 15.8185Z" fill="url(#paint9_linear_180_206)"/>
<path d="M127.949 10.8127C129.28 14.2338 134.678 16.6033 138.099 15.2726L136.012 20.0244C134.681 16.6034 129.283 14.2337 125.862 15.5645L127.949 10.8127Z" fill="url(#paint10_linear_180_206)"/>
<path d="M139.43 22.3657C141.458 22.3657 143.102 20.7216 143.102 18.6936C143.102 16.6655 141.458 15.0215 139.43 15.0215C137.402 15.0215 135.758 16.6655 135.758 18.6936C135.758 20.7216 137.402 22.3657 139.43 22.3657Z" fill="url(#paint11_linear_180_206)"/>
<path d="M125.498 8.60627C129.038 9.57922 135.513 5.46458 136.288 2.63989L138.46 6.26805C135.607 5.61837 128.922 9.38149 128.106 12.9594L125.498 8.60313V8.60627Z" fill="url(#paint12_linear_180_206)"/>
<path d="M156.026 28.9126C158.054 28.9126 159.699 27.2685 159.699 25.2405C159.699 23.2124 158.054 21.5684 156.026 21.5684C153.998 21.5684 152.354 23.2124 152.354 25.2405C152.354 27.2685 153.998 28.9126 156.026 28.9126Z" fill="url(#paint13_linear_180_206)"/>
<path d="M139.11 6.34024C140.725 6.34024 142.035 5.03061 142.035 3.41511C142.035 1.79961 140.725 0.48999 139.11 0.48999C137.494 0.48999 136.185 1.79961 136.185 3.41511C136.185 5.03061 137.494 6.34024 139.11 6.34024Z" fill="url(#paint14_linear_180_206)"/>
<path d="M137.964 64.5101C139.311 64.5101 140.403 63.4183 140.403 62.0714C140.403 60.7246 139.311 59.6328 137.964 59.6328C136.617 59.6328 135.525 60.7246 135.525 62.0714C135.525 63.4183 136.617 64.5101 137.964 64.5101Z" fill="url(#paint15_linear_180_206)"/>
<path d="M156.152 27.2272C157.499 27.2272 158.591 26.1353 158.591 24.7885C158.591 23.4417 157.499 22.3499 156.152 22.3499C154.805 22.3499 153.713 23.4417 153.713 24.7885C153.713 26.1353 154.805 27.2272 156.152 27.2272Z" fill="url(#paint16_linear_180_206)"/>
<path d="M156.488 27.2052C154.071 27.5411 139.135 41.3632 139.64 44.9977L135.745 41.8434C139.408 41.5829 153.889 27.3967 153.716 24.9612L156.485 27.2052H156.488Z" fill="url(#paint17_linear_180_206)"/>
<path d="M137.87 59.6326C140.309 59.5353 150.59 49.3162 150.446 45.6472L154.065 49.1718C150.396 49.1216 140.444 59.664 140.409 62.1026L137.873 59.6326H137.87Z" fill="url(#paint18_linear_180_206)"/>
<path d="M136.006 49.175C138.034 49.175 139.678 47.531 139.678 45.5029C139.678 43.4749 138.034 41.8308 136.006 41.8308C133.978 41.8308 132.334 43.4749 132.334 45.5029C132.334 47.531 133.978 49.175 136.006 49.175Z" fill="url(#paint19_linear_180_206)"/>
<path d="M138.601 42.9075C141.197 45.503 148.921 45.503 151.516 42.9075V48.0986C148.921 45.5031 141.197 45.5031 138.601 48.0986V42.9075Z" fill="url(#paint20_linear_180_206)"/>
<path d="M154.112 49.175C156.14 49.175 157.784 47.531 157.784 45.5029C157.784 43.4749 156.14 41.8308 154.112 41.8308C152.084 41.8308 150.44 43.4749 150.44 45.5029C150.44 47.531 152.084 49.175 154.112 49.175Z" fill="url(#paint21_linear_180_206)"/>
<path d="M8.05351 38.4728C5.50187 38.4728 3.52145 37.8451 2.11224 36.5865C0.703037 35.3311 0 33.4636 0 30.9873C0 29.0069 0.417426 26.7409 1.25542 24.1892L3.76939 24.8734C3.14169 26.7974 2.82783 28.5487 2.82783 30.1305C2.84666 31.8065 3.3143 33.0682 4.22762 33.9156C5.14094 34.763 6.44657 35.1867 8.14138 35.1867C9.8362 35.1867 11.1983 34.7002 12.0552 33.7304C12.912 32.7575 13.342 31.2541 13.342 29.2172V18.4771L16.4271 18.0471V29.5875C16.4271 32.3494 15.7304 34.5182 14.3432 36.1C12.9528 37.6818 10.8594 38.4696 8.05978 38.4696L8.05351 38.4728ZM7.96877 20.8749L5.3983 18.361L7.91227 15.8752L10.4827 18.361L7.96877 20.8749Z" fill="white"/>
<path d="M33.9622 29.0444C34.1505 29.0444 34.2478 29.1291 34.2478 29.3018V32.0449C34.2478 32.2363 34.1505 32.3305 33.9622 32.3305H32.3615C32.0194 36.4263 28.3536 38.4726 21.3641 38.4726L21.022 35.8739C23.6113 35.8739 25.5791 35.5914 26.9193 35.0328C28.2626 34.471 29.0378 33.5702 29.2481 32.3336H26.1629C24.1448 32.3336 22.5222 31.7059 21.2919 30.4473C20.0647 29.1919 19.4496 27.5159 19.4496 25.4194C19.4496 23.3228 20.0867 21.6688 21.3641 20.3349C22.6415 19.0011 24.2484 18.3357 26.1912 18.3357C28.0178 18.3357 29.5086 18.9446 30.6604 20.1623C31.8123 21.3801 32.3898 22.9902 32.3898 24.9894V29.0444H33.9622ZM22.2805 25.3033C22.2805 26.5587 22.6603 27.5222 23.423 28.1876C24.1856 28.853 25.2119 29.1888 26.5081 29.1888C26.8126 29.1888 27.321 29.1731 28.0366 29.1448C28.7522 29.1166 29.1728 29.1009 29.3077 29.1009V25.2154C29.3077 24.0918 28.9939 23.191 28.3662 22.5162C27.7385 21.8414 26.9193 21.5025 25.9087 21.5025C24.8981 21.5025 24.0193 21.854 23.3225 22.5602C22.6289 23.2664 22.2805 24.1797 22.2805 25.3033Z" fill="white"/>
<path d="M39.4201 25.7019V18.4738L42.5053 18.0439V26.6717C42.5053 28.4983 41.978 29.9013 40.9203 30.8711C39.8626 31.8409 38.2965 32.3274 36.2219 32.3274H33.9653C33.777 32.3274 33.6797 32.2332 33.6797 32.0418L33.7079 29.2987C33.7079 29.126 33.8021 29.0413 33.9935 29.0413H36.2502C38.3624 29.0413 39.4201 27.9271 39.4201 25.6988V25.7019ZM43.1612 11.1642L45.7035 13.6499L43.1895 16.1639L40.8199 13.8508L38.5068 16.1639L35.9645 13.6499L38.4785 11.1642L40.8199 13.449L43.1612 11.1642ZM42.59 9.9621L40.8481 11.704L39.1062 9.9621L40.8199 8.22021L42.59 9.9621Z" fill="white"/>
<path d="M47.3041 32.3305V11.908L50.4176 11.478V32.3305H47.3041Z" fill="white"/>
<path d="M62.8995 29.0445C63.0879 29.0445 63.1851 29.1293 63.1851 29.3019V32.045C63.1851 32.2364 63.0879 32.3306 62.8995 32.3306C61.5092 32.3306 60.4609 31.8724 59.7579 30.9591V31.5868C59.7579 33.9846 59.1333 35.7328 57.8873 36.8281C56.6413 37.9235 54.7393 38.4696 52.1877 38.4696L51.9303 35.8709C55.1097 35.8709 56.7009 34.4052 56.7009 31.4706L56.6727 18.4739L59.7579 18.0439V26.5557C59.9462 28.2128 60.9944 29.0414 62.8995 29.0414V29.0445Z" fill="white"/>
<path d="M73.7809 29.0443C73.9723 29.0443 74.0665 29.1291 74.0665 29.3017V32.0448C74.0665 32.2362 73.9723 32.3304 73.7809 32.3304C72.0672 32.3304 70.476 31.6273 69.0103 30.215C67.8867 31.6242 65.8592 32.3304 62.9247 32.3304C62.7363 32.3304 62.639 32.2362 62.639 32.0448L62.6673 29.3017C62.6673 29.1291 62.7614 29.0443 62.9529 29.0443C64.3433 29.0443 65.3664 28.7838 66.0224 28.2597C66.6784 27.7355 67.0079 26.885 67.0079 25.7018V21.4741L70.0931 21.0473V26.6747C70.0931 27.0576 70.0648 27.4374 70.0084 27.8171C71.1696 28.6363 72.425 29.0443 73.7777 29.0443H73.7809ZM68.4108 17.0174L66.0977 19.3305L63.5555 16.8166L66.0695 14.3308L68.4108 16.6157L70.7522 14.3308L73.2944 16.8166L70.7804 19.3305L68.4077 17.0174H68.4108Z" fill="white"/>
<path d="M92.3799 29.0444C92.5682 29.0444 92.6655 29.1291 92.6655 29.3017V32.0448C92.6655 32.2363 92.5714 32.3304 92.3799 32.3304C90.6851 32.3304 89.1817 31.7027 87.8667 30.4442C86.6678 31.6996 84.9824 32.3304 82.8105 32.3304H73.784C73.5957 32.3304 73.4984 32.2363 73.4984 32.0448V29.3017C73.4984 29.1291 73.5957 29.0444 73.784 29.0444H82.6693C83.7929 29.0444 84.6811 28.7745 85.3402 28.2315C85.9961 27.6885 86.3257 26.9415 86.3257 25.9874C86.3257 25.0333 86.0024 24.2801 85.3559 23.7151C84.7093 23.1533 83.8243 22.874 82.7007 22.874H75.9873L74.3301 19.9897L82.7289 9.90552L85.7293 11.5344L77.9897 20.0179H82.4464C84.5618 20.0179 86.2566 20.5609 87.5309 21.6468C88.8051 22.7327 89.4454 24.189 89.4454 26.0188C89.4454 26.7626 89.3606 27.4563 89.188 28.1028C90.1986 28.7305 91.2626 29.0444 92.3862 29.0444H92.3799Z" fill="white"/>
<path d="M92.3799 32.3305C92.1916 32.3305 92.0943 32.2363 92.0943 32.0449V29.3018C92.0943 29.1292 92.201 29.0444 92.4082 29.0444C94.5204 29.0444 95.5781 27.8926 95.5781 25.5889L95.6063 11.9048L98.6915 11.4749V26.4991C98.6915 30.3846 96.5887 32.3273 92.3799 32.3273V32.3305Z" fill="white"/>
<path d="M103.804 37.7853H107.461L107.031 39.7846H100.462V37.7853H101.918C101.651 37.3271 101.519 36.8029 101.519 36.2129C101.519 35.4879 101.77 34.8884 102.276 34.4145C102.781 33.9374 103.412 33.6989 104.175 33.6989C104.859 33.6989 105.64 33.8809 106.516 34.2419V35.899C105.775 35.6134 105.163 35.4691 104.689 35.4691C104.291 35.4691 103.971 35.5726 103.732 35.7829C103.493 35.9932 103.374 36.26 103.374 36.5832C103.374 37.0415 103.519 37.4401 103.804 37.7822V37.7853ZM106.434 11.478V32.3305H103.321V11.908L106.434 11.478Z" fill="white"/>
<path d="M0 58.258V44.8752H9.40622V46.8243H2.36018V50.4462H8.71573L9.01076 52.3952H2.36018V56.3121H9.60395V58.2611H0V58.258Z" fill="white"/>
<path d="M11.9641 58.2582V44.1849L14.227 43.8899V58.2582H11.9641Z" fill="white"/>
<path d="M26.3324 53.1013C26.3324 53.3775 26.3198 53.6851 26.2916 54.0272H18.8532C18.985 54.9186 19.3334 55.609 19.8952 56.0924C20.4602 56.5788 21.2197 56.8205 22.1769 56.8205C23.3696 56.8205 24.4806 56.5632 25.5038 56.0516L25.8961 57.5863C24.8321 58.1638 23.5265 58.4526 21.9792 58.4526C20.1934 58.4526 18.8344 57.9975 17.896 57.0842C16.9575 56.1708 16.4899 54.9217 16.4899 53.3336C16.4899 51.7455 16.9544 50.5277 17.8865 49.605C18.8187 48.6791 20.0773 48.2178 21.6654 48.2178C22.519 48.2178 23.2566 48.3527 23.878 48.6226C24.4995 48.8926 24.9828 49.2598 25.3249 49.7243C25.667 50.1888 25.9181 50.7004 26.0813 51.259C26.2445 51.8177 26.3261 52.4297 26.3261 53.0982L26.3324 53.1013ZM18.8752 52.4109H24.0695C24.0569 51.6105 23.8686 50.9797 23.5077 50.5215C23.1467 50.0632 22.5128 49.8341 21.6089 49.8341C20.887 49.8341 20.2813 50.0538 19.7885 50.4932C19.2958 50.9326 18.9913 51.5729 18.8721 52.4109H18.8752Z" fill="white"/>
<path d="M33.6546 56.7233C34.6244 56.7233 35.6287 56.469 36.6676 55.9543L37.0599 57.5864C35.9708 58.1638 34.7625 58.4526 33.438 58.4526C31.784 58.4526 30.4815 57.9912 29.5305 57.0654C28.5796 56.1395 28.1057 54.8966 28.1057 53.3368C28.1057 51.7769 28.5796 50.5309 29.5305 49.6082C30.4815 48.6823 31.784 48.2209 33.438 48.2209C34.7499 48.2209 35.9583 48.5034 37.0599 49.0683L36.6676 50.7224C35.6036 50.1982 34.6024 49.9346 33.6546 49.9346C32.7068 49.9346 31.919 50.2328 31.3227 50.8291C30.7232 51.4254 30.425 52.2634 30.425 53.3368C30.425 54.4102 30.7232 55.245 31.3227 55.835C31.919 56.4251 32.6973 56.7201 33.6546 56.7201V56.7233Z" fill="white"/>
<path d="M42.1193 44.8752V48.4187H45.3269V50.1323H42.1193V55.3486C42.1193 56.2682 42.656 56.7264 43.7325 56.7264C44.2315 56.7264 44.7305 56.6354 45.2296 56.4502L45.5246 58.0634C44.8278 58.3271 44.0212 58.4557 43.1048 58.4557C41.9874 58.4557 41.1683 58.1858 40.6441 57.6491C40.12 57.1124 39.8564 56.3623 39.8564 55.4051V50.1292H38.2808V48.4155H39.8564V45.2676L42.1193 44.8752Z" fill="white"/>
<path d="M53.0602 50.4838C52.2317 50.4838 51.4847 50.6282 50.8162 50.9169C50.1477 51.2057 49.6298 51.5791 49.2626 52.0374V58.258H46.9997V48.4155H49.0649L49.2438 50.6596C49.5984 49.9126 50.0974 49.3194 50.7408 48.8769C51.3842 48.4375 52.0873 48.2178 52.8468 48.2178L53.0634 50.4807L53.0602 50.4838Z" fill="white"/>
<path d="M64.2993 56.7421C64.5755 56.7421 64.7984 56.7013 64.9679 56.6228V58.258C64.5473 58.3898 64.0828 58.4557 63.5712 58.4557C62.2718 58.4557 61.5154 57.919 61.3083 56.8425C60.417 57.919 59.2149 58.4557 57.7053 58.4557C56.6821 58.4557 55.8661 58.1858 55.2541 57.6491C54.6452 57.1124 54.3376 56.4282 54.3376 55.6028C54.3376 54.5012 54.7644 53.6663 55.615 53.1045C56.4687 52.5396 57.6111 52.2571 59.0391 52.2571C59.7861 52.2571 60.5142 52.3105 61.2236 52.414V51.7047C61.2236 51.1806 61.0227 50.7537 60.6241 50.4242C60.2255 50.0978 59.5978 49.9314 58.7441 49.9314C57.5389 49.9314 56.3557 50.2014 55.2007 50.738L54.7864 49.0464C55.9791 48.494 57.3977 48.2209 59.036 48.2209C60.4923 48.2209 61.5971 48.5442 62.3534 49.1845C63.1067 49.8279 63.4833 50.7192 63.4833 51.8617V55.7785C63.4833 56.1081 63.5398 56.3498 63.6497 56.5067C63.7595 56.6636 63.9761 56.7421 64.2899 56.7421H64.2993ZM58.5119 56.7233C59.535 56.7233 60.4389 56.309 61.2267 55.4835V54.0273C60.6618 53.9362 59.987 53.8892 59.1992 53.8892C58.2922 53.8892 57.6425 54.0084 57.2502 54.2438C56.8578 54.4792 56.6601 54.8276 56.6601 55.2858C56.6601 55.744 56.8265 56.0987 57.1623 56.3498C57.4981 56.5977 57.9469 56.7233 58.5119 56.7233Z" fill="white"/>
<path d="M69.3963 44.8752V48.4187H72.6039V50.1323H69.3963V55.3486C69.3963 56.2682 69.933 56.7264 71.0096 56.7264C71.5086 56.7264 72.0076 56.6354 72.5066 56.4502L72.8017 58.0634C72.1049 58.3271 71.2983 58.4557 70.3819 58.4557C69.2645 58.4557 68.4454 58.1858 67.9212 57.6491C67.3971 57.1124 67.1334 56.3623 67.1334 55.4051V50.1292H65.5579V48.4155H67.1334V45.2676L69.3963 44.8752Z" fill="white"/>
<path d="M79.7881 48.221C80.9148 48.221 81.7842 48.5318 82.3868 49.1563C82.9894 49.7809 83.2907 50.6817 83.2907 51.8618V58.2581H81.0278V51.8994C81.0278 51.2686 80.8489 50.7852 80.488 50.4431C80.127 50.101 79.606 49.9315 78.9218 49.9315C78.0022 49.9315 77.2082 50.327 76.5397 51.1116V58.255H74.2768V44.1817L76.5397 43.8867V49.85C77.3275 48.7609 78.4103 48.2148 79.7881 48.2148V48.221Z" fill="white"/>
<path d="M90.8295 48.2209C92.496 48.2209 93.8048 48.7106 94.7558 49.6866C95.7068 50.6627 96.1838 51.8805 96.1838 53.3368C96.1838 54.7931 95.7068 56.0108 94.7558 56.9869C93.8048 57.963 92.496 58.4526 90.8295 58.4526C89.1629 58.4526 87.8353 57.963 86.8843 56.9869C85.9333 56.0108 85.4594 54.7931 85.4594 53.3368C85.4594 51.8805 85.9333 50.6627 86.8843 49.6866C87.8353 48.7106 89.1503 48.2209 90.8295 48.2209ZM90.8106 56.7233C91.7961 56.7233 92.5494 56.3968 93.0735 55.7377C93.5977 55.0818 93.8613 54.2815 93.8613 53.3368C93.8613 52.3921 93.5977 51.5886 93.0735 50.9264C92.5494 50.2641 91.793 49.9314 90.8106 49.9314C89.8283 49.9314 89.0562 50.2641 88.5383 50.9264C88.0205 51.5886 87.76 52.3921 87.76 53.3368C87.76 54.2815 88.0205 55.0818 88.5383 55.7377C89.0562 56.3937 89.8157 56.7233 90.8106 56.7233Z" fill="white"/>
<path d="M103.958 48.2209C105.085 48.2209 105.954 48.5316 106.557 49.1562C107.159 49.7807 107.461 50.6815 107.461 51.8616V58.2579H105.198V51.8992C105.198 51.2684 105.019 50.7851 104.658 50.443C104.297 50.1009 103.776 49.9314 103.092 49.9314C102.172 49.9314 101.378 50.3268 100.71 51.1115V58.2548H98.4467V48.4123H100.512L100.691 49.8686C101.479 48.767 102.568 48.2146 103.958 48.2146V48.2209Z" fill="white"/>
<defs>
<linearGradient id="paint0_linear_180_206" x1="119.874" y1="13.0157" x2="150.057" y2="60.9351" gradientUnits="userSpaceOnUse">
<stop stop-color="#36AED2"/>
<stop offset="0.09" stop-color="#3AA2D2"/>
<stop offset="0.25" stop-color="#4483D3"/>
<stop offset="0.47" stop-color="#5650D4"/>
<stop offset="0.66" stop-color="#681DD6"/>
<stop offset="0.75" stop-color="#702AD8"/>
<stop offset="0.91" stop-color="#874DDF"/>
<stop offset="1" stop-color="#9663E3"/>
</linearGradient>
<linearGradient id="paint1_linear_180_206" x1="125.548" y1="9.44107" x2="155.731" y2="57.3604" gradientUnits="userSpaceOnUse">
<stop stop-color="#36AED2"/>
<stop offset="0.09" stop-color="#3AA2D2"/>
<stop offset="0.25" stop-color="#4483D3"/>
<stop offset="0.47" stop-color="#5650D4"/>
<stop offset="0.66" stop-color="#681DD6"/>
<stop offset="0.75" stop-color="#702AD8"/>
<stop offset="0.91" stop-color="#874DDF"/>
<stop offset="1" stop-color="#9663E3"/>
</linearGradient>
<linearGradient id="paint2_linear_180_206" x1="118.009" y1="14.1897" x2="148.193" y2="62.1122" gradientUnits="userSpaceOnUse">
<stop stop-color="#36AED2"/>
<stop offset="0.09" stop-color="#3AA2D2"/>
<stop offset="0.25" stop-color="#4483D3"/>
<stop offset="0.47" stop-color="#5650D4"/>
<stop offset="0.66" stop-color="#681DD6"/>
<stop offset="0.75" stop-color="#702AD8"/>
<stop offset="0.91" stop-color="#874DDF"/>
<stop offset="1" stop-color="#9663E3"/>
</linearGradient>
<linearGradient id="paint3_linear_180_206" x1="116.324" y1="15.2538" x2="146.507" y2="63.1731" gradientUnits="userSpaceOnUse">
<stop stop-color="#36AED2"/>
<stop offset="0.09" stop-color="#3AA2D2"/>
<stop offset="0.25" stop-color="#4483D3"/>
<stop offset="0.47" stop-color="#5650D4"/>
<stop offset="0.66" stop-color="#681DD6"/>
<stop offset="0.75" stop-color="#702AD8"/>
<stop offset="0.91" stop-color="#874DDF"/>
<stop offset="1" stop-color="#9663E3"/>
</linearGradient>
<linearGradient id="paint4_linear_180_206" x1="119.974" y1="12.9531" x2="150.157" y2="60.8724" gradientUnits="userSpaceOnUse">
<stop stop-color="#36AED2"/>
<stop offset="0.09" stop-color="#3AA2D2"/>
<stop offset="0.25" stop-color="#4483D3"/>
<stop offset="0.47" stop-color="#5650D4"/>
<stop offset="0.66" stop-color="#681DD6"/>
<stop offset="0.75" stop-color="#702AD8"/>
<stop offset="0.91" stop-color="#874DDF"/>
<stop offset="1" stop-color="#9663E3"/>
</linearGradient>
<linearGradient id="paint5_linear_180_206" x1="145.459" y1="-3.10056" x2="175.645" y2="44.8188" gradientUnits="userSpaceOnUse">
<stop stop-color="#36AED2"/>
<stop offset="0.09" stop-color="#3AA2D2"/>
<stop offset="0.25" stop-color="#4483D3"/>
<stop offset="0.47" stop-color="#5650D4"/>
<stop offset="0.66" stop-color="#681DD6"/>
<stop offset="0.75" stop-color="#702AD8"/>
<stop offset="0.91" stop-color="#874DDF"/>
<stop offset="1" stop-color="#9663E3"/>
</linearGradient>
<linearGradient id="paint6_linear_180_206" x1="138.234" y1="1.45042" x2="168.417" y2="49.3697" gradientUnits="userSpaceOnUse">
<stop stop-color="#36AED2"/>
<stop offset="0.09" stop-color="#3AA2D2"/>
<stop offset="0.25" stop-color="#4483D3"/>
<stop offset="0.47" stop-color="#5650D4"/>
<stop offset="0.66" stop-color="#681DD6"/>
<stop offset="0.75" stop-color="#702AD8"/>
<stop offset="0.91" stop-color="#874DDF"/>
<stop offset="1" stop-color="#9663E3"/>
</linearGradient>
<linearGradient id="paint7_linear_180_206" x1="142.879" y1="-1.47469" x2="173.062" y2="46.4446" gradientUnits="userSpaceOnUse">
<stop stop-color="#36AED2"/>
<stop offset="0.09" stop-color="#3AA2D2"/>
<stop offset="0.25" stop-color="#4483D3"/>
<stop offset="0.47" stop-color="#5650D4"/>
<stop offset="0.66" stop-color="#681DD6"/>
<stop offset="0.75" stop-color="#702AD8"/>
<stop offset="0.91" stop-color="#874DDF"/>
<stop offset="1" stop-color="#9663E3"/>
</linearGradient>
<linearGradient id="paint8_linear_180_206" x1="141.699" y1="-0.730816" x2="171.882" y2="47.1885" gradientUnits="userSpaceOnUse">
<stop stop-color="#36AED2"/>
<stop offset="0.09" stop-color="#3AA2D2"/>
<stop offset="0.25" stop-color="#4483D3"/>
<stop offset="0.47" stop-color="#5650D4"/>
<stop offset="0.66" stop-color="#681DD6"/>
<stop offset="0.75" stop-color="#702AD8"/>
<stop offset="0.91" stop-color="#874DDF"/>
<stop offset="1" stop-color="#9663E3"/>
</linearGradient>
<linearGradient id="paint9_linear_180_206" x1="123.599" y1="10.6713" x2="153.782" y2="58.5906" gradientUnits="userSpaceOnUse">
<stop stop-color="#36AED2"/>
<stop offset="0.09" stop-color="#3AA2D2"/>
<stop offset="0.25" stop-color="#4483D3"/>
<stop offset="0.47" stop-color="#5650D4"/>
<stop offset="0.66" stop-color="#681DD6"/>
<stop offset="0.75" stop-color="#702AD8"/>
<stop offset="0.91" stop-color="#874DDF"/>
<stop offset="1" stop-color="#9663E3"/>
</linearGradient>
<linearGradient id="paint10_linear_180_206" x1="127.456" y1="8.23914" x2="157.64" y2="56.1584" gradientUnits="userSpaceOnUse">
<stop stop-color="#36AED2"/>
<stop offset="0.09" stop-color="#3AA2D2"/>
<stop offset="0.25" stop-color="#4483D3"/>
<stop offset="0.47" stop-color="#5650D4"/>
<stop offset="0.66" stop-color="#681DD6"/>
<stop offset="0.75" stop-color="#702AD8"/>
<stop offset="0.91" stop-color="#874DDF"/>
<stop offset="1" stop-color="#9663E3"/>
</linearGradient>
<linearGradient id="paint11_linear_180_206" x1="131.314" y1="5.80985" x2="161.497" y2="53.7291" gradientUnits="userSpaceOnUse">
<stop stop-color="#36AED2"/>
<stop offset="0.09" stop-color="#3AA2D2"/>
<stop offset="0.25" stop-color="#4483D3"/>
<stop offset="0.47" stop-color="#5650D4"/>
<stop offset="0.66" stop-color="#681DD6"/>
<stop offset="0.75" stop-color="#702AD8"/>
<stop offset="0.91" stop-color="#874DDF"/>
<stop offset="1" stop-color="#9663E3"/>
</linearGradient>
<linearGradient id="paint12_linear_180_206" x1="131.047" y1="5.97617" x2="161.233" y2="53.8955" gradientUnits="userSpaceOnUse">
<stop stop-color="#36AED2"/>
<stop offset="0.09" stop-color="#3AA2D2"/>
<stop offset="0.25" stop-color="#4483D3"/>
<stop offset="0.47" stop-color="#5650D4"/>
<stop offset="0.66" stop-color="#681DD6"/>
<stop offset="0.75" stop-color="#702AD8"/>
<stop offset="0.91" stop-color="#874DDF"/>
<stop offset="1" stop-color="#9663E3"/>
</linearGradient>
<linearGradient id="paint13_linear_180_206" x1="140.243" y1="0.185436" x2="170.426" y2="48.1047" gradientUnits="userSpaceOnUse">
<stop stop-color="#36AED2"/>
<stop offset="0.09" stop-color="#3AA2D2"/>
<stop offset="0.25" stop-color="#4483D3"/>
<stop offset="0.47" stop-color="#5650D4"/>
<stop offset="0.66" stop-color="#681DD6"/>
<stop offset="0.75" stop-color="#702AD8"/>
<stop offset="0.91" stop-color="#874DDF"/>
<stop offset="1" stop-color="#9663E3"/>
</linearGradient>
<linearGradient id="paint14_linear_180_206" x1="137.977" y1="1.61359" x2="168.16" y2="49.5329" gradientUnits="userSpaceOnUse">
<stop stop-color="#36AED2"/>
<stop offset="0.09" stop-color="#3AA2D2"/>
<stop offset="0.25" stop-color="#4483D3"/>
<stop offset="0.47" stop-color="#5650D4"/>
<stop offset="0.66" stop-color="#681DD6"/>
<stop offset="0.75" stop-color="#702AD8"/>
<stop offset="0.91" stop-color="#874DDF"/>
<stop offset="1" stop-color="#9663E3"/>
</linearGradient>
<linearGradient id="paint15_linear_180_206" x1="110.703" y1="18.791" x2="140.889" y2="66.7102" gradientUnits="userSpaceOnUse">
<stop stop-color="#36AED2"/>
<stop offset="0.09" stop-color="#3AA2D2"/>
<stop offset="0.25" stop-color="#4483D3"/>
<stop offset="0.47" stop-color="#5650D4"/>
<stop offset="0.66" stop-color="#681DD6"/>
<stop offset="0.75" stop-color="#702AD8"/>
<stop offset="0.91" stop-color="#874DDF"/>
<stop offset="1" stop-color="#9663E3"/>
</linearGradient>
<linearGradient id="paint16_linear_180_206" x1="140.051" y1="-0.771859" x2="170.235" y2="47.1476" gradientUnits="userSpaceOnUse">
<stop stop-color="#36AED2"/>
<stop offset="0.09" stop-color="#3AA2D2"/>
<stop offset="0.25" stop-color="#4483D3"/>
<stop offset="0.47" stop-color="#5650D4"/>
<stop offset="0.66" stop-color="#681DD6"/>
<stop offset="0.75" stop-color="#702AD8"/>
<stop offset="0.91" stop-color="#874DDF"/>
<stop offset="1" stop-color="#9663E3"/>
</linearGradient>
<linearGradient id="paint17_linear_180_206" x1="126.822" y1="3.88899" x2="160.232" y2="56.9335" gradientUnits="userSpaceOnUse">
<stop stop-color="#36AED2"/>
<stop offset="0.09" stop-color="#3AA2D2"/>
<stop offset="0.25" stop-color="#4483D3"/>
<stop offset="0.47" stop-color="#5650D4"/>
<stop offset="0.66" stop-color="#681DD6"/>
<stop offset="0.75" stop-color="#702AD8"/>
<stop offset="0.91" stop-color="#874DDF"/>
<stop offset="1" stop-color="#9663E3"/>
</linearGradient>
<linearGradient id="paint18_linear_180_206" x1="119.889" y1="13.0064" x2="150.073" y2="60.9256" gradientUnits="userSpaceOnUse">
<stop stop-color="#36AED2"/>
<stop offset="0.09" stop-color="#3AA2D2"/>
<stop offset="0.25" stop-color="#4483D3"/>
<stop offset="0.47" stop-color="#5650D4"/>
<stop offset="0.66" stop-color="#681DD6"/>
<stop offset="0.75" stop-color="#702AD8"/>
<stop offset="0.91" stop-color="#874DDF"/>
<stop offset="1" stop-color="#9663E3"/>
</linearGradient>
<linearGradient id="paint19_linear_180_206" x1="116.773" y1="14.968" x2="146.956" y2="62.8873" gradientUnits="userSpaceOnUse">
<stop stop-color="#36AED2"/>
<stop offset="0.09" stop-color="#3AA2D2"/>
<stop offset="0.25" stop-color="#4483D3"/>
<stop offset="0.47" stop-color="#5650D4"/>
<stop offset="0.66" stop-color="#681DD6"/>
<stop offset="0.75" stop-color="#702AD8"/>
<stop offset="0.91" stop-color="#874DDF"/>
<stop offset="1" stop-color="#9663E3"/>
</linearGradient>
<linearGradient id="paint20_linear_180_206" x1="123.254" y1="10.888" x2="153.437" y2="58.8073" gradientUnits="userSpaceOnUse">
<stop stop-color="#36AED2"/>
<stop offset="0.09" stop-color="#3AA2D2"/>
<stop offset="0.25" stop-color="#4483D3"/>
<stop offset="0.47" stop-color="#5650D4"/>
<stop offset="0.66" stop-color="#681DD6"/>
<stop offset="0.75" stop-color="#702AD8"/>
<stop offset="0.91" stop-color="#874DDF"/>
<stop offset="1" stop-color="#9663E3"/>
</linearGradient>
<linearGradient id="paint21_linear_180_206" x1="129.735" y1="6.80462" x2="159.918" y2="54.724" gradientUnits="userSpaceOnUse">
<stop stop-color="#36AED2"/>
<stop offset="0.09" stop-color="#3AA2D2"/>
<stop offset="0.25" stop-color="#4483D3"/>
<stop offset="0.47" stop-color="#5650D4"/>
<stop offset="0.66" stop-color="#681DD6"/>
<stop offset="0.75" stop-color="#702AD8"/>
<stop offset="0.91" stop-color="#874DDF"/>
<stop offset="1" stop-color="#9663E3"/>
</linearGradient>
</defs>
</svg>
