<?xml version="1.0" encoding="UTF-8"?><svg id="Layer_1" xmlns="http://www.w3.org/2000/svg" xmlns:xlink="http://www.w3.org/1999/xlink" viewBox="0 0 705.53 232.79"><defs><style>.cls-1{clip-path:url(#clippath);}.cls-2{fill:none;}.cls-2,.cls-3,.cls-4,.cls-5{stroke-width:0px;}.cls-3{fill:url(#radial-gradient);}.cls-4{fill:#0075ba;}.cls-5{fill:#00a7a4;}</style><clipPath id="clippath"><path class="cls-2" d="M625.41,107.54c0,11.3,9.16,20.46,20.47,20.46s20.47-9.16,20.47-20.46-9.17-20.47-20.47-20.47-20.47,9.16-20.47,20.47"/></clipPath><radialGradient id="radial-gradient" cx="-41.46" cy="417.05" fx="-41.46" fy="417.05" r="3.98" gradientTransform="translate(1401.5 -7424.34) scale(18.01)" gradientUnits="userSpaceOnUse"><stop offset="0" stop-color="#b8dff5"/><stop offset="0" stop-color="#b8dff5"/><stop offset=".07" stop-color="#b8dff5"/><stop offset=".34" stop-color="#0075ba"/><stop offset=".61" stop-color="#0075ba"/><stop offset=".89" stop-color="#0075ba"/><stop offset=".95" stop-color="#0075ba"/><stop offset="1" stop-color="#0075ba"/></radialGradient></defs><path class="cls-4" d="M279.39,132.06c-.08.59-1.48,3.83-4.2,9.73-1.61,3.48-3.73,6.26-6.34,8.34-1.49,1.18-2.71,1.93-3.67,2.25-.29.08-.74.17-1.29.14-.76-.03-1.33-.27-2.22-.69-1.58-.75-1.63-.89-2.43-1.25-.91-.4-1.93-.85-3.11-.8-.45.02-1.17.12-3.37,1.49-.94.58-2.19,1.42-3.6,2.56-.55.42-1.12.85-1.68,1.31-.29.24-.58.47-.87.71.02-.27.06-.66.17-1.12.31-1.27.92-2.14,1.87-3.33,1.4-1.77,2.11-2.66,2.99-3.5,0,0,2.11-2.01,4.63-3.34.65-.34,1.19-.53,1.34-.58.48-.16.85-.29,1.3-.33.82-.07,1.45.19,2.3.54.43.18.56.27,1.73.88.66.34,1.2.62,1.56.8.3.15.75.35,1.31.49.26.06.59.15.98.16.98.03,1.74-.41,2.18-.67.77-.45,1.27-1.01,1.55-1.36,1.12-1.43,1.07-2.71,1.55-4.28.47-1.57,1.3-2.71,3.08-4.89,1.52-1.86,2.89-3.28,4.12-4.26.13.31.18.65.12,1.02Z"/><path class="cls-4" d="M289.45,143.51c.01.36-.24,1.33-.76,2.9-1.35,4.11-2.76,6.83-4.24,8.13-.43.37-1.81.95-4.16,1.72-2.41.79-3.79,1.19-4.15,1.2-.61.02-.99-.17-1.14-.57,2.16-1.24,4.32-2.47,6.46-3.71,2.83-1.91,4.22-3.69,4.16-5.32-.03-1.03-.45-2.14-1.25-3.33-.05-.09-.8-1.05-2.24-2.88,1.87-3.96,3.02-5.94,3.45-5.96.16,0,.55.37,1.19,1.13,1.71,2.02,2.6,4.25,2.68,6.68Z"/><path class="cls-4" d="M306.86,149.84c-.28-.08-.57-.15-.86-.24-.34-.1-.67-.19-.99-.29-.32.82-.92,1.86-1.55,3.3-2.29,5.25-3.4,7.9-5.26,9.56-1.22,1.09-3.31,2.26-6.27,3.5-2.65,1.09-4.38,1.65-5.18,1.66-.31,0-.54-.11-.69-.33.1-.21,1.18-1.08,3.25-2.62,2.66-1.98,4.7-3.59,6.13-4.83,4.08-3.53,6.11-6.21,6.08-8.03,0-.35-.22-.52-.66-.52-1.36.02-2.87-.29-4.51-.92-1.7-.68-2.56-1.36-2.57-2.04-.01-.97.75-3.06,2.29-6.26,1.58-3.33,2.73-5,3.43-5.01,1.32-.02,2.51,1.17,3.39,2.15,1.52,1.69,2.07,3.54,2.29,4.55.4.2.81.4,1.21.59-.03.76-.03,1.6.03,2.51.08,1.22.25,2.32.45,3.27Z"/><path class="cls-4" d="M317.66,144.56c.31-.96-1.61-2.38-2.69-2.91-1.64-.8-3.11-1.12-4.41-.95l-.05-.85c.98-1.73,2.03-2.93,3.16-3.6,1.13-.67,2.72-1.07,4.75-1.19,1.67-.1,3.22.03,4.64.38,2.05.48,3.12,1.33,3.19,2.57.06,1.05-1.24,3.38-3.9,6.98.4.17.8.34,1.2.51-.84.45-3.19,1.56-6.02.94-.96-.21-1.75-.57-2.35-.92.5-.03,2.21-.15,2.47-.96Z"/><path class="cls-4" d="M12.47,135.67v6.42c-1.62,2.33-4.2,4.37-6.95,6.12-1.29.87-3.71,1.6-5.17,1.17-.65-.15-.32-1.17.16-1.6,1.94-1.75,4.36-2.19,6.62-4.08,1.46-1.75-5.49-3.36-3.87-6.28,2.09-3.64,5.17-7.58,6.62-9.18.81-.3,1.29-.15,1.29.58-.81,1.45-4.2,3.94-.97,5.54.81.29,1.62.72,2.26,1.31M12.47,167.31c-.48.15-.97.15-1.62.15.16-.15.48-.44,1.62-.73v.58ZM12.47,142.08v-6.42c1.13,1.02,1.77,2.19,1.46,3.64-.33.87-.81,1.9-1.46,2.78M20.06,144.71v7.73c-1.13-.59-3.23-1.75-4.19-2.33-.48-.15-.33-.58-.16-1.03.48-.87,1.94-3.35,2.58-4.37.48-.44.65-.58,1.13-.29.16,0,.33.14.65.29M20.06,122.25v11.37c-.97-3.65-.16-8.17,0-11.37M20.06,166.15c-2.26.73-4.84,1.02-7.59,1.17v-.58l.16-.15c3.23-.87,4.52-1.31,7.42-3.35v-.15,3.07ZM20.06,152.44v-7.73c1.3.58,3.72,1.9,4.2,2.19.48.29.65.58.32,1.17-.48,1.02-2.26,3.94-2.58,4.52-.32.44-.8.44-1.13.3-.16-.15-.48-.3-.81-.44M28.3,132.45v7c-2.74,0-4.85-1.02-6.3-2.48-.96-1.02-1.45-2.18-1.94-3.35v-11.37c0-.15.16-.3.16-.44.16-5.69.97-15.61.97-15.61.65-3.64.48-2.18,1.45-4.82.49-1.45,1.62-4.67,2.1-3.93-.48,5.54-2.9,28-1.13,32.08.81,1.46,1.94,2.48,3.87,2.77.33.15.48.15.81.15M28.3,161.77c-.33.29-.48.44-.65.59-2.1,1.89-4.68,3.06-7.59,3.79v-3.07c2.75-2.48,5.49-5.25,8.24-8.02v6.71ZM35.73,126.62v7.29c-.16.3-.33.59-.49.88-1.29,1.75-3.23,4.38-6.29,4.67h-.65v-7c2.58.44,5-.73,7.43-5.84M35.73,105.33v2.33c-.65.29-1.14.29-1.14-.3.16-.87.49-1.45,1.14-2.04M35.73,153.89c-3.07,3.21-6.14,6.42-7.43,7.87v-6.71c2.58-2.62,5.17-5.4,7.43-7.73v6.56ZM35.73,133.91v-7.29c.65-1.45.32-2.19.8-2.62.33.14.33.43.33.87,0,1.46.32,5.84-1.13,9.04M43.96,101.68v3.07c-1.94.43-3.88.87-5.81,1.75-.97.29-1.77.87-2.42,1.17v-2.33c1.13-1.02,2.58-1.75,3.87-2.33,1.46-.58,2.9-.87,4.36-1.31M43.96,145.44c-.48.58-1.13,1.02-1.77,1.6-1.29,1.45-3.87,4.08-6.46,6.85v-6.56c3.07-3.21,5.65-5.83,7.27-7.44.32-.29.64-.58.97-.87v6.42ZM43.96,104.74c3.39-.88,6.78-1.75,9.37-4.38.33-.43.33-1.31-.16-1.75-2.9,1.75-5.97,2.34-9.2,3.07v3.07ZM110.53,151.71c-2.42,1.45-3.23,3.94-4.69,6.12-3.06,4.53-3.38,5.25-3.7,12.4-.33,7.58,0,5.3.16,13.32l.16,1.6.65-1.75c1.29-3.06.97-10.55,2.1-21.05.16-2.05,2.26-3.94,5.33-4.67v-5.98ZM100.48,92.34c-.49.3-.81.44-1.3.58-5.32,2.48-11.14,4.82-16.31,9.05,0,0-1.13,1.17-1.45,2.33-.33,1.02-1.3,13.86-.97,20.56.48,1.31.81,2.63,1.77,3.8,1.94,1.75,5.17,2.48,7.91,1.6,4.52-2.62,3.56-7.44,3.56-12.11-.16-1.6-.16-3.5-.32-5.25,0,0-.33-5.83.97-7.88,1.13-1.89,1.62-2.77,3.07-4.96.16,1.6-.32,5.4-.16,6.71.49,10.95.49,17.5-2.26,20.13-1.13,1.32-1.13,2.19-1.29,2.78-.49,4.96-2.91,6.71-5.33,7.73-2.26.88-8.39.59-10.33-5.1-1.62,2.19-9.21,10.8-9.86,11.52-1.77,3.5-2.9,6.28-4.52,10.8l-.64.87c-1.14-3.06-.97-3.35-.81-7.44.16-3.94-3.72-5.55-5.97-6.12-5.01-1.31-8.88.58-12.28,3.5v-6.42c3.87-3.07,7.58-4.23,9.85-4.67.81-.15,5.33-.44,7.43,1.45,2.58,2.19,4.04,6.57,4.04,6.57,1.13-2.05,2.9-3.94,4.2-6.13,2.58-3.06,5.17-6.12,7.9-9.33.49-9.77-1.77-17.93,3.88-25.53,4.36-6.85,12.11-10.06,19.22-13.99v4.96ZM117.47,149.96v6.57c-2.26.29-4.36.58-6.61,1.02-.16,0-.16.15-.33.15v-5.98c1.13-.58,2.58-1.02,4.68-1.17,1.29-.15,1.94-.3,2.26-.58M117.47,144.71v3.79-.14c-.8-1.17-.65-2.48,0-3.65M107.41,107.36v27.42c-.32.73-.8,1.45-1.12,2.18-.16,0-.48-.14-.48-.29,1.77-9.04.16-17.79.8-26.69.16-.88.48-1.75.8-2.63M107.41,85.49c-1.45,2.62-2.9,4.82-6.93,6.85v-4.96c1.94-1.02,3.71-2.19,5.48-3.35.48-.29.97-.59,1.45-.88v2.33ZM107.41,134.79c4.53-9.62,1.79-19.25,2.92-30.05,0-.44.32-2.33.16-2.62-1.45,1.16-2.42,3.21-3.07,5.24v27.42ZM139.59,161.77v2.48c-1.13,1.17-3.07,2.78-3.55,3.21-.33.44-.81.29-1.3,0-.48-.44-3.23-2.63-4.52-3.8-.49-.29-.32-.58.16-.88.65-.87,3.07-3.06,4.2-3.79.48-.44.8-.44,1.28-.14.33.29,2.43,1.9,3.72,2.91M139.59,139.31v8.75c-2.1-1.6-3.55-4.08-4.52-6.12-1.14-2.48-3.39-2.33-5.66-1.9-2.09.73-5,1.02-6.62,2.62-.48,1.46,2.59,1.17,3.56,1.9,1.45.88,2.42,2.05,2.58,3.5.33,1.17.48,2.63.16,3.79-.65,2.78-5.66,3.36-8.39,4.09-1.14.29-2.26.43-3.24.58v-6.57c.49-.3.16-.88,0-1.46v-3.79c1.14-2.33,4.04-4.08,4.85-4.82,2.74-2.04,6.78-5.1,11.62-5.1,2.91.29,3.88,2.33,5.66,4.52M139.59,118.01v2.48s-.16,0-.33.14c-.8-.58-.48-.87,0-2.04.16-.15.16-.44.33-.58M139.59,120.5c1.29-.73,2.58-1.46,4.04-1.75,2.25-.44,5-.44,6.94-.73-1.61,1.75-3.55,3.07-5.48,4.37-.81.58-.65,1.03,0,1.03,1.61,0,3.23-.58,4.52-1.17,2.26-3.21,4.85-6.28,5-10.07-.32-.88-.48-.88-1.61-.58-2.91.44-4.2.88-7.11,1.17-3.38.44-5.16,3.07-6.29,5.25v2.48ZM139.59,164.25v-2.48c1.13-1.01,2.75-2.48,3.56-3.21.48-.29.81-.29,1.29-.15.48.29,3.87,3.07,4.52,3.65.48.29.32.72,0,1.17-.97.87-3.56,3.35-4.2,3.94-.48.3-.96.15-1.29-.14-.48-.29-2.26-1.76-3.71-2.93l-.16.15ZM196.6,159.73v2.48c-4.52,1.17-9.05,2.48-13.4,3.94,0-1.9.97-2.33,2.75-3.07,3.55-1.31,7.1-2.33,10.66-3.35M196.6,128.66v5.97h-.16c-2.91,1.32-9.04,7.59-9.53,9.05,3.39-.58,5.01-.88,7.43-1.6.81-.15,1.45-.44,2.26-.58v5.54c-.16,0-.33,0-.33.14-5,1.31-19.05,3.95-28.74,4.24-3.88.14-7.92.29-18.9-.59-2.75-.43-3.55-.43-5.65-1.02-1.29-.29-2.42-1.02-3.39-1.75v-8.75c1.29,1.6,3.07,3.07,6.14,4.23,8.56,2.77,20.66,3.64,37.78-.15,1.78-2.33,4.2-5.54,6.14-8.46,0,0,.16-1.17.16-3.21.81-8.46-.65-15.61-.33-24.8,1.14-2.33,2.75-4.67,3.39-7.29l.49-.59c.16,2.78,0,3.36.32,4.97.32,8.17.48,16.04-.81,24.36-.8,2.92-1.61,3.65-2.1,5.54.65,0,2.74-2.91,5.82-5.24M201.92,158.27v2.33c-1.77.59-3.55,1.03-5.32,1.61v-2.48c1.77-.58,3.55-1.02,5.32-1.45M201.92,139.89v5.4c-1.61.58-3.38,1.17-5.32,1.75v-5.54c1.94-.59,3.71-1.03,5.32-1.61M201.92,125.9v7.44c-2.09,0-4.52.87-5.32,1.31v-5.97c1.46-1.31,3.23-2.33,5.32-2.77M201.92,105.33v7.73c-1.28-.58-3.38-1.76-4.36-2.33-.48-.15-.32-.58-.16-1.03.49-.87,1.94-3.35,2.75-4.37.33-.44.49-.58.97-.44.16.14.32.29.8.44M201.92,113.06v-7.73c1.14.58,3.56,1.9,4.05,2.18.48.3.65.58.32,1.17-.48,1.02-2.26,3.94-2.58,4.53-.33.43-.65.43-1.13.14-.16,0-.33-.14-.65-.29M201.92,160.6v-2.33c.33-.15.65-.3.97-.44,1.29-.29,4.04-1.17,4.04-1.17,0,2.05-1.29,2.63-2.58,3.07-.81.3-1.62.58-2.43.87M215.49,135.22v3.95c-2.1,1.31-5.65,3.35-13.57,6.12v-5.4c1.62-.72,2.91-1.31,3.88-2.04.96-.58-.49-2.63-1.46-3.5-.48-.73-1.45-.88-2.43-1.02v-7.44c.49,0,.97-.15,1.62-.15,2.1-.15,3.56.43,4.68,1.45,2.42,2.04,2.58,4.23.33,8.46-.97,1.6-2.1,3.2-2.74,4.51,2.74-.44,5-2.33,7.58-3.49.65-.44,1.46-.88,2.1-1.46M215.49,117.43v6.57c-.97-.58-2.9-1.31-4.04-1.9-.32-.15-.16-.44,0-.87.33-.73,1.77-3.07,2.42-3.8.33-.44.65-.44.97-.3.16,0,.48.15.65.3M215.49,124v-6.57c1.29.44,3.39,1.6,4.04,1.89.32.15.48.59.16.88-.49.88-2.1,3.36-2.43,3.94-.16.29-.65.29-.96.15-.16-.15-.49-.15-.81-.29M228.08,133.04v3.35c-1.62,2.05-3.23,3.79-6.3,3.94-2.42.15-3.55-3.06-6.13-1.31l-.16.15v-3.95c2.43-1.45,5.01-3.06,6.46-2.04,1.14,1.02,3.23,2.04,4.52,1.17.65-.44,1.14-.88,1.62-1.31M228.08,114.22v5.83c-.97-.73-2.1-1.6-2.91-2.04-.32-.29-.16-.58.16-.88.49-.58,1.62-2.04,2.75-2.91M228.08,104.59v7c-1.13-.73-2.75-1.9-3.56-2.48-.32-.29-.16-.58.16-1.02.48-.73,2.26-2.62,3.39-3.5M228.08,111.6v-7c0-.15.16-.15.16-.29.48-.29.8-.44,1.13-.15.48.29,3.88,2.62,4.52,3.2.48.3.33.59,0,1.02-.65.88-3.07,3.51-3.55,3.94-.33.44-.81.3-1.14,0-.16-.14-.65-.43-1.13-.72M228.08,120.05v-5.83c.33-.44.65-.73.81-1.02.48-.3.8-.3,1.29-.15.32.29,3.71,2.62,4.36,3.21.48.29.48.72.16,1.02-.81.88-3.07,3.5-3.71,3.94-.33.44-.81.29-1.14.14-.32-.29-.97-.73-1.77-1.31M228.08,136.39v-3.35c1.61-1.6,2.26-3.35,3.23-5.1.65.15.16,1.17.33,1.46-1.14,2.48-1.29,3.8-3.56,6.85v.15ZM425.56,141.02v5.1c-1.29.73-2.42.73-3.71.73-2.91-.73-5.49-3.8-8.72-2.05-3.39,1.9-7.75,5.55-7.75,5.55.16-2.63,1.94-4.38,3.39-6.13,2.26-2.77,4.84-4.82,8.23-5.97,2.74-.73,5.65,2.62,8.56,2.77M425.56,114.48v8.89q-.16,0-.16-.15c-.65-.29-3.55-2.33-5-3.35-.33-.29-.16-.58.16-1.02.65-.73,2.9-3.21,3.87-4.08.32-.29.65-.44,1.13-.29M425.56,105.43v8.61c-.32.15-.65,0-.96-.15-.49-.43-3.56-2.62-4.85-3.64-.48-.29-.33-.58,0-.88.65-.87,2.91-3.35,3.88-4.23.48-.29.81-.44,1.29-.14.16,0,.33.14.65.43M425.56,114.04v-8.61c1.13.73,3.56,2.48,4.2,2.92.32.44.32.73,0,1.17-.81,1.02-3.24,3.8-3.88,4.23-.16.14-.16.29-.33.29M425.56,123.37v-8.89s0,.14.16.14c.32.29,4.04,2.77,4.68,3.36.48.43.48.72.16,1.16-.81,1.03-3.39,3.51-3.88,4.08-.32.29-.8.29-1.13.15M446.55,141.9v7.73c-1.94-.58-3.87-1.31-5.81-2.33-2.42-1.31-3.88-2.77-5.65-4.82-2.59-3.07-6.79,1.17-8.72,3.06-.33.29-.65.44-.81.58v-5.1c.48,0,1.13-.15,1.77-.43,1.78-.88,4.68-4.67,8.08-4.96,2.42.15,6.3,3.5,8.07,4.67.97.73,1.94,1.17,3.07,1.6M446.55,120.02v3.35c-.32.15-.48.3-.65.58-.96.73-2.75,1.6-4.04,1.31-.48-.15-.32-1.02,0-1.46,1.29-1.46,3.07-2.04,4.68-3.79M446.55,106.9v12.11c-.96-1.17-4.52-2.33-3.71-4.52,1.13-2.78,2.58-5.83,3.71-7.58M446.55,123.37v-3.35l.17-.15c.16-.29,0-.58-.17-.87v-12.11c.17-.44.33-.73.49-.88.48-.43.96-.29,1.13.3-.48,1.45-2.91,3.94-.33,4.96,2.1.73,3.72,2.33,3.56,4.23-.48,2.77-2.42,5.69-4.85,7.87M479.33,143.79v5.4c-7.76,1.74-14.21,2.04-18.09,2.19-5.33.29-10.18-.3-14.7-1.75v-7.73c2.1.88,4.52,1.31,6.79,1.75,8.39,1.6,18.73,1.02,26,.15M479.33,122.2v1.75c-.65.15-1.13.3-1.62.3-.81-.15-.81-.44-.16-1.17.65-.3,1.13-.58,1.78-.88M479.33,113.6v5.69c-1.13,0-2.1.15-3.07.44-1.61.15-2.9,1.03-4.36,1.75-.81-.58-.48-.72,0-1.89,1.13-2.48,2.91-5.55,6.46-5.84.32-.15.65-.15.97-.15M507.59,162.9c-.97.88-3.56,3.21-4.2,3.79-.32.3-.8.15-1.29-.14-.48-.44-3.23-2.63-4.52-3.65-.48-.3-.16-.58.16-1.03.65-.72,3.07-2.91,4.19-3.79.49-.29.81-.29,1.3-.14.32.29,3.07,2.48,4.19,3.35.81-.87,3.07-2.92,4.04-3.65.48-.29.81-.29,1.29-.15.48.29,3.72,3.07,4.52,3.65.33.29.33.72,0,1.17-.97.87-3.71,3.35-4.19,3.94-.49.3-.97.15-1.3-.14-.65-.29-2.9-2.19-4.19-3.36v.15ZM511.78,94.93c-.16,2.05-1.45,2.48-2.58,3.06-6.94,2.19-14.21,4.08-21.15,6.42,0-1.9.97-2.33,2.75-3.07,5.49-2.04,11.3-3.65,16.96-5.25,1.13-.44,4.03-1.17,4.03-1.17M479.33,123.96c.97-.15,1.94-.58,2.9-1.02,2.1-3.07,4.85-5.98,4.85-9.92-.33-.72-.48-.72-1.45-.44-2.75.44-4.04.73-6.3,1.02v5.69c1.29-.15,2.74-.15,3.88-.29-1.14,1.17-2.58,2.19-3.88,3.2v1.75ZM518.89,122.06v6.42c-.49-.15-.97-.15-1.46-.15-.96.15-1.94,1.61-1.29,2.48.64.88,1.61,1.31,2.75,1.75v4.08c-3.07,1.75-5.81,4.23-10.18,3.21-1.13-.15-3.39-2.92-5-1.75-6.3,4.52-9.85,7.29-18.9,9.77-1.94.58-3.71,1.02-5.48,1.31v-5.4c3.88-.58,6.94-1.02,8.23-1.45,5.81-1.46,11.79-4.97,17.28-8.03,3.55-1.45,5.33,4.08,9.2,1.9l2.1-1.17c-.65-.44-1.46-1.02-1.94-1.75-.65-1.75-.33-3.21.32-4.67,1.46-2.04,3.72-1.89,2.58-4.08-.33-1.6.33-2.04,1.29-2.62.16,0,.33.14.49.14M525.83,126.44v4.67c-.48-.29-1.13-.58-1.77-.73-.16,1.02-.81,2.33-1.3,3.07.97.72,2.11,1.02,3.07,1.31v3.35c-2.1-.15-4.04-1.46-5.97-2.05-.32.3-.65.44-.96.58v-4.08c.48,0,.96.15,1.45.15,1.14-.58,1.94-2.05,1.14-2.92-.48-.58-1.46-1.02-2.58-1.31v-6.42c.32.15.48.29.48.44.16.58.96.87,1.62,1.45.48.3,2.58,1.31,4.84,2.48M525.83,138.11v-3.35c.65,0,1.14.14,1.77.29,1.13,0,1.78-1.17,1.3-1.75-.81-1.02-1.94-1.75-3.07-2.19v-4.67c1.46.73,2.9,1.6,3.87,2.33.49.29,1.46,1.31,1.62,1.6.96,1.31,1.29,2.18.16,4.08-.97,1.6-1.94,2.48-3.56,3.35-.65.3-1.46.3-2.1.3M232.58,124.14c.33,0,.36,1.12,1.18,2.55.56.98,1.24,1.65,1.72,2.07.59.34,1.45.74,2.53.97,1.87.39,3.43.06,4.26-.18,4.52-2.62,3.56-7.44,3.56-12.1-.16-1.6-.16-3.5-.32-5.25,0,0-.33-5.83.97-7.88,1.13-1.89,1.62-2.77,3.07-4.96.16,1.6-.32,5.4-.16,6.71.49,10.95.49,17.5-2.26,20.13-1.13,1.32-1.13,2.19-1.29,2.78-.26,2.65-1.08,4.38-2.15,5.58-.09.1-1.43,1.54-3.18,2.15-3.35,1.15-7.88-.88-11.16-5.12.51-.73,1.2-1.84,1.79-3.3.91-2.27,1.03-4.13,1.46-4.13Z"/><path class="cls-4" d="M260.57,124.54l-.31,6.03c-.97-.81-2.09-1.77-2.9-2.26-.31-.32-.13-.61.22-.9.54-.57,1.78-2.02,3-2.86M261.08,114.58l-.37,7.24c-1.13-.82-2.74-2.11-3.55-2.76-.31-.32-.13-.61.22-1.05.54-.73,2.48-2.59,3.7-3.44M260.71,121.82l.37-7.24c0-.15.18-.14.18-.29.51-.28.85-.42,1.17-.09.49.32,3.87,2.92,4.51,3.56.48.33.31.63-.05,1.05-.71.87-3.36,3.47-3.88,3.88-.36.44-.85.26-1.18-.06-.16-.15-.64-.48-1.13-.81M260.26,130.57l.31-6.03c.36-.44.71-.72.89-1.01.51-.28.85-.26,1.35-.09.31.32,3.7,2.91,4.34,3.55.48.33.46.77.11,1.06-.88.87-3.36,3.46-4.05,3.88-.36.43-.85.26-1.18.08-.32-.31-.96-.81-1.77-1.45M268.55,163.81c-1.05.86-3.84,3.13-4.54,3.7-.35.28-.84.11-1.33-.22-.48-.48-3.2-2.88-4.48-4.02-.49-.33-.14-.61.22-1.05.71-.72,3.33-2.85,4.55-3.7.51-.27.85-.25,1.34-.08.31.31,3.04,2.72,4.17,3.69.89-.87,3.33-2.85,4.36-3.56.52-.27.85-.25,1.35-.08.48.33,3.68,3.37,4.48,4.02.31.32.29.77-.06,1.21-1.05.86-4.03,3.27-4.56,3.85-.51.28-1.01.1-1.33-.22-.65-.34-2.89-2.41-4.17-3.7v.15Z"/><path class="cls-4" d="M360.99,134.46c.58-.31,1.05-.56,1.37-.74.21-.12.42-.23.63-.35.89-.52,1.48-.82,1.75-.89.66-.15,1.5.01,2.53.5,1.12.5,1.92.73,2.42.71.56-.13,1.84-1.21,3.87-3.26.41.36.82.73,1.21,1.1.45.3.99.36,1.63.21.44-.1,1-.72,1.69-1.87.69-1.14,1.2-1.75,1.5-1.83.35-.08.74.39,1.18,1.41-.31.38-.63.77-.94,1.15-.36.45-.72.9-1.08,1.34-2,2.44-3.44,4.55-4.3,4.76-.33.08-1.26-.16-2.81-.71-.26.15-.97.69-2.13,1.6-.9.72-1.65,1.15-2.26,1.29-.25.06-.5.09-.74.08-.61-.02-1.04-.25-1.39-.42,0,0-.57-.27-1.93-.66-.7-.2-1.76-.27-3.3.35"/><path class="cls-4" d="M406.99,107.35l-1.48,28.72c-.37.75-.92,1.48-1.29,2.23-.17,0-.5-.17-.49-.33,2.35-9.37,1.13-18.63,2.28-27.91.22-.91.6-1.81.98-2.71M405.51,136.08c5.26-9.83,2.91-20.07,4.68-31.31.02-.46.46-2.43.3-2.74-1.58,1.14-2.71,3.23-3.5,5.33l-1.48,28.72Z"/><path class="cls-4" d="M381.76,126.22c.54,1.05,1.21,1.8,1.69,2.26.6.39,1.48.85,2.6,1.15,1.94.51,3.59.25,4.47.04,4.88-2.5,4.12-7.6,4.38-12.49-.08-1.69.02-3.68-.05-5.52,0,0-.03-6.13,1.44-8.2,1.28-1.92,1.84-2.81,3.48-5.02.08,1.69-.63,5.64-.53,7.01-.08,11.49-.43,18.36-3.45,20.96-1.25,1.32-1.3,2.24-1.5,2.84-.42,2.76-1.36,4.53-2.55,5.73-.15.15-1.59,1.56-3.45,2.08-3.5.98-8.02-1.31-11.08-5.78.2-.31.52-.8.9-1.4,1.76-2.83,2.42-4.34,3.07-4.22.14.03.38.15.6.58Z"/><path class="cls-4" d="M592.58,84.01c-6.42,15.47-9.63,51.92-6.71,67.24,4.08,21.14,13.42,45.22,42.59,43.9,18.24-.87,30.34-9.19,30.34-9.19,0,0-19.11,22.46-48.28,22.46s-40.56-29.31-38.8-55.28c3.21-47.99,20.86-69.14,20.86-69.14"/><path class="cls-5" d="M685.05,232.79s7.15-38.07,6.42-55.28c-1.17-28.59-10.36-31.51-10.36-31.51,0,0-18.09,32.96-47.7,32.96-22.32,0-34.14-23.92-34.14-49.88s4.23-57.9,42.01-129.08c-12.11,24.07-19.54,51.93-21.59,59.37-1.9,7.44-11.96,42.88-8.17,64.61,3.94,22.9,12.54,33.41,23.19,33.41,19.25,0,45.95-36.61,45.95-36.61,0,0,38.65,23.48,19.54,77.01-5.69,16.04-15.17,35.01-15.17,35.01"/><g class="cls-1"><path class="cls-3" d="M625.41,107.54c0,11.3,9.16,20.46,20.47,20.46s20.47-9.16,20.47-20.46-9.17-20.47-20.47-20.47-20.47,9.16-20.47,20.47"/></g><path class="cls-4" d="M524.88,121.48c.3-.88.54-2.64.73-5.28.05-1.3.13-2.6.23-3.92.09-1.32.21-2.64.34-3.96.24-.89.88-2.78,1.91-5.68,1.03-2.91,1.91-5.03,2.64-6.35.25-.19.45-.19.61,0,.16.15.05,1.5-.36,4.07-.36,3.59-.57,6-.63,7.22-.06,1.22-.19,2.75-.35,4.58-.13,2.05-.44,4.07-.91,6.05-.47,1.98-1.11,3.77-1.91,5.38-.8,1.62-1.31,2.64-1.56,3.08-.62.42-1.18.59-1.68.51-.51-.07-1.02-.24-1.56-.51,1.11-1.61,1.94-3.35,2.51-5.2"/><path class="cls-4" d="M543.84,102.24c.35-.73.64-1.1.86-1.1.34,0,.46.23.32.69-.16.51-.35,1.4-.57,2.66-.22,1.26-.38,2.24-.49,2.95-.16,1.25-.32,2.65-.48,4.22-.16,1.56-.31,3.17-.45,4.82l-.4,4.82c-.13,1.56-.28,2.97-.44,4.22-.43,3.79-1.1,6.91-1.98,9.37-.89,2.46-1.94,4.72-3.13,6.82-1.19,2.09-2.15,3.18-2.88,3.28-.2,0-.14-.44.16-1.32.35-.83.68-1.87.99-3.11.31-1.25.59-2.59.83-4.01.24-1.43.46-2.9.65-4.4.19-1.5.35-2.93.48-4.27.2-1.27.35-3.17.49-5.69.13-2.53.33-4.68.61-6.43.27-1.76.68-3.26,1.21-4.51"/><path class="cls-4" d="M361.02,134.45c-.37,1.27-.75,2.53-1.12,3.8-2.35,2.13-5.59,4.67-9.79,6.95-4.51,2.46-8.25,3.61-9.35,3.93-5.79,1.71-10.48,1.84-12.16,1.86-3.8.03-6.98-.46-9.25-.95-2.44.64-6.21,1.24-10.58.37-1.41-.28-2.66-.67-3.76-1.09.18-.7.76-2.88.94-3.58.04-.17.39-1.5.44-1.67.12.05.36.13.66.22,0,0,.13.04.32.1,0,0,.37.12.7.21,2.19.64,4.57.55,4.57.55.3-.01,4.55-.19,4.72-1.33.05-.31-.22-.61-.48-.84l7.06-.24c-.35.49-.69.97-1.04,1.46,4.26.6,11.36,1.06,19.74-1.03,8.68-2.17,14.89-6.11,18.38-8.72Z"/><path class="cls-4" d="M363.1,120.31c0,1.03-.22,1.92-.65,2.68-.52.92-1.25,1.38-2.19,1.38-.7,0-1.28-.19-1.73-.57-.11.63-.45,1.18-1.01,1.64-.57.46-1.17.69-1.8.69-.7,0-1.26-.32-1.68-.97-.36-.56-.54-1.21-.54-1.95,0-.56.2-1.47.6-2.73l.62-.11c0,2,.35,3,1.06,3,1.05,0,1.86-1.46,2.44-4.38l.49-.16c.4,1.77.92,2.65,1.57,2.65,1.21,0,1.81-1.33,1.81-3.98l.62-.27c.27.97.41,2,.41,3.09ZM362.91,113.31l-.22,2.69c-.67-.4-1.39-.87-2.17-1.41-2.15,2.6-3.92,3.9-5.33,3.9-.33,0-.86-.11-1.6-.33,1.38-.6,3.31-2.01,5.79-4.23-1.12-.87-1.67-1.68-1.67-2.44,0-.94.29-1.9.87-2.88.65-1.12,1.41-1.68,2.29-1.68,1.23,0,1.85.73,1.85,2.2,0,1.09-.29,2.21-.87,3.37l1.06.81ZM361.02,110.94c0-1.1-.47-1.65-1.41-1.65l-.35.16-.13.38c0,.52.58,1.2,1.73,2.03.11-.36.16-.67.16-.92Z"/><path class="cls-4" d="M324.05,123.12l-.22,2.69c-.67-.4-1.39-.87-2.17-1.41-2.15,2.6-3.92,3.9-5.33,3.9-.33,0-.86-.11-1.6-.33,1.38-.6,3.31-2.01,5.79-4.23-1.12-.87-1.67-1.68-1.67-2.44,0-.94.29-1.9.87-2.88.65-1.12,1.41-1.68,2.29-1.68,1.23,0,1.85.73,1.85,2.2,0,1.09-.29,2.21-.87,3.37l1.06.81ZM322.15,120.75c0-1.1-.47-1.65-1.41-1.65l-.35.16-.13.38c0,.52.58,1.2,1.73,2.03.11-.36.16-.67.16-.92Z"/><path class="cls-4" d="M1.82,204.13c1.06.58,2.75,1.09,4.4,1.09,1.96,0,2.99-.87,2.99-2.16s-.92-1.97-3.06-2.87c-3.09-1.3-4.89-3.17-4.89-5.7,0-3.28,2.59-5.84,7.04-5.84,1.95,0,3.44.42,4.42.9l-.87,3.47c-.71-.36-1.95-.85-3.61-.85-1.84,0-2.72.92-2.72,1.93,0,1.22.94,1.79,3.35,2.85,3.21,1.38,4.61,3.23,4.61,5.78,0,3.37-2.55,6.03-7.46,6.03-2.03,0-4.04-.54-5-1.09l.79-3.55Z"/><path class="cls-4" d="M20.37,203.64l-1.22,4.86h-4.31l5.46-19.58h5.42l5.41,19.58h-4.45l-1.3-4.86h-5ZM24.81,200.44l-1.05-4.14c-.29-1.17-.61-2.78-.88-3.97h-.06c-.26,1.2-.56,2.84-.84,3.98l-1.03,4.14h3.87Z"/><path class="cls-4" d="M36.96,188.92v11.7c0,3.23,1.16,4.7,3.04,4.7s3.09-1.38,3.09-4.7v-11.7h4.24v11.31c0,5.74-2.71,8.57-7.43,8.57s-7.18-2.77-7.18-8.59v-11.28h4.24Z"/><path class="cls-4" d="M50.99,189.19c1.42-.25,3.33-.41,5.34-.41,3.34,0,5.55.65,7.25,1.99,1.93,1.52,3.08,3.96,3.08,7.53,0,3.82-1.26,6.47-3.08,8.04-1.84,1.58-4.63,2.34-8.12,2.34-1.97,0-3.48-.13-4.46-.27v-19.23ZM55.22,205.26c.33.07.85.07,1.29.07,3.36.02,5.68-2.06,5.68-6.96,0-4.06-1.97-6.29-5.33-6.29-.76,0-1.29.06-1.64.15v13.03Z"/><path class="cls-4" d="M73.68,188.92v19.58h-4.24v-19.58h4.24Z"/><path class="cls-4" d="M93.52,200.12h-6.38v4.85h7.15v3.53h-11.39v-19.58h11v3.53h-6.76v4.21h6.38v3.46Z"/><path class="cls-4" d="M97.19,188.92h4.24v16.02h6.96v3.57h-11.2v-19.58Z"/><path class="cls-4" d="M121.5,200.12h-6.38v4.85h7.15v3.53h-11.39v-19.58h11v3.53h-6.76v4.21h6.38v3.46Z"/><path class="cls-4" d="M138.04,208.03c-.72.35-2.34.73-4.39.73-6.25,0-9.41-4.2-9.41-9.77,0-6.89,4.58-10.34,9.85-10.34,2.02,0,3.52.4,4.17.76l-.82,3.41c-.75-.33-1.78-.63-3.14-.63-3.1,0-5.6,2.05-5.6,6.55,0,4.15,2.15,6.42,5.61,6.42,1.14,0,2.39-.23,3.14-.53l.57,3.39Z"/><path class="cls-4" d="M144.49,192.58h-4.74v-3.66h13.77v3.66h-4.79v15.92h-4.24v-15.92Z"/><path class="cls-4" d="M155.77,189.19c1.35-.24,3.28-.41,5.37-.41,2.66,0,4.65.4,6,1.52,1.17.97,1.73,2.33,1.73,4.1,0,2.37-1.55,4.14-3.33,4.84v.08c1.35.55,2.09,1.82,2.54,3.72.54,2.2,1.11,4.72,1.48,5.46h-4.37c-.28-.56-.76-2.25-1.24-4.6-.48-2.44-1.24-3.11-2.9-3.12h-1.09v7.72h-4.21v-19.31ZM159.97,197.65h1.42c2.03,0,3.24-1.19,3.24-2.89s-1.06-2.75-2.99-2.77c-.84,0-1.39.06-1.67.14v5.53Z"/><path class="cls-4" d="M176.16,188.92v19.58h-4.24v-19.58h4.24Z"/><path class="cls-4" d="M192.75,208.03c-.72.35-2.34.73-4.39.73-6.25,0-9.41-4.2-9.41-9.77,0-6.89,4.58-10.34,9.85-10.34,2.02,0,3.52.4,4.17.76l-.82,3.41c-.75-.33-1.78-.63-3.14-.63-3.1,0-5.6,2.05-5.6,6.55,0,4.15,2.15,6.42,5.61,6.42,1.14,0,2.39-.23,3.14-.53l.57,3.39Z"/><path class="cls-4" d="M199.67,188.92v19.58h-4.24v-19.58h4.24Z"/><path class="cls-4" d="M206.67,192.58h-4.74v-3.66h13.77v3.66h-4.79v15.92h-4.24v-15.92Z"/><path class="cls-4" d="M222.19,208.5v-7.87l-5.62-11.71h4.77l1.79,4.7c.53,1.36.94,2.54,1.37,3.87h.06c.38-1.28.8-2.51,1.31-3.9l1.73-4.67h4.68l-5.84,11.57v8.02h-4.24Z"/><path class="cls-4" d="M239.62,189.19c1.35-.24,3.28-.41,5.37-.41,2.66,0,4.65.4,6,1.52,1.17.97,1.73,2.33,1.73,4.1,0,2.37-1.55,4.14-3.33,4.84v.08c1.35.55,2.09,1.82,2.54,3.72.54,2.2,1.11,4.72,1.48,5.46h-4.37c-.28-.56-.76-2.25-1.24-4.6-.48-2.44-1.24-3.11-2.9-3.12h-1.09v7.72h-4.21v-19.31ZM243.83,197.65h1.42c2.03,0,3.24-1.19,3.24-2.89s-1.06-2.75-2.99-2.77c-.84,0-1.39.06-1.67.14v5.53Z"/><path class="cls-4" d="M266.4,200.12h-6.38v4.85h7.15v3.53h-11.39v-19.58h11v3.53h-6.76v4.21h6.38v3.46Z"/><path class="cls-4" d="M284.77,207.71c-1.21.43-3.56.98-5.79.98-3.18,0-5.49-.82-7.14-2.42-1.76-1.69-2.72-4.34-2.7-7.36.04-6.7,4.58-10.18,10.32-10.18,2.22,0,3.91.42,4.77.84l-.85,3.47c-.93-.41-2.07-.72-3.86-.72-3.36,0-5.94,1.99-5.94,6.5,0,4.24,2.34,6.41,5.4,6.41.81,0,1.45-.09,1.74-.23v-4.29h-2.65v-3.35h6.69v10.36Z"/><path class="cls-4" d="M292.25,188.92v11.7c0,3.23,1.16,4.7,3.04,4.7s3.09-1.38,3.09-4.7v-11.7h4.24v11.31c0,5.74-2.71,8.57-7.43,8.57s-7.18-2.77-7.18-8.59v-11.28h4.24Z"/><path class="cls-4" d="M306.28,188.92h4.24v16.02h6.96v3.57h-11.2v-19.58Z"/><path class="cls-4" d="M324.24,203.64l-1.23,4.86h-4.31l5.46-19.58h5.42l5.41,19.58h-4.45l-1.3-4.86h-5ZM328.68,200.44l-1.05-4.14c-.29-1.17-.61-2.78-.88-3.97h-.06c-.26,1.2-.56,2.84-.84,3.98l-1.03,4.14h3.87Z"/><path class="cls-4" d="M338.64,192.58h-4.74v-3.66h13.77v3.66h-4.8v15.92h-4.24v-15.92Z"/><path class="cls-4" d="M365.22,198.47c0,6.71-3.5,10.32-8.62,10.32-5.39,0-8.31-4.48-8.31-10s3.27-10.16,8.61-10.16c5.62,0,8.32,4.71,8.32,9.84ZM352.76,198.74c0,4.02,1.51,6.59,4.04,6.59s3.96-2.85,3.96-6.71c0-3.51-1.33-6.55-3.97-6.55s-4.03,2.74-4.03,6.66Z"/><path class="cls-4" d="M367.99,189.19c1.35-.24,3.28-.41,5.37-.41,2.66,0,4.65.4,6,1.52,1.17.97,1.73,2.33,1.73,4.1,0,2.37-1.55,4.14-3.33,4.84v.08c1.35.55,2.09,1.82,2.54,3.72.54,2.2,1.11,4.72,1.48,5.46h-4.37c-.28-.56-.76-2.25-1.24-4.6-.48-2.44-1.24-3.11-2.9-3.12h-1.09v7.72h-4.21v-19.31ZM372.2,197.65h1.42c2.03,0,3.24-1.19,3.24-2.89s-1.06-2.75-2.98-2.77c-.84,0-1.39.06-1.67.14v5.53Z"/><path class="cls-4" d="M387.58,208.5v-7.87l-5.62-11.71h4.77l1.79,4.7c.53,1.36.94,2.54,1.37,3.87h.06c.38-1.28.8-2.51,1.31-3.9l1.73-4.67h4.68l-5.84,11.57v8.02h-4.24Z"/><path class="cls-4" d="M409.11,203.64l-1.23,4.86h-4.31l5.46-19.58h5.42l5.41,19.58h-4.45l-1.3-4.86h-5ZM413.55,200.44l-1.05-4.14c-.29-1.17-.61-2.78-.88-3.97h-.06c-.26,1.2-.56,2.84-.84,3.98l-1.03,4.14h3.87Z"/><path class="cls-4" d="M425.7,188.92v11.7c0,3.23,1.16,4.7,3.04,4.7s3.09-1.38,3.09-4.7v-11.7h4.24v11.31c0,5.74-2.71,8.57-7.43,8.57s-7.18-2.77-7.18-8.59v-11.28h4.24Z"/><path class="cls-4" d="M443.01,192.58h-4.74v-3.66h13.77v3.66h-4.8v15.92h-4.24v-15.92Z"/><path class="cls-4" d="M458.53,188.92v7.63h6.3v-7.63h4.24v19.58h-4.24v-8.19h-6.3v8.19h-4.24v-19.58h4.24Z"/><path class="cls-4" d="M488.8,198.47c0,6.71-3.5,10.32-8.62,10.32-5.39,0-8.31-4.48-8.31-10s3.27-10.16,8.61-10.16c5.62,0,8.32,4.71,8.32,9.84ZM476.33,198.74c0,4.02,1.51,6.59,4.04,6.59s3.96-2.85,3.96-6.71c0-3.51-1.33-6.55-3.97-6.55s-4.03,2.74-4.03,6.66Z"/><path class="cls-4" d="M491.57,189.19c1.35-.24,3.28-.41,5.37-.41,2.66,0,4.65.4,6,1.52,1.17.97,1.73,2.33,1.73,4.1,0,2.37-1.55,4.14-3.33,4.84v.08c1.35.55,2.09,1.82,2.54,3.72.54,2.2,1.11,4.72,1.48,5.46h-4.37c-.28-.56-.76-2.25-1.24-4.6-.48-2.44-1.24-3.11-2.9-3.12h-1.09v7.72h-4.21v-19.31ZM495.78,197.65h1.42c2.03,0,3.24-1.19,3.24-2.89s-1.06-2.75-2.98-2.77c-.84,0-1.39.06-1.67.14v5.53Z"/><path class="cls-4" d="M511.97,188.92v19.58h-4.24v-19.58h4.24Z"/><path class="cls-4" d="M518.96,192.58h-4.74v-3.66h13.77v3.66h-4.8v15.92h-4.24v-15.92Z"/><path class="cls-4" d="M534.49,208.5v-7.87l-5.62-11.71h4.77l1.79,4.7c.53,1.36.94,2.54,1.37,3.87h.06c.38-1.28.8-2.51,1.31-3.9l1.73-4.67h4.68l-5.84,11.57v8.02h-4.24Z"/><path class="cls-4" d="M107.74,84.76c-.16.29-.16.44-.33.73v-2.33c.49-.29,1.14-.73,1.46-1.02-.48,1.31-.97,2.19-1.13,2.62"/></svg>