<svg width="334" height="110" viewBox="0 0 334 110" fill="none" xmlns="http://www.w3.org/2000/svg">
<g clip-path="url(#clip0_10_2297)">
<path d="M132.264 62.4022C132.226 62.681 131.563 64.212 130.276 66.9999C129.514 68.6443 128.51 69.958 127.274 70.9408C126.569 71.4984 125.991 71.8528 125.537 72.004C125.4 72.0418 125.187 72.0843 124.926 72.0702C124.567 72.056 124.297 71.9426 123.875 71.7441C123.127 71.3897 123.104 71.3236 122.725 71.1535C122.294 70.9644 121.811 70.7518 121.253 70.7754C121.04 70.7849 120.699 70.8321 119.657 71.4795C119.212 71.7536 118.621 72.1505 117.953 72.6892C117.693 72.8876 117.423 73.0908 117.158 73.3082C117.02 73.4216 116.883 73.5303 116.746 73.6437C116.755 73.5161 116.774 73.3318 116.826 73.1144C116.973 72.5143 117.262 72.1032 117.712 71.5409C118.374 70.7045 118.711 70.284 119.127 69.8871C119.127 69.8871 120.126 68.9373 121.319 68.3088C121.627 68.1482 121.882 68.0584 121.953 68.0348C122.181 67.9592 122.356 67.8977 122.569 67.8788C122.957 67.8457 123.255 67.9686 123.658 68.134C123.861 68.219 123.923 68.2616 124.477 68.5498C124.789 68.7105 125.045 68.8428 125.215 68.9278C125.357 68.9987 125.57 69.0932 125.835 69.1594C125.958 69.1877 126.115 69.2303 126.299 69.235C126.763 69.2492 127.123 69.0413 127.331 68.9184C127.696 68.7058 127.932 68.4411 128.065 68.2758C128.595 67.6 128.572 66.9952 128.799 66.2533C129.021 65.5115 129.414 64.9728 130.257 63.9427C130.976 63.0638 131.625 62.3928 132.207 61.9297C132.269 62.0762 132.292 62.2368 132.264 62.4117V62.4022Z" fill="white"/>
<path d="M137.026 67.8126C137.031 67.9827 136.913 68.4411 136.667 69.1829C136.028 71.125 135.36 72.4103 134.659 73.0246C134.456 73.1994 133.803 73.4735 132.69 73.8373C131.549 74.2106 130.896 74.3997 130.725 74.4044C130.437 74.4138 130.257 74.3241 130.186 74.135C131.208 73.5491 132.231 72.9679 133.244 72.382C134.584 71.4794 135.242 70.6383 135.213 69.8681C135.199 69.3814 135 68.8569 134.622 68.2946C134.598 68.2521 134.243 67.7984 133.561 66.9337C134.446 65.0625 134.991 64.1269 135.194 64.1174C135.27 64.1174 135.455 64.2923 135.758 64.6514C136.567 65.6059 136.989 66.6596 137.026 67.8079V67.8126Z" fill="white"/>
<path d="M145.268 70.8038C145.136 70.7659 144.999 70.7329 144.861 70.6903C144.7 70.6431 144.544 70.6006 144.393 70.5533C144.241 70.9408 143.957 71.4322 143.659 72.1127C142.575 74.5934 142.049 75.8456 141.169 76.63C140.591 77.1451 139.602 77.6979 138.201 78.2839C136.946 78.7989 136.127 79.0636 135.748 79.0683C135.602 79.0683 135.493 79.0163 135.422 78.9123C135.469 78.8131 135.98 78.402 136.96 77.6743C138.219 76.7387 139.185 75.9779 139.862 75.392C141.794 73.724 142.755 72.4576 142.74 71.5976C142.74 71.4322 142.636 71.3519 142.428 71.3519C141.784 71.3613 141.069 71.2149 140.293 70.9172C139.488 70.5958 139.081 70.2745 139.076 69.9532C139.072 69.4948 139.431 68.5073 140.16 66.9952C140.908 65.4216 141.453 64.6325 141.784 64.6278C142.409 64.6184 142.972 65.1807 143.389 65.6437C144.109 66.4423 144.369 67.3165 144.473 67.7937C144.662 67.8883 144.857 67.9828 145.046 68.0725C145.032 68.4317 145.032 68.8286 145.06 69.2586C145.098 69.8351 145.178 70.3548 145.273 70.8038H145.268Z" fill="white"/>
<path d="M150.381 68.3087C150.528 67.8551 149.619 67.1841 149.108 66.9336C148.331 66.5556 147.635 66.4044 147.02 66.4847L146.996 66.0831C147.46 65.2656 147.957 64.6986 148.492 64.382C149.027 64.0654 149.78 63.8764 150.741 63.8197C151.532 63.7724 152.265 63.8338 152.938 63.9992C153.908 64.226 154.415 64.6277 154.448 65.2136C154.476 65.7098 153.861 66.8108 152.601 68.5119C152.791 68.5922 152.98 68.6725 153.17 68.7529C152.772 68.9655 151.659 69.49 150.32 69.197C149.865 69.0978 149.491 68.9277 149.207 68.7623C149.444 68.7481 150.253 68.6914 150.376 68.3087H150.381Z" fill="white"/>
<path d="M5.90335 64.108V67.1416C5.13643 68.2426 3.91505 69.2066 2.61319 70.0335C2.0025 70.4446 0.85687 70.7896 0.165702 70.5864C-0.14201 70.5155 0.0142126 70.0335 0.241446 69.8303C1.15985 69.0034 2.30548 68.7955 3.37537 67.9024C4.06654 67.0755 0.776391 66.3147 1.5433 64.9349C2.53272 63.2149 3.9908 61.3531 4.67723 60.5971C5.06069 60.4553 5.28792 60.5262 5.28792 60.8712C4.90447 61.5563 3.29963 62.7329 4.82872 63.489C5.21218 63.626 5.59563 63.8292 5.89861 64.108M5.90335 79.0588C5.67611 79.1297 5.44414 79.1297 5.13643 79.1297C5.21218 79.0588 5.36367 78.9218 5.90335 78.7847V79.0588ZM5.90335 67.1369V64.1033C6.43829 64.5852 6.74127 65.1381 6.59451 65.8233C6.43829 66.2344 6.21106 66.7211 5.90335 67.1369ZM9.49647 68.3797V72.0323C8.96153 71.7535 7.96738 71.2054 7.51292 70.9313C7.28568 70.8604 7.35669 70.6572 7.43717 70.4446C7.6644 70.0335 8.35557 68.8616 8.65855 68.3797C8.88578 68.1717 8.96626 68.1056 9.1935 68.2426C9.26924 68.2426 9.34972 68.3088 9.50121 68.3797M9.49647 57.7667V63.1393C9.03727 61.4146 9.42073 59.2787 9.49647 57.7667ZM9.49647 78.5107C8.42658 78.8556 7.2052 78.9927 5.90335 79.0635V78.7895L5.97909 78.7186C7.50818 78.3075 8.11887 78.0996 9.49174 77.1356V77.0647V78.5154L9.49647 78.5107ZM9.49647 72.0323V68.3797C10.1119 68.6537 11.2575 69.2775 11.4848 69.4145C11.712 69.5515 11.7925 69.6886 11.6363 69.9674C11.409 70.4493 10.5664 71.8291 10.4149 72.1032C10.2634 72.3111 10.0362 72.3111 9.87993 72.2449C9.80419 72.1741 9.6527 72.1032 9.49647 72.037M13.3973 62.5864V65.8941C12.1002 65.8941 11.1013 65.4122 10.4149 64.7223C9.96041 64.2403 9.72844 63.6922 9.49647 63.1393V57.7667C9.49647 57.6958 9.57222 57.6249 9.57222 57.5587C9.64796 54.87 10.0314 50.1826 10.0314 50.1826C10.3391 48.4626 10.2587 49.1524 10.7179 47.905C10.9498 47.2198 11.4848 45.6983 11.712 46.0479C11.4848 48.6657 10.3391 59.2787 11.1771 61.2067C11.5605 61.8966 12.0955 62.3785 13.0091 62.5156C13.1653 62.5864 13.2364 62.5864 13.3926 62.5864M13.3973 76.441C13.2411 76.578 13.1701 76.6489 13.0896 76.7198C12.0955 77.6129 10.8741 78.1657 9.49647 78.5107V77.06C10.7983 75.8881 12.0955 74.5792 13.3973 73.2703V76.441ZM16.9147 59.8316V63.2763C16.839 63.4181 16.7585 63.5551 16.6827 63.6922C16.072 64.5191 15.1536 65.7618 13.705 65.8989H13.3973V62.5912C14.6187 62.7991 15.7643 62.2462 16.9147 59.8316ZM16.9147 49.7715V50.8725C16.607 51.0095 16.375 51.0095 16.375 50.7307C16.4508 50.3196 16.607 50.0455 16.9147 49.7667M16.9147 72.7175C15.4614 74.2343 14.008 75.7511 13.3973 76.4363V73.2656C14.6187 72.0276 15.8448 70.7139 16.9147 69.613V72.7127V72.7175ZM16.9147 63.2763V59.8316C17.2224 59.1464 17.0662 58.7968 17.2934 58.5936C17.4496 58.6597 17.4496 58.7968 17.4496 59.0047C17.4496 59.6946 17.6011 61.7642 16.9147 63.2763ZM20.8108 48.0467V49.4974C19.8924 49.7006 18.974 49.9085 18.0603 50.3243C17.6011 50.4614 17.2224 50.7354 16.9147 50.8772V49.7762C17.4496 49.2942 18.1361 48.9493 18.7468 48.6752C19.4379 48.4011 20.1196 48.2641 20.8108 48.0562M20.8108 68.7246C20.5836 68.9987 20.2759 69.2066 19.9729 69.4806C19.3622 70.1658 18.1408 71.4086 16.9147 72.7175V69.6177C18.368 68.1009 19.5894 66.8628 20.3563 66.1021C20.5078 65.965 20.6593 65.828 20.8155 65.691V68.7246H20.8108ZM20.8108 49.4927C22.4156 49.0768 24.0205 48.6657 25.2466 47.423C25.4028 47.2198 25.4028 46.804 25.1708 46.5961C23.798 47.423 22.3446 47.7018 20.8155 48.0467V49.4974L20.8108 49.4927ZM52.3252 71.6874C51.1796 72.3725 50.7961 73.5491 50.105 74.5792C48.6564 76.7198 48.5049 77.06 48.3534 80.4386C48.1972 84.0204 48.3534 82.943 48.4291 86.7327L48.5049 87.4887L48.8126 86.6618C49.4233 85.2159 49.2718 81.6766 49.8067 76.7151C49.8825 75.7464 50.8766 74.8533 52.33 74.5084V71.6826L52.3252 71.6874ZM47.5675 43.6333C47.3356 43.7751 47.1841 43.8412 46.9521 43.9074C44.4336 45.0792 41.6784 46.185 39.2309 48.1838C39.2309 48.1838 38.696 48.7366 38.5445 49.2848C38.3883 49.7667 37.9291 55.834 38.0853 59C38.3125 59.619 38.4687 60.2427 38.9232 60.7956C39.8416 61.6225 41.3707 61.9674 42.6678 61.5516C44.8076 60.3136 44.3531 58.036 44.3531 55.8293C44.2774 55.0732 44.2774 54.1754 44.2016 53.3485C44.2016 53.3485 44.0454 50.5937 44.6608 49.625C45.1958 48.7319 45.4278 48.3161 46.1142 47.2812C46.1899 48.0373 45.9627 49.8329 46.0384 50.4519C46.2704 55.6261 46.2704 58.7212 44.9686 59.9639C44.4336 60.5877 44.4336 60.9987 44.3579 61.2775C44.1259 63.6213 42.9803 64.4482 41.8346 64.9302C40.7647 65.346 37.8628 65.209 36.9444 62.5203C36.1775 63.5551 32.5843 67.6236 32.2766 67.9638C31.4387 69.6177 30.9038 70.9313 30.1368 73.0671L29.8339 73.4782C29.2942 72.0323 29.3747 71.8953 29.4504 69.9626C29.5262 68.1009 27.6894 67.3401 26.6242 67.0707C24.2524 66.4517 22.4204 67.3448 20.8108 68.7246V65.691C22.6429 64.2403 24.3992 63.6922 25.4738 63.4843C25.8573 63.4134 27.9971 63.2763 28.9912 64.1694C30.2126 65.2043 30.9038 67.2739 30.9038 67.2739C31.4387 66.3052 32.2766 65.4122 32.892 64.3773C34.1134 62.9314 35.3395 61.4855 36.6319 59.9686C36.8639 55.352 35.794 51.4962 38.4687 47.905C40.5328 44.6681 44.2016 43.1513 47.5675 41.2943V43.638V43.6333ZM55.6107 70.8604V73.9649C54.5408 74.102 53.5466 74.239 52.4815 74.4469C52.4057 74.4469 52.4057 74.5178 52.3252 74.5178V71.6921C52.8602 71.418 53.5466 71.2101 54.5408 71.1392C55.1515 71.0683 55.4592 70.9975 55.6107 70.8652M55.6107 68.3797V70.1705V70.1044C55.2319 69.5515 55.3029 68.9325 55.6107 68.3797ZM50.8482 50.7307V63.6874C50.6967 64.0324 50.4695 64.3726 50.318 64.7176C50.2423 64.7176 50.0908 64.6514 50.0908 64.5805C50.9287 60.3089 50.1665 56.1742 50.4695 51.9687C50.5452 51.5529 50.6967 51.1418 50.8482 50.726M50.8482 40.3965C50.1618 41.6345 49.4754 42.6741 47.5675 43.6333V41.2896C48.4859 40.8076 49.3239 40.2547 50.1618 39.7066C50.389 39.5696 50.621 39.4278 50.8482 39.2908V40.3918V40.3965ZM50.8482 63.6922C52.9927 59.1464 51.6956 54.596 52.2306 49.4927C52.2306 49.2848 52.382 48.3917 52.3063 48.2546C51.6199 48.8028 51.1607 49.7715 50.853 50.7307V63.6874L50.8482 63.6922ZM66.0823 76.441V77.6129C65.5474 78.1657 64.629 78.9265 64.4017 79.1297C64.2455 79.3376 64.0183 79.2667 63.7863 79.1297C63.5591 78.9218 62.2572 77.8869 61.6465 77.3341C61.4146 77.197 61.4951 77.06 61.7223 76.9183C62.03 76.5071 63.1756 75.4723 63.7106 75.1274C63.9378 74.9195 64.0893 74.9195 64.3165 75.0612C64.4728 75.1982 65.4669 75.959 66.0776 76.4363M66.0823 65.828V69.9626C65.0882 69.2066 64.4018 68.0347 63.9426 67.0707C63.4029 65.8989 62.3377 65.9698 61.2631 66.1729C60.2737 66.5179 58.8961 66.6549 58.1292 67.411C57.9019 68.1009 59.3553 67.9638 59.8145 68.3088C60.5009 68.7246 60.9601 69.2775 61.0359 69.9626C61.1921 70.5155 61.2631 71.2054 61.1116 71.7535C60.8039 73.0671 58.4321 73.3412 57.1397 73.6862C56.6001 73.8232 56.0699 73.8893 55.6059 73.9602V70.8557C55.8379 70.7139 55.6817 70.4399 55.6059 70.1658V68.3749C56.1456 67.2739 57.5185 66.447 57.9019 66.0973C59.199 65.1334 61.1116 63.6874 63.4029 63.6874C64.7805 63.8245 65.2397 64.7884 66.0823 65.8233M66.0823 55.7631V56.935C66.0823 56.935 66.0066 56.935 65.9261 57.0012C65.5474 56.7271 65.6989 56.5901 65.9261 56.0372C66.0018 55.9663 66.0018 55.8293 66.0823 55.7631ZM66.0823 56.9397C66.693 56.5948 67.3037 56.2498 67.9949 56.1128C69.06 55.9049 70.3619 55.9049 71.2803 55.7679C70.5181 56.5948 69.5997 57.2185 68.686 57.8328C68.3026 58.1069 68.3783 58.3195 68.686 58.3195C69.4482 58.3195 70.2151 58.0454 70.8258 57.7667C71.8957 56.2498 73.1218 54.7992 73.1928 53.0083C73.0414 52.5925 72.9656 52.5925 72.4307 52.7342C71.0531 52.9421 70.4424 53.15 69.0648 53.2871C67.4647 53.495 66.622 54.7377 66.0871 55.7679V56.9397H66.0823ZM66.0823 77.6129V76.441C66.6173 75.9637 67.3842 75.2691 67.7676 74.9242C67.9949 74.7871 68.1511 74.7871 68.3783 74.8533C68.6056 74.9903 70.2104 76.304 70.5181 76.578C70.7454 76.7151 70.6696 76.9182 70.5181 77.1309C70.0589 77.542 68.8328 78.7139 68.5298 78.9926C68.3026 79.1344 68.0754 79.0635 67.9191 78.9265C67.6919 78.7895 66.8492 78.0948 66.1628 77.542L66.0871 77.6129H66.0823ZM93.071 75.477V76.6489C90.9313 77.2018 88.7867 77.8208 86.7274 78.5107C86.7274 77.6129 87.1866 77.4097 88.0293 77.06C89.7099 76.441 91.3904 75.959 93.0758 75.477M93.071 60.7956V63.6166H92.9953C91.6177 64.2403 88.7157 67.2031 88.4838 67.8929C90.0886 67.6189 90.8555 67.4771 92.0011 67.1369C92.3846 67.066 92.6876 66.929 93.071 66.8628V69.4806C92.9953 69.4806 92.9148 69.4806 92.9148 69.5468C90.5478 70.1658 83.8965 71.4133 79.3092 71.5503C77.4724 71.6165 75.5599 71.6874 70.3619 71.2715C69.06 71.0683 68.6813 71.0683 67.6872 70.7895C67.0765 70.6525 66.5415 70.3076 66.0823 69.9626V65.828C66.693 66.584 67.5357 67.2787 68.989 67.8268C73.0414 69.1357 78.7695 69.5468 86.8742 67.7559C87.7168 66.6549 88.8625 65.1381 89.7809 63.7583C89.7809 63.7583 89.8566 63.2055 89.8566 62.2415C90.2401 58.2439 89.5489 54.8653 89.7004 50.5228C90.2401 49.4218 91.0023 48.3161 91.3052 47.078L91.5372 46.7993C91.613 48.1129 91.5372 48.387 91.6887 49.1477C91.8402 53.0083 91.9159 56.7271 91.3052 60.6585C90.9265 62.0383 90.5431 62.3833 90.3111 63.2763C90.6188 63.2763 91.6082 61.9013 93.0663 60.8003M95.5895 74.7871V75.8881C94.7516 76.1669 93.909 76.3748 93.071 76.6489V75.477C93.909 75.203 94.7516 74.9951 95.5895 74.7919M95.5895 66.1021V68.6537C94.8274 68.9278 93.9894 69.2066 93.071 69.4806V66.8628C93.9894 66.584 94.8274 66.3761 95.5895 66.1021ZM95.5895 59.4914V63.007C94.6001 63.007 93.4498 63.4181 93.071 63.626V60.805C93.7622 60.186 94.6001 59.704 95.5895 59.4961M95.5895 49.7715V53.4241C94.9836 53.15 93.9894 52.5925 93.5255 52.3231C93.2983 52.2522 93.374 52.0491 93.4498 51.8364C93.6817 51.4253 94.3682 50.2534 94.7516 49.7715C94.9078 49.5636 94.9836 49.4974 95.2108 49.5635C95.2866 49.6297 95.3623 49.7006 95.5895 49.7715ZM95.5895 53.4241V49.7715C96.1292 50.0455 97.2748 50.6693 97.5068 50.8016C97.7341 50.9433 97.8145 51.0756 97.6583 51.3544C97.4311 51.8364 96.5884 53.2162 96.4369 53.495C96.2807 53.6982 96.1292 53.6982 95.902 53.5611C95.8262 53.5611 95.7458 53.495 95.5943 53.4241M95.5895 75.8881V74.7871C95.7458 74.7163 95.8972 74.6454 96.0487 74.5792C96.6594 74.4422 97.9613 74.0264 97.9613 74.0264C97.9613 74.9951 97.3506 75.2691 96.7399 75.477C96.3565 75.6188 95.973 75.7511 95.5895 75.8881ZM102.014 63.8954V65.7618C101.019 66.3809 99.3389 67.3448 95.5895 68.6537V66.1021C96.3564 65.7618 96.9671 65.4831 97.4263 65.1381C97.8808 64.864 97.1944 63.8954 96.7352 63.4843C96.5079 63.1393 96.0487 63.0684 95.5848 63.0023V59.4867C95.8168 59.4867 96.044 59.4158 96.3517 59.4158C97.3459 59.3449 98.037 59.619 98.5672 60.1009C99.7129 61.0649 99.7886 62.0997 98.7235 64.0985C98.2643 64.8546 97.7293 65.6106 97.4263 66.2296C98.7235 66.0217 99.7934 65.1287 101.015 64.5805C101.322 64.3726 101.706 64.1647 102.009 63.8906M102.014 55.4891V58.5936C101.554 58.3195 100.641 57.9746 100.101 57.6958C99.9496 57.6249 100.025 57.4879 100.101 57.2847C100.257 56.9397 100.939 55.834 101.247 55.4891C101.403 55.2811 101.554 55.2811 101.706 55.3473C101.782 55.3473 101.933 55.4182 102.014 55.4891ZM102.014 58.5936V55.4891C102.624 55.697 103.618 56.2451 103.926 56.3821C104.078 56.453 104.153 56.6609 104.002 56.798C103.77 57.2138 103.008 58.3857 102.852 58.6597C102.776 58.7968 102.544 58.7968 102.397 58.7306C102.321 58.6597 102.165 58.6597 102.014 58.5936ZM107.974 62.8652V64.4482C107.207 65.4169 106.445 66.2391 104.991 66.31C103.846 66.3809 103.311 64.864 102.089 65.691L102.014 65.7618V63.8954C103.164 63.2102 104.385 62.4494 105.072 62.9314C105.611 63.4134 106.601 63.8954 107.212 63.4843C107.519 63.2763 107.751 63.0684 107.978 62.8652M107.974 53.9722V56.7271C107.515 56.3821 106.98 55.971 106.596 55.7631C106.445 55.6261 106.52 55.4891 106.672 55.3473C106.904 55.0732 107.439 54.3833 107.974 53.9722ZM107.974 49.4218V52.7295C107.439 52.3845 106.672 51.8317 106.288 51.5576C106.137 51.4206 106.213 51.2836 106.364 51.0756C106.591 50.7307 107.434 49.8376 107.969 49.4218M107.974 52.7342V49.4265C107.974 49.3556 108.05 49.3556 108.05 49.2895C108.277 49.1524 108.428 49.0816 108.584 49.2186C108.812 49.3556 110.421 50.4566 110.724 50.7307C110.951 50.8725 110.88 51.0095 110.724 51.2127C110.417 51.6285 109.271 52.8713 109.044 53.0744C108.887 53.2824 108.66 53.2162 108.504 53.0744C108.428 53.0083 108.196 52.8713 107.969 52.7342M107.974 56.7271V53.9722C108.13 53.7643 108.281 53.6273 108.357 53.4903C108.584 53.3485 108.736 53.3485 108.968 53.4194C109.119 53.5564 110.724 54.6574 111.032 54.9362C111.259 55.0732 111.259 55.2764 111.108 55.4182C110.724 55.834 109.654 57.072 109.351 57.2799C109.195 57.4879 108.968 57.417 108.812 57.3461C108.66 57.2091 108.352 57.0012 107.974 56.7271ZM107.974 64.4482V62.8652C108.736 62.1092 109.044 61.2823 109.503 60.4553C109.811 60.5262 109.579 61.0082 109.659 61.1452C109.119 62.3171 109.048 62.9408 107.974 64.3821V64.4529V64.4482ZM201.461 66.636V69.0459C200.851 69.3909 200.316 69.3909 199.705 69.3909C198.327 69.0459 197.106 67.5953 195.577 68.4222C193.972 69.32 191.908 71.0447 191.908 71.0447C191.984 69.802 192.826 68.975 193.513 68.1481C194.583 66.8392 195.804 65.8705 197.409 65.3271C198.706 64.9822 200.084 66.5651 201.461 66.636ZM201.461 54.0951V58.2959C201.411 58.2959 201.386 58.2723 201.386 58.225C201.078 58.088 199.705 57.124 199.019 56.642C198.862 56.505 198.943 56.368 199.094 56.1601C199.402 55.8151 200.467 54.6432 200.926 54.2321C201.078 54.0951 201.234 54.0242 201.461 54.0951ZM201.461 49.8187V53.8872C201.31 53.9581 201.154 53.8872 201.007 53.8163C200.775 53.6131 199.322 52.5783 198.711 52.0963C198.484 51.9593 198.555 51.8222 198.711 51.6805C199.019 51.2694 200.089 50.0975 200.548 49.6817C200.775 49.5446 200.931 49.4738 201.158 49.6155C201.234 49.6155 201.315 49.6817 201.466 49.8187M201.461 53.8872V49.8187C201.996 50.1637 203.147 50.9906 203.45 51.1985C203.601 51.4064 203.601 51.5434 203.45 51.7514C203.066 52.2333 201.916 53.547 201.613 53.7502C201.537 53.8163 201.537 53.8872 201.457 53.8872M201.461 58.2959V54.0951C201.461 54.0951 201.461 54.1613 201.537 54.1613C201.689 54.2983 203.45 55.4702 203.753 55.749C203.98 55.9521 203.98 56.0892 203.828 56.2971C203.445 56.7838 202.224 57.9557 201.992 58.225C201.84 58.362 201.613 58.362 201.457 58.2959M211.398 67.0518V70.7045C210.48 70.4304 209.566 70.0855 208.648 69.6035C207.502 68.9845 206.811 68.2946 205.973 67.3259C204.747 65.8752 202.758 67.8788 201.845 68.7718C201.689 68.9089 201.537 68.9798 201.461 69.0459V66.636C201.689 66.636 201.996 66.5651 202.299 66.4328C203.142 66.017 204.515 64.2261 206.124 64.0891C207.27 64.16 209.107 65.7429 209.945 66.2958C210.404 66.6407 210.863 66.8487 211.398 67.0518ZM211.398 56.7129V58.2959C211.247 58.3668 211.171 58.4376 211.09 58.57C210.636 58.9149 209.789 59.326 209.178 59.189C208.951 59.1181 209.026 58.707 209.178 58.4991C209.789 57.8092 210.631 57.5351 211.393 56.7082M211.398 50.5133V56.2357C210.944 55.6828 209.258 55.1347 209.642 54.0998C210.177 52.7862 210.863 51.345 211.398 50.5181M211.398 58.2959V56.7129L211.479 56.642C211.554 56.505 211.479 56.368 211.398 56.2309V50.5086C211.479 50.3007 211.554 50.1637 211.63 50.0928C211.857 49.8896 212.085 49.9557 212.165 50.2345C211.938 50.9197 210.787 52.0963 212.009 52.5783C213.003 52.9232 213.77 53.6793 213.694 54.5771C213.467 55.886 212.548 57.2658 211.398 58.2959ZM226.916 67.9449V70.4966C223.243 71.3188 220.189 71.4605 218.352 71.5314C215.829 71.6685 213.533 71.3897 211.393 70.7045V67.0518C212.388 67.4677 213.533 67.6709 214.608 67.8788C218.58 68.6348 223.475 68.3608 226.916 67.9497M226.916 57.743V58.57C226.609 58.6408 226.381 58.7117 226.149 58.7117C225.766 58.6408 225.766 58.5038 226.074 58.1589C226.381 58.0171 226.609 57.8848 226.916 57.743ZM226.916 53.6793V56.368C226.381 56.368 225.922 56.4388 225.463 56.5759C224.701 56.6468 224.09 57.0626 223.399 57.4028C223.015 57.1287 223.172 57.0626 223.399 56.5097C223.934 55.3379 224.776 53.8872 226.457 53.7502C226.609 53.6793 226.765 53.6793 226.916 53.6793ZM240.295 76.9749C239.835 77.3908 238.609 78.4918 238.306 78.7658C238.155 78.9076 237.928 78.8367 237.696 78.6997C237.468 78.4918 236.167 77.4569 235.556 76.9749C235.329 76.8332 235.48 76.7009 235.632 76.4882C235.939 76.148 237.085 75.1132 237.615 74.6974C237.847 74.5603 237.999 74.5603 238.231 74.6312C238.382 74.7682 239.684 75.8031 240.214 76.2142C240.598 75.8031 241.667 74.8344 242.127 74.4895C242.354 74.3524 242.51 74.3524 242.737 74.4186C242.965 74.5556 244.498 75.8692 244.877 76.1433C245.033 76.2803 245.033 76.4835 244.877 76.6962C244.418 77.1073 243.121 78.2791 242.894 78.5579C242.662 78.6997 242.434 78.6288 242.278 78.4918C241.97 78.3547 240.905 77.4569 240.295 76.9041V76.9749ZM242.278 44.8572C242.202 45.8258 241.592 46.029 241.057 46.3031C237.771 47.3379 234.33 48.231 231.044 49.3367C231.044 48.4389 231.504 48.2357 232.346 47.8861C234.945 46.9221 237.696 46.1613 240.375 45.4053C240.91 45.1974 242.283 44.8524 242.283 44.8524M226.916 58.5747C227.375 58.5038 227.835 58.3006 228.289 58.0927C229.283 56.642 230.585 55.267 230.585 53.4052C230.429 53.065 230.358 53.065 229.899 53.1973C228.597 53.4052 227.986 53.5422 226.916 53.6793V56.368C227.527 56.2971 228.213 56.2971 228.753 56.2309C228.213 56.7838 227.532 57.2658 226.916 57.743V58.57V58.5747ZM245.644 57.6769V60.7105C245.412 60.6396 245.185 60.6396 244.953 60.6396C244.498 60.7105 244.034 61.4004 244.342 61.8115C244.645 62.2273 245.104 62.4305 245.644 62.6384V64.5663C244.191 65.3933 242.894 66.5651 240.825 66.0832C240.29 66.0123 239.22 64.7034 238.458 65.2562C235.475 67.3921 233.795 68.701 229.51 69.8728C228.592 70.1469 227.754 70.3548 226.916 70.4919V67.9402C228.753 67.6661 230.202 67.4582 230.812 67.255C233.563 66.5651 236.394 64.9066 238.993 63.4606C240.673 62.7755 241.516 65.3885 243.348 64.3584L244.342 63.8056C244.034 63.5977 243.651 63.3236 243.424 62.9786C243.116 62.1517 243.268 61.4618 243.575 60.7719C244.266 59.808 245.336 59.8789 244.797 58.844C244.64 58.088 244.953 57.8801 245.407 57.606C245.483 57.606 245.564 57.6721 245.639 57.6721M248.929 59.7465V61.9533C248.702 61.8162 248.395 61.6792 248.092 61.6083C248.016 62.0903 247.708 62.7093 247.476 63.059C247.935 63.3992 248.475 63.541 248.929 63.678V65.261C247.935 65.1901 247.017 64.5711 246.103 64.2923C245.952 64.434 245.796 64.5002 245.649 64.5663V62.6384C245.876 62.6384 246.103 62.7093 246.335 62.7093C246.875 62.4352 247.254 61.7406 246.875 61.3295C246.648 61.0555 246.184 60.8475 245.654 60.7105V57.6769C245.805 57.7477 245.881 57.8139 245.881 57.8848C245.957 58.1589 246.335 58.2959 246.648 58.57C246.875 58.7117 247.869 59.189 248.939 59.7418M248.929 65.261V63.678C249.237 63.678 249.469 63.7441 249.767 63.815C250.302 63.815 250.61 63.2622 250.383 62.9881C249.999 62.5061 249.464 62.1612 248.929 61.9533V59.7465C249.621 60.0915 250.302 60.5026 250.762 60.8475C250.994 60.9846 251.453 61.4666 251.528 61.6036C251.983 62.2226 252.139 62.6337 251.604 63.5315C251.145 64.2875 250.686 64.7034 249.919 65.1145C249.611 65.2562 249.228 65.2562 248.925 65.2562M110.104 58.6597C110.26 58.6597 110.274 59.189 110.663 59.8647C110.928 60.3278 111.25 60.6444 111.477 60.8428C111.756 61.0035 112.163 61.1925 112.675 61.3012C113.56 61.4855 114.298 61.3295 114.691 61.2161C116.831 59.9781 116.377 57.7005 116.377 55.4985C116.301 54.7425 116.301 53.8447 116.225 53.0177C116.225 53.0177 116.069 50.2629 116.684 49.2942C117.219 48.4011 117.451 47.9853 118.138 46.9505C118.213 47.7065 117.986 49.5021 118.062 50.1211C118.294 55.2953 118.294 58.3904 116.992 59.6331C116.457 60.2569 116.457 60.668 116.381 60.9468C116.258 62.199 115.87 63.0164 115.364 63.5835C115.321 63.6307 114.687 64.3112 113.858 64.5994C112.272 65.1428 110.128 64.1836 108.575 62.1801C108.816 61.8351 109.143 61.3106 109.422 60.6207C109.853 59.5481 109.91 58.6692 110.114 58.6692L110.104 58.6597Z" fill="white"/>
<path d="M123.355 58.8488L123.208 61.6982C122.749 61.3154 122.218 60.8618 121.835 60.6302C121.688 60.479 121.773 60.342 121.939 60.205C122.195 59.9356 122.782 59.2505 123.359 58.8535M123.596 54.1424L123.421 57.5635C122.886 57.1761 122.124 56.5665 121.74 56.2594C121.594 56.1081 121.679 55.9711 121.844 55.7632C122.1 55.4183 123.018 54.5393 123.596 54.1377M123.421 57.5635L123.596 54.1424C123.596 54.0715 123.681 54.0763 123.681 54.0054C123.923 53.8731 124.084 53.8069 124.235 53.9629C124.467 54.1141 126.067 55.3426 126.37 55.6451C126.597 55.801 126.517 55.9428 126.347 56.1412C126.01 56.5523 124.756 57.7809 124.51 57.9746C124.339 58.1825 124.107 58.0975 123.951 57.9463C123.875 57.8754 123.648 57.7195 123.416 57.5635M123.208 61.6982L123.355 58.8488C123.525 58.6409 123.691 58.5086 123.776 58.3716C124.017 58.2392 124.178 58.2487 124.415 58.329C124.562 58.4802 126.167 59.7041 126.47 60.0065C126.697 60.1624 126.687 60.3704 126.522 60.5074C126.105 60.9185 124.931 62.1423 124.604 62.3408C124.434 62.544 124.202 62.4637 124.046 62.3786C123.894 62.2321 123.591 61.9959 123.208 61.6934M127.132 77.405C126.635 77.8114 125.314 78.884 124.983 79.1534C124.817 79.2857 124.585 79.2054 124.353 79.0494C124.126 78.8226 122.839 77.6885 122.233 77.1499C122.001 76.9939 122.166 76.8616 122.337 76.6537C122.673 76.3135 123.913 75.307 124.491 74.9053C124.732 74.7778 124.893 74.7872 125.125 74.8675C125.272 75.014 126.564 76.1528 127.099 76.6112C127.521 76.2001 128.676 75.2645 129.163 74.929C129.409 74.8014 129.566 74.8108 129.802 74.8912C130.03 75.0471 131.544 76.4836 131.923 76.7907C132.07 76.9419 132.06 77.1546 131.895 77.3625C131.398 77.7689 129.987 78.9077 129.736 79.1817C129.495 79.314 129.258 79.229 129.106 79.0778C128.799 78.9171 127.738 77.939 127.132 77.3294V77.4003V77.405Z" fill="white"/>
<path d="M170.894 63.5363C171.168 63.3898 171.391 63.2717 171.542 63.1866C171.642 63.1299 171.741 63.0779 171.841 63.0212C172.262 62.7755 172.541 62.6338 172.669 62.6007C172.981 62.5298 173.379 62.6054 173.867 62.837C174.397 63.0732 174.776 63.1819 175.012 63.1725C175.277 63.111 175.883 62.6007 176.844 61.632C177.038 61.8021 177.233 61.977 177.417 62.1518C177.63 62.2935 177.886 62.3219 178.189 62.251C178.397 62.2038 178.662 61.9108 178.989 61.3674C179.316 60.8287 179.557 60.5405 179.699 60.5027C179.865 60.4649 180.049 60.6869 180.258 61.1689C180.111 61.3485 179.959 61.5328 179.813 61.7123C179.642 61.925 179.472 62.1376 179.301 62.3455C178.355 63.4985 177.673 64.4955 177.266 64.5948C177.11 64.6326 176.669 64.5192 175.935 64.2593C175.812 64.3301 175.476 64.5853 174.927 65.0153C174.501 65.3555 174.146 65.5587 173.857 65.6249C173.739 65.6532 173.621 65.6674 173.507 65.6627C173.218 65.6532 173.015 65.5445 172.849 65.4642C172.849 65.4642 172.579 65.3366 171.935 65.1523C171.604 65.0578 171.102 65.0248 170.373 65.3177" fill="white"/>
<path d="M192.67 50.726L191.97 64.297C191.794 64.6514 191.534 64.9964 191.359 65.3508C191.278 65.3508 191.122 65.2705 191.127 65.1948C192.239 60.7673 191.662 56.3916 192.206 52.0066C192.311 51.5766 192.49 51.1513 192.67 50.726ZM191.97 64.3018C194.46 59.6568 193.347 54.8181 194.185 49.5069C194.195 49.2895 194.403 48.3586 194.327 48.2122C193.579 48.7508 193.044 49.7384 192.67 50.7307L191.97 64.3018Z" fill="white"/>
<path d="M180.726 59.6425C180.982 60.1386 181.299 60.493 181.526 60.7104C181.81 60.8947 182.227 61.112 182.757 61.2538C183.676 61.4948 184.457 61.3719 184.873 61.2727C187.184 60.0914 186.824 57.6815 186.947 55.3708C186.909 54.5722 186.956 53.6319 186.923 52.7625C186.923 52.7625 186.909 49.8659 187.605 48.8877C188.211 47.9805 188.476 47.5599 189.252 46.5156C189.29 47.3142 188.954 49.1807 189.001 49.8281C188.964 55.2574 188.798 58.5037 187.368 59.7323C186.776 60.356 186.753 60.7907 186.658 61.0742C186.459 62.3784 186.014 63.2148 185.451 63.7818C185.38 63.8527 184.698 64.519 183.818 64.7647C182.161 65.2278 180.021 64.1457 178.572 62.0335C178.667 61.887 178.818 61.6555 178.998 61.3719C179.832 60.0347 180.144 59.3212 180.452 59.3779C180.518 59.392 180.632 59.4487 180.736 59.6519L180.726 59.6425Z" fill="white"/>
<path d="M280.529 39.6971C277.49 47.0071 275.97 64.2308 277.353 71.47C279.284 81.4592 283.706 92.8377 297.515 92.214C306.15 91.8029 311.878 87.8714 311.878 87.8714C311.878 87.8714 302.831 98.4844 289.022 98.4844C275.213 98.4844 269.821 84.6346 270.654 72.363C272.174 49.6864 280.529 39.6924 280.529 39.6924" fill="white"/>
<path d="M324.305 110C324.305 110 327.689 92.0108 327.344 83.8786C326.79 70.369 322.439 68.9892 322.439 68.9892C322.439 68.9892 313.876 84.5638 299.858 84.5638C289.292 84.5638 283.696 73.2609 283.696 60.994C283.696 48.7272 285.699 33.6346 303.584 0C297.851 11.3738 294.334 24.5384 293.363 28.054C292.464 31.5697 287.701 48.3161 289.495 58.5841C291.361 69.4051 295.432 74.3713 300.474 74.3713C309.587 74.3713 322.226 57.072 322.226 57.072C322.226 57.072 340.523 68.167 331.477 93.4615C328.783 101.041 324.295 110.005 324.295 110.005" fill="white"/>
<mask id="mask0_10_2297" style="mask-type:luminance" maskUnits="userSpaceOnUse" x="296" y="41" width="20" height="20">
<path d="M296.071 50.8157C296.071 56.1553 300.407 60.4837 305.761 60.4837C311.116 60.4837 315.452 56.1553 315.452 50.8157C315.452 45.4762 311.111 41.1431 305.761 41.1431C300.412 41.1431 296.071 45.4714 296.071 50.8157Z" fill="white"/>
</mask>
<g mask="url(#mask0_10_2297)">
<path d="M296.071 50.8157C296.071 56.1553 300.407 60.4837 305.761 60.4837C311.116 60.4837 315.452 56.1553 315.452 50.8157C315.452 45.4762 311.111 41.1431 305.761 41.1431C300.412 41.1431 296.071 45.4714 296.071 50.8157Z" fill="white"/>
</g>
<path d="M248.48 57.4027C248.622 56.9869 248.735 56.1552 248.825 54.9078C248.849 54.2935 248.887 53.6792 248.934 53.0554C248.977 52.4317 249.034 51.808 249.095 51.1842C249.209 50.7637 249.512 49.8706 249.999 48.5003C250.487 47.1252 250.904 46.1234 251.249 45.4997C251.368 45.4099 251.462 45.4099 251.538 45.4997C251.614 45.5706 251.562 46.2085 251.368 47.4229C251.197 49.1193 251.098 50.2581 251.069 50.8346C251.041 51.411 250.979 52.134 250.904 52.9987C250.842 53.9674 250.695 54.9219 250.473 55.8575C250.25 56.7931 249.947 57.639 249.569 58.3997C249.19 59.1652 248.948 59.6472 248.83 59.8551C248.537 60.0536 248.271 60.1339 248.035 60.0961C247.793 60.063 247.552 59.9827 247.296 59.8551C247.822 59.0944 248.215 58.2722 248.485 57.398" fill="white"/>
<path d="M257.455 48.3113C257.621 47.9663 257.758 47.7915 257.863 47.7915C258.024 47.7915 258.08 47.9002 258.014 48.1175C257.938 48.3585 257.848 48.7791 257.744 49.3745C257.64 49.9699 257.564 50.4329 257.512 50.7684C257.437 51.3591 257.361 52.0206 257.285 52.7625C257.209 53.4997 257.138 54.2604 257.072 55.0401L256.883 57.3177C256.821 58.0548 256.75 58.7211 256.674 59.3118C256.471 61.1026 256.154 62.5769 255.737 63.7394C255.316 64.9018 254.819 65.9697 254.255 66.962C253.692 67.9496 253.237 68.4646 252.892 68.5119C252.797 68.5119 252.826 68.304 252.968 67.8882C253.133 67.496 253.289 67.0045 253.436 66.4186C253.583 65.8279 253.716 65.1947 253.829 64.5238C253.943 63.848 254.047 63.1534 254.137 62.4446C254.227 61.7358 254.303 61.0601 254.364 60.4269C254.459 59.8268 254.53 58.929 254.596 57.7382C254.658 56.5427 254.752 55.5268 254.885 54.6999C255.013 53.8682 255.207 53.1594 255.458 52.5688" fill="white"/>
<path d="M170.908 63.5315C170.733 64.1316 170.553 64.727 170.378 65.3271C169.265 66.3336 167.731 67.5338 165.743 68.6112C163.608 69.7736 161.838 70.317 161.317 70.4682C158.576 71.2762 156.356 71.3377 155.56 71.3471C153.761 71.3613 152.256 71.1298 151.181 70.8982C150.026 71.2006 148.241 71.4842 146.173 71.0731C145.505 70.9408 144.913 70.7565 144.393 70.558C144.478 70.2272 144.752 69.1971 144.838 68.8663C144.857 68.786 145.022 68.1576 145.046 68.0772C145.103 68.1009 145.216 68.1386 145.358 68.1812C145.358 68.1812 145.42 68.2001 145.51 68.2284C145.51 68.2284 145.685 68.2851 145.841 68.3277C146.878 68.6301 148.005 68.5876 148.005 68.5876C148.147 68.5828 150.159 68.4978 150.239 67.9591C150.263 67.8126 150.135 67.6708 150.012 67.5622L153.354 67.4488C153.188 67.6803 153.028 67.9071 152.862 68.1387C154.879 68.4222 158.24 68.6395 162.207 67.6519C166.316 66.6266 169.256 64.7648 170.908 63.5315Z" fill="white"/>
<path d="M171.893 56.85C171.893 57.3367 171.788 57.7573 171.585 58.1164C171.339 58.5511 170.993 58.7685 170.548 58.7685C170.217 58.7685 169.942 58.6787 169.729 58.4992C169.677 58.7968 169.516 59.0567 169.251 59.2741C168.981 59.4915 168.697 59.6001 168.399 59.6001C168.068 59.6001 167.802 59.4489 167.604 59.1418C167.433 58.8772 167.348 58.57 167.348 58.2204C167.348 57.9557 167.443 57.5257 167.632 56.9304L167.926 56.8784C167.926 57.8234 168.091 58.296 168.427 58.296C168.924 58.296 169.308 57.6061 169.582 56.2263L169.814 56.1507C170.004 56.9871 170.25 57.4029 170.558 57.4029C171.13 57.4029 171.414 56.7744 171.414 55.5222L171.708 55.3946C171.836 55.853 171.902 56.3397 171.902 56.8547L171.893 56.85ZM171.803 53.5423L171.699 54.8134C171.381 54.6244 171.04 54.4023 170.671 54.1472C169.653 55.3757 168.816 55.99 168.148 55.99C167.992 55.99 167.741 55.938 167.391 55.8341C168.044 55.5506 168.958 54.8843 170.132 53.8353C169.601 53.4242 169.341 53.0414 169.341 52.6823C169.341 52.2381 169.478 51.7845 169.753 51.3214C170.061 50.7922 170.42 50.5276 170.837 50.5276C171.419 50.5276 171.713 50.8725 171.713 51.5671C171.713 52.0822 171.575 52.6114 171.301 53.1596L171.803 53.5423ZM170.908 52.4224C170.908 51.9026 170.685 51.6428 170.24 51.6428L170.075 51.7184L170.013 51.8979C170.013 52.1436 170.288 52.465 170.832 52.8572C170.884 52.687 170.908 52.5406 170.908 52.4224Z" fill="white"/>
<path d="M153.406 58.1778L153.302 59.4489C152.985 59.2599 152.644 59.0378 152.275 58.7827C151.257 60.0112 150.419 60.6255 149.752 60.6255C149.595 60.6255 149.344 60.5735 148.994 60.4696C149.647 60.1861 150.561 59.5198 151.735 58.4708C151.205 58.0597 150.945 57.6769 150.945 57.3178C150.945 56.8736 151.082 56.42 151.356 55.9569C151.664 55.4277 152.024 55.1631 152.441 55.1631C153.023 55.1631 153.316 55.508 153.316 56.2027C153.316 56.7177 153.179 57.2469 152.904 57.7951L153.406 58.1778ZM152.507 57.0579C152.507 56.5381 152.284 56.2783 151.839 56.2783L151.674 56.3539L151.612 56.5334C151.612 56.7791 151.887 57.1005 152.431 57.4927C152.483 57.3225 152.507 57.1761 152.507 57.0579Z" fill="white"/>
<path d="M0.861602 96.4573C1.36341 96.7314 2.16346 96.9724 2.94458 96.9724C3.87244 96.9724 4.36005 96.5613 4.36005 95.9517C4.36005 95.3422 3.92452 95.0208 2.91144 94.5956C1.44862 93.9813 0.596496 93.0977 0.596496 91.9022C0.596496 90.3523 1.82261 89.1426 3.92925 89.1426C4.85239 89.1426 5.55776 89.341 6.02169 89.5679L5.60983 91.2075C5.27372 91.0374 4.6867 90.8059 3.90085 90.8059C3.02979 90.8059 2.61319 91.2406 2.61319 91.7179C2.61319 92.2944 3.05819 92.5637 4.19909 93.0646C5.71872 93.7167 6.38148 94.5908 6.38148 95.7958C6.38148 97.3882 5.1743 98.6451 2.84989 98.6451C1.88889 98.6451 0.937346 98.39 0.48288 98.1301L0.856868 96.4526L0.861602 96.4573Z" fill="white"/>
<path d="M9.64322 96.2259L9.06567 98.5224H7.0253L9.61008 89.2703H12.1759L14.737 98.5224H12.6304L12.015 96.2259H9.64795H9.64322ZM11.7451 94.7138L11.2481 92.7575C11.1108 92.2047 10.9593 91.4439 10.8315 90.8816H10.8031C10.68 91.4486 10.5379 92.2236 10.4054 92.7623L9.91779 94.7185H11.7499L11.7451 94.7138Z" fill="white"/>
<path d="M17.497 89.2703V94.7989C17.497 96.3251 18.0461 97.0197 18.9361 97.0197C19.8261 97.0197 20.3989 96.3676 20.3989 94.7989V89.2703H22.4062V94.6146C22.4062 97.3269 21.1232 98.6641 18.8888 98.6641C16.6543 98.6641 15.4897 97.3552 15.4897 94.6051V89.275H17.497V89.2703Z" fill="white"/>
<path d="M24.1388 89.3978C24.811 89.2797 25.7152 89.2041 26.6668 89.2041C28.2479 89.2041 29.2942 89.5112 30.0989 90.1444C31.0126 90.8627 31.557 92.0157 31.557 93.7026C31.557 95.5076 30.9605 96.7598 30.0989 97.5017C29.2279 98.2483 27.9071 98.6074 26.2549 98.6074C25.3223 98.6074 24.6075 98.546 24.1435 98.4798V89.3931L24.1388 89.3978ZM26.1413 96.9914C26.2975 97.0245 26.5437 97.0245 26.752 97.0245C28.3426 97.0339 29.4409 96.051 29.4409 93.7357C29.4409 91.8172 28.5083 90.7634 26.9177 90.7634C26.5579 90.7634 26.307 90.7918 26.1413 90.8343V96.9914Z" fill="white"/>
<path d="M34.8803 89.2703V98.5224H32.8731V89.2703H34.8803Z" fill="white"/>
<path d="M44.2727 94.5626H41.2523V96.8544H44.6372V98.5224H39.2451V89.2703H44.4525V90.9383H41.2523V92.9276H44.2727V94.5626Z" fill="white"/>
<path d="M46.01 89.2703H48.0172V96.8402H51.3121V98.5271H46.01V89.275V89.2703Z" fill="white"/>
<path d="M57.5184 94.5626H54.4981V96.8544H57.883V98.5224H52.4909V89.2703H57.6983V90.9383H54.4981V92.9276H57.5184V94.5626Z" fill="white"/>
<path d="M65.3485 98.3002C65.0077 98.4656 64.2407 98.6451 63.2703 98.6451C60.3115 98.6451 58.8156 96.6605 58.8156 94.0285C58.8156 90.7728 60.9837 89.1426 63.4786 89.1426C64.4348 89.1426 65.1449 89.3316 65.4527 89.5017L65.0645 91.113C64.7094 90.9571 64.2218 90.8153 63.578 90.8153C62.1104 90.8153 60.9269 91.784 60.9269 93.9104C60.9269 95.8714 61.9447 96.944 63.5827 96.944C64.1224 96.944 64.7142 96.8354 65.0692 96.6936L65.339 98.2955L65.3485 98.3002Z" fill="white"/>
<path d="M68.402 90.9997H66.1581V89.2703H72.6768V90.9997H70.4092V98.5224H68.402V90.9997Z" fill="white"/>
<path d="M73.742 89.3978C74.381 89.2844 75.2947 89.2041 76.2841 89.2041C77.5434 89.2041 78.4854 89.3931 79.1245 89.9223C79.6784 90.3807 79.9435 91.0233 79.9435 91.8597C79.9435 92.9796 79.2098 93.816 78.3671 94.1468V94.1846C79.0062 94.4445 79.3565 95.0446 79.5695 95.9424C79.8252 96.9819 80.095 98.1727 80.2702 98.5224H78.2014C78.0689 98.2578 77.8416 97.4592 77.6144 96.3487C77.3872 95.1958 77.0274 94.8792 76.2415 94.8744H75.7255V98.5224H73.7325V89.3978H73.742ZM75.7302 93.3954H76.4025C77.3635 93.3954 77.9363 92.8331 77.9363 92.0298C77.9363 91.2265 77.4345 90.7304 76.5208 90.7209C76.1232 90.7209 75.8628 90.7493 75.7302 90.7871V93.4002V93.3954Z" fill="white"/>
<path d="M83.3947 89.2703V98.5224H81.3875V89.2703H83.3947Z" fill="white"/>
<path d="M91.2484 98.3002C90.9076 98.4656 90.1407 98.6451 89.1702 98.6451C86.2114 98.6451 84.7155 96.6605 84.7155 94.0285C84.7155 90.7728 86.8836 89.1426 89.3785 89.1426C90.3348 89.1426 91.0449 89.3316 91.3526 89.5017L90.9644 91.113C90.6093 90.9571 90.1217 90.8153 89.4779 90.8153C88.0103 90.8153 86.8268 91.784 86.8268 93.9104C86.8268 95.8714 87.8447 96.944 89.4826 96.944C90.0223 96.944 90.6141 96.8354 90.9691 96.6936L91.2389 98.2955L91.2484 98.3002Z" fill="white"/>
<path d="M94.5244 89.2703V98.5224H92.5172V89.2703H94.5244Z" fill="white"/>
<path d="M97.8382 90.9997H95.5942V89.2703H102.113V90.9997H99.8454V98.5224H97.8382V90.9997Z" fill="white"/>
<path d="M105.185 98.5224V94.8036L102.525 89.2703H104.783L105.63 91.4911C105.881 92.1338 106.075 92.6914 106.279 93.3198H106.307C106.487 92.715 106.686 92.1338 106.928 91.477L107.747 89.2703H109.962L107.197 94.7374V98.5271H105.19L105.185 98.5224Z" fill="white"/>
<path d="M113.437 89.3978C114.076 89.2844 114.99 89.2041 115.979 89.2041C117.238 89.2041 118.18 89.3931 118.819 89.9223C119.373 90.3807 119.638 91.0233 119.638 91.8597C119.638 92.9796 118.905 93.816 118.062 94.1468V94.1846C118.701 94.4445 119.051 95.0446 119.264 95.9424C119.52 96.9819 119.79 98.1727 119.965 98.5224H117.896C117.764 98.2578 117.537 97.4592 117.309 96.3487C117.082 95.1958 116.722 94.8792 115.936 94.8744H115.42V98.5224H113.427V89.3978H113.437ZM115.43 93.3954H116.102C117.063 93.3954 117.636 92.8331 117.636 92.0298C117.636 91.2265 117.134 90.7304 116.22 90.7209C115.823 90.7209 115.562 90.7493 115.43 90.7871V93.4002V93.3954Z" fill="white"/>
<path d="M126.115 94.5626H123.094V96.8544H126.479V98.5224H121.087V89.2703H126.294V90.9383H123.094V92.9276H126.115V94.5626Z" fill="white"/>
<path d="M134.811 98.149C134.238 98.3522 133.126 98.6121 132.07 98.6121C130.565 98.6121 129.471 98.2246 128.69 97.4686C127.857 96.67 127.402 95.4178 127.412 93.9908C127.431 90.8248 129.58 89.1804 132.297 89.1804C133.348 89.1804 134.148 89.3789 134.555 89.5773L134.153 91.217C133.713 91.0233 133.173 90.8768 132.326 90.8768C130.735 90.8768 129.514 91.8171 129.514 93.9482C129.514 95.9518 130.621 96.9771 132.07 96.9771C132.453 96.9771 132.756 96.9346 132.894 96.8685V94.8413H131.639V93.2583H134.806V98.1537L134.811 98.149Z" fill="white"/>
<path d="M138.352 89.2703V94.7989C138.352 96.3251 138.901 97.0197 139.791 97.0197C140.681 97.0197 141.254 96.3676 141.254 94.7989V89.2703H143.261V94.6146C143.261 97.3269 141.978 98.6641 139.744 98.6641C137.509 98.6641 136.345 97.3552 136.345 94.6051V89.275H138.352V89.2703Z" fill="white"/>
<path d="M144.994 89.2703H147.001V96.8402H150.296V98.5271H144.994V89.275V89.2703Z" fill="white"/>
<path d="M153.496 96.2259L152.914 98.5224H150.874L153.458 89.2703H156.024L158.585 98.5224H156.479L155.863 96.2259H153.496ZM155.598 94.7138L155.101 92.7575C154.964 92.2047 154.812 91.4439 154.684 90.8816H154.656C154.533 91.4486 154.391 92.2236 154.258 92.7623L153.771 94.7185H155.603L155.598 94.7138Z" fill="white"/>
<path d="M160.313 90.9997H158.069V89.2703H164.588V90.9997H162.316V98.5224H160.308V90.9997H160.313Z" fill="white"/>
<path d="M172.896 93.7827C172.896 96.9534 171.239 98.6592 168.816 98.6592C166.264 98.6592 164.882 96.5423 164.882 93.9339C164.882 91.3256 166.43 89.1331 168.958 89.1331C171.618 89.1331 172.896 91.3587 172.896 93.7827ZM166.998 93.9103C166.998 95.8099 167.712 97.0243 168.91 97.0243C170.108 97.0243 170.785 95.6776 170.785 93.8536C170.785 92.195 170.155 90.7586 168.905 90.7586C167.656 90.7586 166.998 92.0533 166.998 93.9056V93.9103Z" fill="white"/>
<path d="M174.208 89.3978C174.847 89.2844 175.76 89.2041 176.75 89.2041C178.009 89.2041 178.951 89.3931 179.59 89.9223C180.144 90.3807 180.409 91.0233 180.409 91.8597C180.409 92.9796 179.675 93.816 178.833 94.1468V94.1846C179.472 94.4445 179.822 95.0446 180.035 95.9424C180.291 96.9819 180.561 98.1727 180.736 98.5224H178.667C178.534 98.2578 178.307 97.4592 178.08 96.3487C177.853 95.1958 177.493 94.8792 176.707 94.8744H176.191V98.5224H174.198V89.3978H174.208ZM176.201 93.3954H176.873C177.834 93.3954 178.407 92.8331 178.407 92.0298C178.407 91.2265 177.905 90.7304 176.996 90.7209C176.598 90.7209 176.338 90.7493 176.205 90.7871V93.4002L176.201 93.3954Z" fill="white"/>
<path d="M183.482 98.5224V94.8036L180.821 89.2703H183.079L183.927 91.4911C184.177 92.1338 184.372 92.6914 184.575 93.3198H184.603C184.783 92.715 184.982 92.1338 185.224 91.477L186.043 89.2703H188.258L185.493 94.7374V98.5271H183.486L183.482 98.5224Z" fill="white"/>
<path d="M193.674 96.2259L193.092 98.5224H191.051L193.636 89.2703H196.202L198.763 98.5224H196.656L196.041 96.2259H193.674ZM195.776 94.7138L195.279 92.7575C195.141 92.2047 194.99 91.4439 194.862 90.8816H194.834C194.711 91.4486 194.569 92.2236 194.436 92.7623L193.948 94.7185H195.781L195.776 94.7138Z" fill="white"/>
<path d="M201.528 89.2703V94.7989C201.528 96.3251 202.077 97.0197 202.967 97.0197C203.857 97.0197 204.43 96.3676 204.43 94.7989V89.2703H206.437V94.6146C206.437 97.3269 205.154 98.6641 202.919 98.6641C200.685 98.6641 199.52 97.3552 199.52 94.6051V89.275H201.528V89.2703Z" fill="white"/>
<path d="M209.722 90.9997H207.478V89.2703H213.997V90.9997H211.725V98.5224H209.718V90.9997H209.722Z" fill="white"/>
<path d="M217.069 89.2703V92.8757H220.052V89.2703H222.059V98.5224H220.052V94.6524H217.069V98.5224H215.062V89.2703H217.069Z" fill="white"/>
<path d="M231.399 93.7827C231.399 96.9534 229.742 98.6592 227.319 98.6592C224.767 98.6592 223.385 96.5423 223.385 93.9339C223.385 91.3256 224.933 89.1331 227.461 89.1331C230.121 89.1331 231.399 91.3587 231.399 93.7827ZM225.496 93.9103C225.496 95.8099 226.211 97.0243 227.409 97.0243C228.606 97.0243 229.283 95.6776 229.283 93.8536C229.283 92.195 228.654 90.7586 227.404 90.7586C226.154 90.7586 225.496 92.0533 225.496 93.9056V93.9103Z" fill="white"/>
<path d="M232.711 89.3978C233.35 89.2844 234.263 89.2041 235.253 89.2041C236.512 89.2041 237.454 89.3931 238.093 89.9223C238.647 90.3807 238.912 91.0233 238.912 91.8597C238.912 92.9796 238.179 93.816 237.336 94.1468V94.1846C237.975 94.4445 238.325 95.0446 238.538 95.9424C238.794 96.9819 239.064 98.1727 239.239 98.5224H237.17C237.038 98.2578 236.81 97.4592 236.583 96.3487C236.356 95.1958 235.996 94.8792 235.21 94.8744H234.694V98.5224H232.701V89.3978H232.711ZM234.704 93.3954H235.376C236.337 93.3954 236.91 92.8331 236.91 92.0298C236.91 91.2265 236.408 90.7304 235.499 90.7209C235.101 90.7209 234.841 90.7493 234.708 90.7871V93.4002L234.704 93.3954Z" fill="white"/>
<path d="M242.368 89.2703V98.5224H240.361V89.2703H242.368Z" fill="white"/>
<path d="M245.677 90.9997H243.433V89.2703H249.952V90.9997H247.68V98.5224H245.672V90.9997H245.677Z" fill="white"/>
<path d="M253.029 98.5224V94.8036L250.369 89.2703H252.627L253.474 91.4911C253.725 92.1338 253.919 92.6914 254.123 93.3198H254.151C254.331 92.715 254.53 92.1338 254.771 91.477L255.59 89.2703H257.806L255.041 94.7374V98.5271H253.034L253.029 98.5224Z" fill="white"/>
<path d="M51.0044 40.0515C50.9287 40.1885 50.9287 40.2594 50.8482 40.3964V39.2955C51.0802 39.1584 51.3879 38.9505 51.5394 38.8135C51.3121 39.4325 51.0802 39.8483 51.0044 40.0515Z" fill="white"/>
</g>
<defs>
<clipPath id="clip0_10_2297">
<rect width="334" height="110" fill="white"/>
</clipPath>
</defs>
</svg>
