<svg width="56" height="55" viewBox="0 0 56 55" fill="none" xmlns="http://www.w3.org/2000/svg">
<path d="M44.4289 14.7312C42.0587 9.94529 37.4779 6.41284 32.1679 5.25055C26.6071 4.0199 20.9096 5.34171 16.5567 8.85137C12.1811 12.3382 9.69696 17.5571 9.69696 23.1407C9.69696 29.0433 13.2294 35.2193 18.5623 38.7974V40.6889C18.5395 41.3271 18.5167 42.307 19.2915 43.1047C20.0892 43.9251 21.2743 44.0163 22.2086 44.0163H33.8999C35.1306 44.0163 36.0649 43.6744 36.7031 43.0363C37.5691 42.1475 37.5463 41.008 37.5235 40.3927V38.7974C44.5884 34.0343 49.0324 23.9839 44.4289 14.7312Z" fill="#230C44"/>
<path d="M35.4268 50.3748C35.2901 50.3748 35.1305 50.352 34.9938 50.3065C30.413 49.0074 25.6043 49.0074 21.0236 50.3065C20.1803 50.5344 19.2915 50.0558 19.0636 49.2125C18.8129 48.3693 19.3143 47.4805 20.1575 47.2526C25.3081 45.7941 30.7321 45.7941 35.8826 47.2526C36.7258 47.5033 37.2272 48.3693 36.9765 49.2125C36.7486 49.919 36.1105 50.3748 35.4268 50.3748Z" fill="#230C44"/>
</svg>
