<svg width="1344" height="850" viewBox="0 0 1344 850" fill="none" xmlns="http://www.w3.org/2000/svg">
<path d="M672 -246.785C302.4 -246.785 0 55.6149 0 425.215C0 794.815 302.4 1097.21 672 1097.21C1041.6 1097.21 1344 794.815 1344 425.215C1344 55.6149 1041.6 -246.785 672 -246.785ZM672 -78.7852C950.88 -78.7852 1176 146.335 1176 425.215C1176 704.095 950.88 929.215 672 929.215C393.12 929.215 168 704.095 168 425.215C168 146.335 393.12 -78.7852 672 -78.7852ZM672 89.2148C487.2 89.2148 336 240.415 336 425.215C336 610.015 487.2 761.215 672 761.215C856.8 761.215 1008 610.015 1008 425.215C1008 240.415 856.8 89.2148 672 89.2148ZM672 257.215C766.08 257.215 840 331.135 840 425.215C840 519.295 766.08 593.215 672 593.215C577.92 593.215 504 519.295 504 425.215C504 331.135 577.92 257.215 672 257.215Z" fill="#1A1A1A" fill-opacity="0.03"/>
</svg>
