<svg width="1344" height="1345" viewBox="0 0 1344 1345" fill="none" xmlns="http://www.w3.org/2000/svg">
<path d="M672 0.0595703C302.4 0.0595703 0 302.46 0 672.06C0 1041.66 302.4 1344.06 672 1344.06C1041.6 1344.06 1344 1041.66 1344 672.06C1344 302.46 1041.6 0.0595703 672 0.0595703ZM672 168.06C950.88 168.06 1176 393.18 1176 672.06C1176 950.94 950.88 1176.06 672 1176.06C393.12 1176.06 168 950.94 168 672.06C168 393.18 393.12 168.06 672 168.06ZM672 336.06C487.2 336.06 336 487.26 336 672.06C336 856.86 487.2 1008.06 672 1008.06C856.8 1008.06 1008 856.86 1008 672.06C1008 487.26 856.8 336.06 672 336.06ZM672 504.06C766.08 504.06 840 577.98 840 672.06C840 766.14 766.08 840.06 672 840.06C577.92 840.06 504 766.14 504 672.06C504 577.98 577.92 504.06 672 504.06Z" fill="white" fill-opacity="0.05"/>
</svg>
