<svg width="300" height="209" viewBox="0 0 300 209" fill="none" xmlns="http://www.w3.org/2000/svg">
<g clip-path="url(#clip0_9_402)">
<path d="M124.701 46.589C121.168 55.0903 119.401 75.121 121.008 83.5399C123.254 95.1571 128.395 108.39 144.449 107.665C154.488 107.187 161.148 102.614 161.148 102.614C161.148 102.614 150.63 114.957 134.575 114.957C118.521 114.957 112.252 98.85 113.22 84.5785C114.987 58.2062 124.701 46.5835 124.701 46.5835" fill="white"/>
<path d="M175.601 128.349C175.601 128.349 179.537 107.428 179.135 97.9708C178.491 82.2595 173.433 80.6549 173.433 80.6549C173.433 80.6549 163.476 98.7676 147.179 98.7676C134.895 98.7676 128.389 85.6227 128.389 71.3567C128.389 57.0907 130.717 39.5385 151.511 0.422363C144.846 13.6497 140.756 28.9599 139.628 33.0484C138.582 37.137 133.045 56.6126 135.131 68.554C137.3 81.1385 142.033 86.9141 147.895 86.9141C158.49 86.9141 173.185 66.7955 173.185 66.7955C173.185 66.7955 194.458 79.6987 183.94 109.115C180.808 117.93 175.59 128.355 175.59 128.355" fill="white"/>
<mask id="mask0_9_402" style="mask-type:luminance" maskUnits="userSpaceOnUse" x="142" y="48" width="24" height="23">
<path d="M142.771 59.5197C142.771 65.7294 147.812 70.7632 154.037 70.7632C160.262 70.7632 165.304 65.7294 165.304 59.5197C165.304 53.3099 160.256 48.2706 154.037 48.2706C147.818 48.2706 142.771 53.3044 142.771 59.5197Z" fill="white"/>
</mask>
<g mask="url(#mask0_9_402)">
<path d="M142.771 59.5197C142.771 65.7294 147.812 70.7632 154.037 70.7632C160.262 70.7632 165.304 65.7294 165.304 59.5197C165.304 53.3099 160.256 48.2706 154.037 48.2706C147.818 48.2706 142.771 53.3044 142.771 59.5197Z" fill="white"/>
</g>
<path d="M153.773 166.251C153.729 166.575 152.958 168.356 151.461 171.598C150.575 173.51 149.408 175.038 147.972 176.181C147.152 176.829 146.48 177.242 145.952 177.417C145.792 177.461 145.545 177.511 145.242 177.494C144.824 177.478 144.51 177.346 144.02 177.115C143.15 176.703 143.123 176.626 142.683 176.428C142.182 176.208 141.62 175.961 140.971 175.989C140.723 176 140.327 176.055 139.116 176.807C138.599 177.126 137.911 177.588 137.135 178.214C136.832 178.445 136.518 178.681 136.21 178.934C136.05 179.066 135.891 179.192 135.731 179.324C135.742 179.176 135.764 178.962 135.825 178.709C135.995 178.011 136.331 177.533 136.854 176.879C137.625 175.906 138.015 175.417 138.5 174.956C138.5 174.956 139.661 173.851 141.048 173.12C141.406 172.933 141.703 172.829 141.785 172.801C142.05 172.713 142.253 172.642 142.501 172.62C142.952 172.582 143.299 172.724 143.767 172.917C144.004 173.016 144.075 173.065 144.719 173.4C145.082 173.587 145.379 173.741 145.578 173.84C145.743 173.922 145.99 174.032 146.299 174.109C146.442 174.142 146.623 174.192 146.838 174.197C147.377 174.214 147.796 173.972 148.038 173.829C148.462 173.582 148.737 173.274 148.891 173.082C149.507 172.296 149.48 171.592 149.744 170.73C150.003 169.867 150.46 169.24 151.439 168.042C152.276 167.02 153.03 166.24 153.707 165.701C153.778 165.872 153.806 166.058 153.773 166.262V166.251Z" fill="white"/>
<path d="M159.31 172.543C159.315 172.741 159.178 173.274 158.892 174.137C158.148 176.395 157.372 177.89 156.558 178.604C156.321 178.808 155.562 179.126 154.268 179.55C152.942 179.984 152.182 180.204 151.984 180.209C151.648 180.22 151.439 180.116 151.357 179.896C152.546 179.214 153.734 178.538 154.912 177.857C156.47 176.807 157.235 175.829 157.202 174.933C157.185 174.367 156.954 173.757 156.514 173.104C156.486 173.054 156.074 172.526 155.281 171.521C156.31 169.345 156.943 168.257 157.18 168.246C157.268 168.246 157.483 168.449 157.835 168.867C158.776 169.977 159.266 171.202 159.31 172.537V172.543Z" fill="white"/>
<path d="M168.892 176.027C168.738 175.983 168.578 175.945 168.419 175.895C168.232 175.84 168.05 175.791 167.874 175.736C167.698 176.186 167.367 176.758 167.021 177.549C165.76 180.434 165.149 181.891 164.126 182.803C163.454 183.402 162.304 184.045 160.675 184.726C159.216 185.325 158.264 185.633 157.824 185.638C157.653 185.638 157.527 185.578 157.444 185.457C157.499 185.342 158.093 184.864 159.233 184.017C160.697 182.929 161.82 182.045 162.607 181.363C164.852 179.423 165.97 177.95 165.953 176.95C165.953 176.758 165.832 176.665 165.59 176.665C164.841 176.676 164.01 176.505 163.107 176.159C162.172 175.785 161.699 175.412 161.693 175.038C161.687 174.505 162.106 173.356 162.953 171.598C163.823 169.768 164.456 168.85 164.841 168.845C165.568 168.834 166.223 169.488 166.707 170.026C167.544 170.955 167.846 171.971 167.967 172.527C168.188 172.636 168.413 172.746 168.633 172.851C168.617 173.268 168.617 173.73 168.65 174.23C168.694 174.901 168.787 175.505 168.898 176.027H168.892Z" fill="white"/>
<path d="M174.836 173.126C175.007 172.598 173.95 171.818 173.356 171.527C172.453 171.087 171.644 170.911 170.928 171.005L170.901 170.537C171.44 169.587 172.018 168.927 172.64 168.559C173.262 168.191 174.137 167.971 175.254 167.905C176.174 167.85 177.027 167.922 177.808 168.114C178.937 168.378 179.525 168.845 179.564 169.526C179.597 170.103 178.882 171.384 177.417 173.362C177.638 173.456 177.858 173.549 178.078 173.642C177.616 173.89 176.322 174.5 174.765 174.159C174.236 174.044 173.801 173.846 173.471 173.653C173.746 173.637 174.688 173.571 174.831 173.126H174.836Z" fill="white"/>
<path d="M6.86334 168.235V171.763C5.97171 173.043 4.55171 174.164 3.03814 175.126C2.32814 175.604 0.996202 176.005 0.192636 175.769C-0.165116 175.686 0.0165116 175.126 0.280698 174.89C1.34845 173.928 2.68039 173.686 3.92427 172.647C4.72783 171.686 0.902636 170.801 1.79427 169.196C2.94458 167.196 4.63977 165.031 5.43783 164.152C5.88365 163.987 6.14783 164.069 6.14783 164.47C5.70202 165.267 3.8362 166.635 5.61396 167.515C6.05977 167.674 6.50559 167.91 6.85784 168.235M6.86334 185.627C6.59915 185.71 6.32946 185.71 5.97171 185.71C6.05977 185.628 6.2359 185.468 6.86334 185.309V185.627ZM6.86334 171.763V168.235C7.48528 168.795 7.83753 169.438 7.66691 170.235C7.48528 170.713 7.22109 171.279 6.86334 171.763ZM11.0408 173.202V177.45C10.4188 177.126 9.26303 176.489 8.73466 176.17C8.47047 176.088 8.55303 175.851 8.6466 175.604C8.91078 175.126 9.71435 173.763 10.0666 173.202C10.3308 172.961 10.4243 172.884 10.6885 173.043C10.7766 173.043 10.8702 173.12 11.0463 173.202M11.0408 160.86V167.108C10.5069 165.102 10.9527 162.618 11.0408 160.86ZM11.0408 184.985C9.79691 185.386 8.37691 185.545 6.86334 185.627V185.309L6.9514 185.226C8.72915 184.748 9.43915 184.506 11.0353 183.385V183.303V184.99L11.0408 184.985ZM11.0408 177.45V173.202C11.7563 173.521 13.0882 174.247 13.3524 174.406C13.6166 174.565 13.7102 174.725 13.5285 175.049C13.2644 175.609 12.2847 177.214 12.1085 177.533C11.9324 177.775 11.6682 177.775 11.4866 177.698C11.3985 177.615 11.2224 177.533 11.0408 177.456M15.576 166.471V170.317C14.0679 170.317 12.9066 169.757 12.1085 168.955C11.5802 168.394 11.3105 167.757 11.0408 167.114V160.865C11.0408 160.783 11.1288 160.7 11.1288 160.624C11.2169 157.497 11.6627 152.045 11.6627 152.045C12.0205 150.045 11.9269 150.847 12.4608 149.396C12.7305 148.6 13.3524 146.83 13.6166 147.237C13.3524 150.281 12.0205 162.624 12.9947 164.866C13.4405 165.668 14.0624 166.229 15.1247 166.388C15.3063 166.471 15.3889 166.471 15.5705 166.471M15.576 182.578C15.3944 182.737 15.3118 182.819 15.2182 182.902C14.0624 183.94 12.6424 184.583 11.0408 184.985V183.297C12.5544 181.935 14.0624 180.412 15.576 178.89V182.578ZM19.6654 163.261V167.267C19.5773 167.432 19.4837 167.592 19.3957 167.751C18.6857 168.713 17.6179 170.158 15.9337 170.317H15.576V166.471C16.996 166.712 18.3279 166.069 19.6654 163.261ZM19.6654 151.562V152.842C19.3076 153.001 19.0379 153.001 19.0379 152.677C19.126 152.199 19.3076 151.88 19.6654 151.556M19.6654 178.253C17.9757 180.017 16.286 181.781 15.576 182.578V178.89C16.996 177.45 18.4215 175.923 19.6654 174.642V178.247V178.253ZM19.6654 167.267V163.261C20.0231 162.464 19.8415 162.058 20.1057 161.822C20.2873 161.898 20.2873 162.058 20.2873 162.3C20.2873 163.102 20.4634 165.509 19.6654 167.267ZM24.1951 149.556V151.243C23.1273 151.479 22.0596 151.721 20.9973 152.205C20.4634 152.364 20.0231 152.683 19.6654 152.848V151.567C20.2873 151.007 21.0854 150.605 21.7954 150.287C22.5989 149.968 23.3915 149.809 24.1951 149.567M24.1951 173.604C23.9309 173.922 23.5731 174.164 23.2209 174.483C22.5109 175.28 21.0909 176.725 19.6654 178.247V174.642C21.3551 172.878 22.7751 171.438 23.6667 170.554C23.8428 170.394 24.0189 170.235 24.2006 170.076V173.604H24.1951ZM24.1951 151.243C26.0609 150.759 27.9267 150.281 29.3522 148.836C29.5338 148.6 29.5338 148.116 29.2641 147.874C27.668 148.836 25.9783 149.16 24.2006 149.561V151.248L24.1951 151.243ZM60.8344 177.049C59.5024 177.846 59.0566 179.214 58.2531 180.412C56.5689 182.902 56.3928 183.297 56.2166 187.227C56.035 191.392 56.2166 190.139 56.3047 194.547L56.3928 195.426L56.7505 194.464C57.4605 192.782 57.2844 188.666 57.9063 182.896C57.9944 181.77 59.1502 180.731 60.8399 180.33V177.044L60.8344 177.049ZM55.303 144.429C55.0333 144.594 54.8572 144.67 54.5875 144.747C51.6594 146.11 48.4562 147.396 45.6107 149.721C45.6107 149.721 44.9887 150.364 44.8126 151.001C44.631 151.562 44.0971 158.618 44.2787 162.3C44.5429 163.02 44.7245 163.745 45.2529 164.388C46.3207 165.35 48.0984 165.751 49.6065 165.267C52.0942 163.827 51.5659 161.179 51.5659 158.612C51.4778 157.733 51.4778 156.689 51.3897 155.727C51.3897 155.727 51.2081 152.523 51.9236 151.397C52.5455 150.358 52.8152 149.875 53.6133 148.671C53.7014 149.55 53.4372 151.639 53.5252 152.359C53.7949 158.376 53.7949 161.975 52.2814 163.421C51.6594 164.146 51.6594 164.624 51.5714 164.948C51.3017 167.674 49.9697 168.636 48.6378 169.196C47.3939 169.68 44.02 169.521 42.9523 166.394C42.0607 167.597 37.8832 172.329 37.5255 172.724C36.5513 174.648 35.9293 176.175 35.0377 178.659L34.6855 179.137C34.058 177.456 34.1516 177.297 34.2396 175.049C34.3277 172.884 32.1922 171.999 30.9538 171.686C28.1964 170.966 26.0664 172.004 24.1951 173.609V170.081C26.3251 168.394 28.367 167.757 29.6164 167.515C30.0622 167.432 32.55 167.273 33.7058 168.312C35.1258 169.515 35.9293 171.922 35.9293 171.922C36.5513 170.795 37.5255 169.757 38.241 168.553C39.661 166.872 41.0865 165.19 42.589 163.426C42.8587 158.057 41.6148 153.573 44.7245 149.396C47.1242 145.632 51.3897 143.868 55.303 141.708V144.434V144.429ZM64.6541 176.088V179.698C63.4102 179.857 62.2544 180.017 61.016 180.259C60.928 180.259 60.928 180.341 60.8344 180.341V177.055C61.4563 176.736 62.2544 176.494 63.4102 176.412C64.1202 176.329 64.478 176.247 64.6541 176.093M64.6541 173.202V175.285V175.208C64.2138 174.565 64.2963 173.845 64.6541 173.202ZM59.1172 152.683V167.751C58.9411 168.152 58.6769 168.548 58.5007 168.949C58.4127 168.949 58.2366 168.872 58.2366 168.79C59.2107 163.822 58.3246 159.013 58.6769 154.123C58.7649 153.639 58.9411 153.161 59.1172 152.677M59.1172 140.659C58.3191 142.099 57.5211 143.308 55.303 144.423V141.697C56.3707 141.137 57.3449 140.494 58.3191 139.857C58.5833 139.697 58.853 139.532 59.1172 139.373V140.653V140.659ZM59.1172 167.751C61.6104 162.464 60.1024 157.172 60.7243 151.237C60.7243 150.996 60.9004 149.957 60.8124 149.798C60.0143 150.435 59.4804 151.562 59.1227 152.677V167.746L59.1172 167.751ZM76.8287 182.578V183.94C76.2067 184.583 75.139 185.468 74.8748 185.704C74.6932 185.946 74.429 185.864 74.1593 185.704C73.8951 185.463 72.3815 184.259 71.6715 183.616C71.4018 183.457 71.4954 183.297 71.7596 183.133C72.1173 182.655 73.4493 181.451 74.0712 181.05C74.3354 180.808 74.5115 180.808 74.7757 180.973C74.9573 181.132 76.1132 182.017 76.8232 182.572M76.8287 170.235V175.043C75.6729 174.164 74.8748 172.801 74.3409 171.68C73.7135 170.317 72.4751 170.4 71.2257 170.636C70.0754 171.037 68.4738 171.197 67.5821 172.076C67.318 172.878 69.0076 172.719 69.5415 173.12C70.3396 173.604 70.8735 174.247 70.9615 175.043C71.1432 175.686 71.2257 176.489 71.0496 177.126C70.6918 178.654 67.9344 178.973 66.4318 179.374C65.8044 179.533 65.188 179.61 64.6486 179.693V176.082C64.9183 175.917 64.7366 175.598 64.6486 175.28V173.197C65.276 171.917 66.8721 170.955 67.318 170.548C68.826 169.427 71.0496 167.746 73.7135 167.746C75.3151 167.905 75.849 169.026 76.8287 170.229M76.8287 158.535V159.898C76.8287 159.898 76.7406 159.898 76.647 159.975C76.2067 159.656 76.3829 159.497 76.647 158.854C76.7351 158.772 76.7351 158.612 76.8287 158.535ZM76.8287 159.898C77.5387 159.497 78.2487 159.096 79.0522 158.936C80.2906 158.695 81.8042 158.695 82.8719 158.535C81.9858 159.497 80.918 160.222 79.8558 160.937C79.41 161.256 79.498 161.503 79.8558 161.503C80.7419 161.503 81.6336 161.184 82.3436 160.86C83.5874 159.096 85.0129 157.409 85.0955 155.326C84.9194 154.842 84.8313 154.842 84.2094 155.007C82.6077 155.249 81.8977 155.491 80.2961 155.65C78.4358 155.892 77.4561 157.337 76.8342 158.535V159.898H76.8287ZM76.8287 183.94V182.578C77.4506 182.023 78.3422 181.215 78.788 180.814C79.0522 180.654 79.2339 180.654 79.498 180.731C79.7622 180.89 81.6281 182.418 81.9858 182.737C82.25 182.896 82.1619 183.133 81.9858 183.38C81.4519 183.858 80.0264 185.221 79.6742 185.545C79.41 185.71 79.1458 185.628 78.9642 185.468C78.7 185.309 77.7203 184.501 76.9222 183.858L76.8342 183.94H76.8287ZM108.206 181.457V182.819C105.719 183.462 103.225 184.182 100.831 184.985C100.831 183.94 101.365 183.704 102.345 183.297C104.299 182.578 106.252 182.017 108.212 181.457M108.206 164.388V167.669H108.118C106.517 168.394 103.143 171.84 102.873 172.642C104.739 172.323 105.63 172.158 106.962 171.763C107.408 171.68 107.76 171.521 108.206 171.444V174.488C108.118 174.488 108.025 174.488 108.025 174.565C105.273 175.285 97.5398 176.736 92.2065 176.895C90.071 176.972 87.8474 177.055 81.8042 176.571C80.2906 176.335 79.8503 176.335 78.6945 176.011C77.9845 175.851 77.3625 175.45 76.8287 175.049V170.24C77.5387 171.12 78.5184 171.928 80.208 172.565C84.9194 174.087 91.5791 174.565 101.002 172.483C101.981 171.202 103.313 169.438 104.381 167.833C104.381 167.833 104.469 167.191 104.469 166.069C104.915 161.42 104.111 157.491 104.288 152.441C104.915 151.161 105.801 149.875 106.153 148.435L106.423 148.111C106.511 149.638 106.423 149.957 106.599 150.842C106.775 155.331 106.863 159.656 106.153 164.229C105.713 165.833 105.267 166.234 104.998 167.273C105.355 167.273 106.506 165.674 108.201 164.393M111.134 180.66V181.94C110.16 182.264 109.18 182.506 108.206 182.825V181.462C109.18 181.143 110.16 180.901 111.134 180.665M111.134 170.559V173.527C110.248 173.845 109.274 174.17 108.206 174.488V171.444C109.274 171.12 110.248 170.878 111.134 170.559ZM111.134 162.866V166.954C109.984 166.954 108.647 167.432 108.206 167.674V164.393C109.01 163.673 109.984 163.113 111.134 162.871M111.134 151.562V155.81C110.43 155.491 109.274 154.842 108.735 154.529C108.47 154.447 108.559 154.21 108.647 153.963C108.916 153.485 109.714 152.122 110.16 151.562C110.342 151.32 110.43 151.243 110.694 151.32C110.782 151.397 110.87 151.479 111.134 151.562ZM111.134 155.81V151.562C111.762 151.88 113.094 152.606 113.363 152.76C113.628 152.925 113.721 153.078 113.54 153.403C113.275 153.963 112.296 155.568 112.12 155.892C111.938 156.128 111.762 156.128 111.498 155.969C111.41 155.969 111.316 155.892 111.14 155.81M111.134 181.94V180.66C111.316 180.577 111.492 180.495 111.668 180.418C112.378 180.259 113.892 179.775 113.892 179.775C113.892 180.901 113.182 181.22 112.472 181.462C112.026 181.627 111.58 181.781 111.134 181.94ZM118.603 167.993V170.164C117.447 170.883 115.493 172.004 111.134 173.527V170.559C112.026 170.164 112.736 169.839 113.27 169.438C113.798 169.119 113 167.993 112.466 167.515C112.202 167.114 111.668 167.031 111.129 166.954V162.866C111.399 162.866 111.663 162.783 112.02 162.783C113.176 162.701 113.98 163.02 114.596 163.58C115.928 164.701 116.016 165.905 114.778 168.229C114.244 169.108 113.622 169.988 113.27 170.708C114.778 170.466 116.022 169.427 117.442 168.79C117.8 168.548 118.245 168.306 118.598 167.987M118.603 158.217V161.827C118.069 161.508 117.007 161.107 116.38 160.783C116.203 160.7 116.291 160.541 116.38 160.305C116.561 159.904 117.354 158.618 117.711 158.217C117.893 157.975 118.069 157.975 118.245 158.052C118.333 158.052 118.51 158.134 118.603 158.217ZM118.603 161.822V158.211C119.313 158.453 120.469 159.09 120.827 159.25C121.003 159.332 121.091 159.574 120.915 159.733C120.645 160.217 119.759 161.58 119.577 161.898C119.489 162.058 119.22 162.058 119.049 161.981C118.961 161.898 118.779 161.898 118.603 161.822ZM125.533 166.789V168.63C124.641 169.757 123.755 170.713 122.065 170.795C120.733 170.878 120.111 169.114 118.691 170.076L118.603 170.158V167.987C119.941 167.191 121.361 166.306 122.159 166.866C122.786 167.427 123.936 167.987 124.646 167.509C125.004 167.267 125.274 167.026 125.538 166.789M125.533 156.453V159.656C124.999 159.255 124.377 158.777 123.931 158.535C123.755 158.376 123.843 158.217 124.019 158.052C124.289 157.733 124.911 156.931 125.533 156.453ZM125.533 151.16V155.007C124.911 154.606 124.019 153.963 123.573 153.644C123.397 153.485 123.485 153.326 123.661 153.084C123.925 152.683 124.905 151.644 125.527 151.16M125.533 155.007V151.16C125.533 151.078 125.621 151.078 125.621 151.001C125.885 150.842 126.061 150.759 126.243 150.919C126.507 151.078 128.378 152.358 128.73 152.677C128.994 152.842 128.912 153.001 128.73 153.238C128.373 153.721 127.041 155.167 126.776 155.403C126.595 155.645 126.331 155.568 126.149 155.403C126.061 155.326 125.791 155.167 125.527 155.007M125.533 159.656V156.453C125.714 156.211 125.89 156.051 125.978 155.892C126.243 155.727 126.419 155.727 126.688 155.81C126.864 155.969 128.73 157.249 129.088 157.574C129.352 157.733 129.352 157.969 129.176 158.134C128.73 158.618 127.486 160.058 127.134 160.299C126.953 160.541 126.688 160.459 126.507 160.376C126.331 160.217 125.973 159.975 125.533 159.656ZM125.533 168.63V166.789C126.419 165.91 126.776 164.948 127.31 163.987C127.668 164.069 127.398 164.63 127.492 164.789C126.864 166.152 126.782 166.877 125.533 168.553V168.636V168.63ZM234.223 171.18V173.983C233.513 174.384 232.891 174.384 232.181 174.384C230.58 173.983 229.16 172.296 227.382 173.257C225.516 174.302 223.116 176.307 223.116 176.307C223.204 174.862 224.184 173.9 224.982 172.939C226.226 171.416 227.646 170.29 229.512 169.658C231.02 169.257 232.622 171.098 234.223 171.18ZM234.223 156.59V161.475C234.164 161.475 234.135 161.448 234.135 161.393C233.777 161.234 232.181 160.112 231.383 159.552C231.202 159.393 231.295 159.233 231.471 158.991C231.829 158.59 233.067 157.227 233.601 156.749C233.777 156.59 233.959 156.508 234.223 156.59ZM234.223 151.622V156.354C234.047 156.436 233.865 156.354 233.695 156.271C233.425 156.035 231.735 154.831 231.025 154.271C230.761 154.112 230.844 153.952 231.025 153.787C231.383 153.309 232.627 151.946 233.161 151.463C233.425 151.303 233.607 151.221 233.871 151.386C233.959 151.386 234.053 151.463 234.229 151.622M234.223 156.348V151.617C234.845 152.018 236.183 152.979 236.535 153.221C236.711 153.463 236.711 153.622 236.535 153.864C236.089 154.425 234.752 155.952 234.399 156.189C234.311 156.266 234.311 156.348 234.218 156.348M234.223 161.481V156.595C234.223 156.595 234.223 156.672 234.311 156.672C234.487 156.832 236.535 158.195 236.887 158.519C237.151 158.755 237.151 158.914 236.975 159.156C236.529 159.722 235.109 161.085 234.84 161.398C234.663 161.558 234.399 161.558 234.218 161.481M245.776 171.658V175.906C244.708 175.587 243.646 175.186 242.578 174.626C241.246 173.906 240.443 173.104 239.468 171.977C238.043 170.29 235.731 172.62 234.669 173.659C234.487 173.818 234.311 173.9 234.223 173.977V171.175C234.487 171.175 234.845 171.092 235.197 170.938C236.177 170.455 237.773 168.372 239.644 168.213C240.976 168.295 243.112 170.136 244.086 170.779C244.62 171.18 245.154 171.422 245.776 171.658ZM245.776 159.634V161.475C245.6 161.558 245.512 161.64 245.418 161.794C244.89 162.195 243.904 162.673 243.194 162.514C242.93 162.432 243.018 161.953 243.194 161.712C243.904 160.909 244.884 160.591 245.77 159.629M245.776 152.424V159.079C245.247 158.436 243.288 157.799 243.734 156.595C244.356 155.068 245.154 153.392 245.776 152.43M245.776 161.481V159.64L245.869 159.557C245.957 159.398 245.869 159.239 245.776 159.079V152.424C245.869 152.183 245.957 152.023 246.045 151.941C246.31 151.705 246.574 151.781 246.667 152.106C246.403 152.903 245.066 154.271 246.486 154.831C247.642 155.233 248.533 156.112 248.445 157.156C248.181 158.678 247.113 160.283 245.776 161.481ZM263.817 172.702V175.67C259.546 176.626 255.996 176.791 253.861 176.873C250.927 177.033 248.258 176.709 245.77 175.912V171.664C246.926 172.147 248.258 172.384 249.507 172.625C254.125 173.505 259.816 173.186 263.817 172.708M263.817 160.838V161.8C263.46 161.882 263.196 161.964 262.926 161.964C262.48 161.882 262.48 161.723 262.838 161.321C263.196 161.157 263.46 161.003 263.817 160.838ZM263.817 156.112V159.239C263.196 159.239 262.662 159.321 262.128 159.481C261.242 159.563 260.532 160.047 259.728 160.442C259.282 160.123 259.464 160.047 259.728 159.404C260.35 158.041 261.33 156.354 263.284 156.194C263.46 156.112 263.641 156.112 263.817 156.112ZM279.371 183.204C278.838 183.688 277.412 184.968 277.06 185.287C276.884 185.452 276.62 185.369 276.35 185.21C276.086 184.968 274.572 183.765 273.862 183.204C273.598 183.039 273.774 182.885 273.95 182.638C274.308 182.242 275.64 181.039 276.256 180.555C276.526 180.396 276.702 180.396 276.972 180.478C277.148 180.638 278.661 181.841 279.278 182.319C279.724 181.841 280.968 180.715 281.501 180.313C281.766 180.154 281.947 180.154 282.211 180.231C282.476 180.39 284.259 181.918 284.699 182.237C284.881 182.396 284.881 182.633 284.699 182.88C284.165 183.358 282.657 184.721 282.393 185.045C282.123 185.21 281.859 185.127 281.678 184.968C281.32 184.809 280.081 183.765 279.371 183.122V183.204ZM281.678 145.846C281.59 146.973 280.88 147.209 280.258 147.528C276.438 148.732 272.437 149.77 268.617 151.056C268.617 150.012 269.151 149.776 270.13 149.369C273.152 148.248 276.35 147.363 279.465 146.484C280.087 146.242 281.683 145.841 281.683 145.841M263.817 161.8C264.351 161.717 264.885 161.481 265.414 161.239C266.569 159.552 268.083 157.953 268.083 155.788C267.901 155.392 267.819 155.392 267.285 155.546C265.771 155.788 265.061 155.947 263.817 156.106V159.233C264.527 159.151 265.326 159.151 265.953 159.074C265.326 159.717 264.533 160.277 263.817 160.832V161.794V161.8ZM285.591 160.755V164.283C285.321 164.201 285.057 164.201 284.787 164.201C284.259 164.283 283.72 165.086 284.077 165.564C284.43 166.047 284.963 166.284 285.591 166.526V168.768C283.901 169.729 282.393 171.092 279.988 170.532C279.366 170.449 278.122 168.927 277.236 169.57C273.769 172.054 271.815 173.576 266.834 174.939C265.766 175.258 264.792 175.5 263.817 175.659V172.691C265.953 172.373 267.637 172.131 268.347 171.895C271.545 171.092 274.836 169.163 277.858 167.482C279.812 166.685 280.791 169.724 282.921 168.526L284.077 167.883C283.72 167.641 283.274 167.322 283.01 166.921C282.652 165.96 282.828 165.157 283.186 164.355C283.989 163.234 285.233 163.316 284.606 162.113C284.424 161.234 284.787 160.992 285.316 160.673C285.404 160.673 285.497 160.75 285.585 160.75M289.411 163.162V165.729C289.146 165.569 288.789 165.41 288.436 165.328C288.348 165.888 287.991 166.608 287.721 167.015C288.255 167.41 288.882 167.575 289.411 167.735V169.576C288.255 169.493 287.187 168.773 286.125 168.449C285.949 168.614 285.767 168.691 285.596 168.768V166.526C285.861 166.526 286.125 166.608 286.394 166.608C287.022 166.289 287.462 165.481 287.022 165.003C286.758 164.685 286.218 164.443 285.602 164.283V160.755C285.778 160.838 285.866 160.915 285.866 160.997C285.954 161.316 286.394 161.475 286.758 161.794C287.022 161.959 288.178 162.514 289.422 163.157M289.411 169.576V167.735C289.768 167.735 290.038 167.811 290.385 167.894C291.007 167.894 291.364 167.251 291.1 166.932C290.654 166.372 290.032 165.971 289.411 165.729V163.162C290.214 163.564 291.007 164.042 291.541 164.443C291.81 164.602 292.344 165.163 292.432 165.322C292.961 166.042 293.142 166.52 292.52 167.564C291.986 168.443 291.452 168.927 290.561 169.405C290.203 169.57 289.757 169.57 289.405 169.57M128.009 161.904C128.191 161.904 128.207 162.519 128.659 163.305C128.967 163.844 129.341 164.212 129.605 164.443C129.93 164.63 130.403 164.849 130.998 164.976C132.027 165.19 132.886 165.009 133.343 164.877C135.83 163.437 135.302 160.788 135.302 158.228C135.214 157.348 135.214 156.304 135.126 155.342C135.126 155.342 134.944 152.139 135.66 151.012C136.282 149.974 136.551 149.49 137.349 148.286C137.437 149.166 137.173 151.254 137.261 151.974C137.531 157.991 137.531 161.591 136.017 163.036C135.395 163.761 135.395 164.24 135.307 164.564C135.164 166.02 134.713 166.971 134.124 167.63C134.075 167.685 133.337 168.476 132.374 168.812C130.53 169.444 128.037 168.328 126.232 165.998C126.512 165.597 126.892 164.987 127.217 164.185C127.718 162.937 127.784 161.915 128.02 161.915L128.009 161.904Z" fill="white"/>
<path d="M143.415 162.124L143.244 165.438C142.71 164.992 142.094 164.465 141.648 164.196C141.477 164.02 141.576 163.86 141.769 163.701C142.066 163.388 142.749 162.591 143.42 162.129M143.695 156.645L143.492 160.624C142.87 160.173 141.984 159.464 141.538 159.107C141.367 158.931 141.466 158.772 141.659 158.53C141.956 158.129 143.024 157.107 143.695 156.639M143.492 160.629L143.695 156.65C143.695 156.568 143.794 156.573 143.794 156.491C144.075 156.337 144.262 156.26 144.438 156.442C144.708 156.617 146.568 158.046 146.921 158.398C147.185 158.579 147.091 158.744 146.893 158.975C146.502 159.453 145.044 160.882 144.758 161.107C144.559 161.349 144.29 161.25 144.108 161.074C144.02 160.992 143.756 160.81 143.486 160.629M143.244 165.438L143.415 162.124C143.613 161.882 143.805 161.728 143.904 161.569C144.185 161.415 144.372 161.426 144.647 161.519C144.818 161.695 146.684 163.118 147.036 163.47C147.3 163.652 147.289 163.893 147.097 164.053C146.612 164.531 145.247 165.954 144.868 166.185C144.669 166.421 144.4 166.328 144.218 166.229C144.042 166.059 143.69 165.784 143.244 165.432M147.807 183.704C147.229 184.177 145.693 185.424 145.308 185.737C145.115 185.891 144.846 185.798 144.576 185.617C144.312 185.353 142.815 184.034 142.11 183.407C141.841 183.226 142.033 183.072 142.231 182.83C142.622 182.435 144.064 181.264 144.736 180.797C145.016 180.649 145.203 180.66 145.473 180.753C145.644 180.924 147.146 182.248 147.768 182.781C148.258 182.303 149.601 181.215 150.168 180.825C150.454 180.676 150.636 180.687 150.911 180.781C151.175 180.962 152.936 182.633 153.377 182.99C153.547 183.166 153.536 183.413 153.344 183.655C152.766 184.127 151.126 185.452 150.834 185.77C150.553 185.924 150.278 185.825 150.102 185.65C149.744 185.463 148.511 184.325 147.807 183.616V183.699V183.704Z" fill="white"/>
<path d="M198.685 167.57C199.004 167.399 199.262 167.262 199.439 167.163C199.554 167.097 199.67 167.037 199.785 166.971C200.275 166.685 200.6 166.52 200.749 166.482C201.112 166.399 201.574 166.487 202.141 166.756C202.757 167.031 203.198 167.158 203.473 167.147C203.781 167.075 204.486 166.482 205.603 165.355C205.829 165.553 206.054 165.756 206.269 165.96C206.517 166.124 206.814 166.157 207.166 166.075C207.408 166.02 207.716 165.679 208.096 165.047C208.476 164.421 208.757 164.086 208.922 164.042C209.114 163.998 209.329 164.256 209.571 164.817C209.401 165.025 209.224 165.24 209.054 165.448C208.856 165.696 208.658 165.943 208.459 166.185C207.359 167.526 206.566 168.685 206.093 168.801C205.911 168.845 205.399 168.713 204.546 168.41C204.403 168.493 204.012 168.79 203.374 169.29C202.879 169.685 202.466 169.922 202.13 169.999C201.992 170.032 201.855 170.048 201.723 170.043C201.387 170.032 201.15 169.905 200.958 169.812C200.958 169.812 200.644 169.663 199.895 169.449C199.51 169.339 198.927 169.301 198.079 169.641" fill="white"/>
<path d="M224.002 152.677L223.188 168.46C222.984 168.872 222.681 169.273 222.478 169.686C222.384 169.686 222.203 169.592 222.208 169.504C223.502 164.355 222.83 159.266 223.463 154.167C223.584 153.666 223.793 153.172 224.002 152.677ZM223.188 168.46C226.083 163.058 224.789 157.431 225.764 151.254C225.775 151.001 226.017 149.919 225.929 149.748C225.059 150.375 224.437 151.523 224.002 152.677L223.188 168.46Z" fill="white"/>
<path d="M210.116 163.047C210.413 163.624 210.782 164.036 211.046 164.289C211.377 164.503 211.861 164.756 212.477 164.921C213.545 165.201 214.453 165.058 214.938 164.943C217.623 163.569 217.205 160.766 217.348 158.079C217.304 157.151 217.359 156.057 217.321 155.046C217.321 155.046 217.304 151.677 218.113 150.54C218.818 149.484 219.126 148.995 220.029 147.781C220.073 148.71 219.682 150.88 219.737 151.633C219.693 157.947 219.5 161.723 217.838 163.151C217.15 163.877 217.123 164.382 217.012 164.712C216.781 166.229 216.264 167.202 215.609 167.861C215.526 167.943 214.734 168.718 213.71 169.004C211.784 169.543 209.296 168.284 207.612 165.828C207.722 165.657 207.898 165.388 208.107 165.058C209.076 163.503 209.439 162.673 209.797 162.739C209.874 162.756 210.006 162.822 210.127 163.058L210.116 163.047Z" fill="white"/>
<path d="M288.888 160.442C289.053 159.959 289.185 158.992 289.289 157.541C289.317 156.826 289.361 156.112 289.416 155.387C289.466 154.661 289.532 153.936 289.603 153.21C289.735 152.721 290.088 151.683 290.654 150.089C291.221 148.49 291.706 147.325 292.107 146.599C292.245 146.495 292.355 146.495 292.443 146.599C292.531 146.682 292.471 147.424 292.245 148.836C292.047 150.809 291.931 152.133 291.898 152.804C291.865 153.474 291.794 154.315 291.706 155.321C291.634 156.447 291.463 157.557 291.205 158.645C290.946 159.733 290.594 160.717 290.154 161.602C289.713 162.492 289.433 163.053 289.295 163.294C288.954 163.525 288.645 163.619 288.37 163.575C288.09 163.536 287.809 163.443 287.512 163.294C288.123 162.41 288.579 161.453 288.893 160.437" fill="white"/>
<path d="M299.323 149.869C299.516 149.468 299.675 149.265 299.796 149.265C299.983 149.265 300.05 149.391 299.972 149.644C299.884 149.924 299.78 150.413 299.659 151.106C299.538 151.798 299.45 152.337 299.389 152.727C299.301 153.414 299.213 154.183 299.125 155.046C299.037 155.903 298.954 156.788 298.877 157.695L298.657 160.343C298.585 161.201 298.503 161.975 298.415 162.662C298.178 164.745 297.809 166.46 297.325 167.812C296.835 169.163 296.257 170.405 295.602 171.559C294.947 172.708 294.419 173.307 294.017 173.362C293.907 173.362 293.94 173.12 294.105 172.636C294.298 172.18 294.48 171.609 294.65 170.927C294.821 170.24 294.975 169.504 295.107 168.724C295.239 167.938 295.36 167.13 295.465 166.306C295.569 165.481 295.657 164.696 295.729 163.959C295.839 163.261 295.922 162.217 295.999 160.832C296.07 159.442 296.18 158.261 296.334 157.299C296.483 156.332 296.709 155.507 297 154.82" fill="white"/>
<path d="M198.701 167.564C198.497 168.262 198.288 168.955 198.085 169.652C196.791 170.823 195.008 172.219 192.696 173.472C190.214 174.824 188.156 175.456 187.55 175.631C184.363 176.571 181.782 176.643 180.858 176.654C178.766 176.67 177.016 176.401 175.766 176.131C174.423 176.483 172.348 176.813 169.943 176.335C169.167 176.181 168.479 175.967 167.874 175.736C167.973 175.351 168.292 174.153 168.391 173.768C168.413 173.675 168.606 172.944 168.633 172.851C168.699 172.878 168.832 172.922 168.997 172.972C168.997 172.972 169.068 172.994 169.173 173.027C169.173 173.027 169.376 173.093 169.558 173.142C170.763 173.494 172.073 173.444 172.073 173.444C172.238 173.439 174.578 173.34 174.671 172.713C174.699 172.543 174.55 172.378 174.407 172.252L178.293 172.12C178.1 172.389 177.913 172.653 177.72 172.922C180.065 173.252 183.973 173.505 188.585 172.356C193.362 171.164 196.78 168.999 198.701 167.564Z" fill="white"/>
<path d="M199.846 159.794C199.846 160.36 199.725 160.849 199.488 161.267C199.202 161.772 198.8 162.025 198.283 162.025C197.898 162.025 197.578 161.921 197.331 161.712C197.27 162.058 197.083 162.36 196.775 162.613C196.461 162.866 196.131 162.992 195.784 162.992C195.399 162.992 195.091 162.816 194.859 162.459C194.661 162.151 194.562 161.794 194.562 161.388C194.562 161.08 194.672 160.58 194.892 159.887L195.234 159.827C195.234 160.926 195.426 161.475 195.817 161.475C196.395 161.475 196.841 160.673 197.16 159.068L197.43 158.981C197.65 159.953 197.936 160.437 198.294 160.437C198.96 160.437 199.29 159.706 199.29 158.25L199.631 158.101C199.78 158.634 199.857 159.2 199.857 159.799L199.846 159.794ZM199.741 155.953L199.62 157.431C199.251 157.211 198.855 156.953 198.426 156.656C197.243 158.085 196.268 158.799 195.492 158.799C195.311 158.799 195.019 158.739 194.612 158.618C195.371 158.288 196.433 157.513 197.798 156.293C197.182 155.815 196.879 155.37 196.879 154.952C196.879 154.436 197.039 153.908 197.358 153.37C197.716 152.754 198.134 152.447 198.619 152.447C199.295 152.447 199.637 152.848 199.637 153.656C199.637 154.255 199.477 154.87 199.158 155.507L199.741 155.953ZM198.701 154.65C198.701 154.046 198.442 153.743 197.925 153.743L197.732 153.831L197.661 154.04C197.661 154.326 197.98 154.7 198.613 155.156C198.674 154.958 198.701 154.788 198.701 154.65Z" fill="white"/>
<path d="M178.353 161.343L178.232 162.822C177.863 162.602 177.467 162.344 177.038 162.047C175.854 163.476 174.88 164.19 174.104 164.19C173.923 164.19 173.631 164.13 173.224 164.009C173.983 163.679 175.045 162.904 176.41 161.684C175.794 161.206 175.491 160.761 175.491 160.343C175.491 159.827 175.651 159.299 175.97 158.761C176.328 158.145 176.746 157.837 177.23 157.837C177.907 157.837 178.249 158.239 178.249 159.046C178.249 159.645 178.089 160.261 177.77 160.898L178.353 161.343ZM177.308 160.036C177.308 159.431 177.049 159.129 176.531 159.129L176.339 159.217L176.267 159.426C176.267 159.711 176.586 160.085 177.219 160.541C177.28 160.343 177.308 160.173 177.308 160.036Z" fill="white"/>
<path d="M1.00171 205.856C1.58512 206.175 2.51527 206.455 3.42341 206.455C4.50217 206.455 5.06907 205.977 5.06907 205.268C5.06907 204.559 4.56272 204.185 3.38489 203.691C1.68419 202.976 0.693489 201.949 0.693489 200.558C0.693489 198.756 2.11899 197.349 4.56822 197.349C5.64148 197.349 6.46156 197.58 7.00094 197.844L6.5221 199.751C6.13132 199.553 5.44884 199.283 4.5352 199.283C3.52248 199.283 3.03814 199.789 3.03814 200.344C3.03814 201.015 3.55551 201.328 4.88194 201.91C6.64869 202.669 7.41923 203.685 7.41923 205.087C7.41923 206.939 6.01574 208.4 3.31334 208.4C2.19605 208.4 1.08977 208.104 0.561396 207.801L0.996202 205.85L1.00171 205.856Z" fill="white"/>
<path d="M11.2114 205.587L10.5399 208.258H8.16776L11.1729 197.498H14.156L17.1336 208.258H14.6844L13.9688 205.587H11.2169H11.2114ZM13.6551 203.834L13.0772 201.559C12.9176 200.916 12.7415 200.031 12.5929 199.377H12.5599C12.4168 200.036 12.2516 200.938 12.0975 201.564L11.5306 203.839H13.6606L13.6551 203.834Z" fill="white"/>
<path d="M20.3423 197.498V203.927C20.3423 205.702 20.9808 206.51 22.0155 206.51C23.0503 206.51 23.7162 205.752 23.7162 203.927V197.498H26.0499V203.713C26.0499 206.867 24.5583 208.422 21.9605 208.422C19.3627 208.422 18.0087 206.9 18.0087 203.702V197.503H20.3423V197.498Z" fill="white"/>
<path d="M28.0643 197.651C28.8458 197.514 29.8971 197.426 31.0034 197.426C32.8417 197.426 34.058 197.783 34.9937 198.52C36.0559 199.355 36.6889 200.696 36.6889 202.658C36.6889 204.757 35.9954 206.213 34.9937 207.076C33.981 207.944 32.4454 208.362 30.5245 208.362C29.4403 208.362 28.6092 208.291 28.0698 208.214V197.646L28.0643 197.651ZM30.3924 206.477C30.5741 206.516 30.8603 206.516 31.1024 206.516C32.9517 206.526 34.2286 205.383 34.2286 202.691C34.2286 200.46 33.1444 199.234 31.2951 199.234C30.8768 199.234 30.5851 199.267 30.3924 199.317V206.477Z" fill="white"/>
<path d="M40.5526 197.498V208.258H38.2189V197.498H40.5526Z" fill="white"/>
<path d="M51.4723 203.652H47.9608V206.318H51.8961V208.258H45.6272V197.498H51.6814V199.437H47.9608V201.751H51.4723V203.652Z" fill="white"/>
<path d="M53.4922 197.498H55.8259V206.301H59.6566V208.263H53.4922V197.503V197.498Z" fill="white"/>
<path d="M66.8721 203.652H63.3607V206.318H67.2959V208.258H61.027V197.498H67.0813V199.437H63.3607V201.751H66.8721V203.652Z" fill="white"/>
<path d="M75.9756 208.005C75.5793 208.197 74.6876 208.406 73.5594 208.406C70.1194 208.406 68.3802 206.098 68.3802 203.037C68.3802 199.251 70.901 197.355 73.8015 197.355C74.9133 197.355 75.7389 197.574 76.0966 197.772L75.6453 199.646C75.2325 199.465 74.6656 199.3 73.9171 199.3C72.2109 199.3 70.8349 200.427 70.8349 202.899C70.8349 205.18 72.0183 206.427 73.9226 206.427C74.5501 206.427 75.238 206.301 75.6508 206.136L75.9646 207.999L75.9756 208.005Z" fill="white"/>
<path d="M79.5256 199.509H76.9167V197.498H84.4956V199.509H81.8592V208.258H79.5256V199.509Z" fill="white"/>
<path d="M85.7339 197.651C86.477 197.52 87.5392 197.426 88.6895 197.426C90.1536 197.426 91.2488 197.646 91.9919 198.261C92.6358 198.795 92.944 199.542 92.944 200.515C92.944 201.817 92.0909 202.79 91.1112 203.174V203.218C91.8542 203.521 92.2615 204.218 92.5092 205.263C92.8064 206.472 93.1201 207.856 93.3238 208.263H90.9186C90.7645 207.955 90.5003 207.027 90.2361 205.735C89.9719 204.394 89.5536 204.026 88.64 204.021H88.0401V208.263H85.7229V197.651H85.7339ZM88.0456 202.301H88.8271C89.9444 202.301 90.6104 201.647 90.6104 200.712C90.6104 199.778 90.027 199.201 88.9647 199.19C88.5024 199.19 88.1997 199.223 88.0456 199.267V202.306V202.301Z" fill="white"/>
<path d="M96.9564 197.498V208.258H94.6227V197.498H96.9564Z" fill="white"/>
<path d="M106.087 208.005C105.691 208.197 104.799 208.406 103.671 208.406C100.231 208.406 98.4919 206.098 98.4919 203.037C98.4919 199.251 101.013 197.355 103.913 197.355C105.025 197.355 105.851 197.574 106.208 197.772L105.757 199.646C105.344 199.465 104.777 199.3 104.029 199.3C102.323 199.3 100.947 200.427 100.947 202.899C100.947 205.18 102.13 206.427 104.034 206.427C104.662 206.427 105.35 206.301 105.763 206.136L106.076 207.999L106.087 208.005Z" fill="white"/>
<path d="M109.896 197.498V208.258H107.562V197.498H109.896Z" fill="white"/>
<path d="M113.749 199.509H111.14V197.498H118.719V199.509H116.082V208.258H113.749V199.509Z" fill="white"/>
<path d="M122.291 208.258V203.933L119.198 197.498H121.823L122.808 200.08C123.1 200.828 123.325 201.476 123.562 202.207H123.595C123.804 201.504 124.035 200.828 124.316 200.064L125.268 197.498H127.844L124.63 203.856V208.263H122.296L122.291 208.258Z" fill="white"/>
<path d="M131.884 197.651C132.627 197.52 133.689 197.426 134.84 197.426C136.304 197.426 137.399 197.646 138.142 198.261C138.786 198.795 139.094 199.542 139.094 200.515C139.094 201.817 138.241 202.79 137.261 203.174V203.218C138.004 203.521 138.412 204.218 138.659 205.263C138.956 206.472 139.27 207.856 139.474 208.263H137.069C136.915 207.955 136.65 207.027 136.386 205.735C136.122 204.394 135.704 204.026 134.79 204.021H134.19V208.263H131.873V197.651H131.884ZM134.201 202.301H134.983C136.1 202.301 136.766 201.647 136.766 200.712C136.766 199.778 136.183 199.201 135.12 199.19C134.658 199.19 134.355 199.223 134.201 199.267V202.306V202.301Z" fill="white"/>
<path d="M146.623 203.652H143.112V206.318H147.047V208.258H140.778V197.498H146.833V199.437H143.112V201.751H146.623V203.652Z" fill="white"/>
<path d="M156.734 207.823C156.068 208.06 154.775 208.362 153.547 208.362C151.797 208.362 150.526 207.911 149.617 207.032C148.649 206.103 148.12 204.647 148.131 202.987C148.153 199.306 150.652 197.393 153.811 197.393C155.033 197.393 155.963 197.624 156.437 197.855L155.969 199.762C155.457 199.536 154.83 199.366 153.844 199.366C151.995 199.366 150.575 200.46 150.575 202.938C150.575 205.268 151.863 206.461 153.547 206.461C153.993 206.461 154.345 206.411 154.505 206.334V203.977H153.046V202.136H156.728V207.829L156.734 207.823Z" fill="white"/>
<path d="M160.851 197.498V203.927C160.851 205.702 161.489 206.51 162.524 206.51C163.559 206.51 164.225 205.752 164.225 203.927V197.498H166.558V203.713C166.558 206.867 165.067 208.422 162.469 208.422C159.871 208.422 158.517 206.9 158.517 203.702V197.503H160.851V197.498Z" fill="white"/>
<path d="M168.573 197.498H170.906V206.301H174.737V208.263H168.573V197.503V197.498Z" fill="white"/>
<path d="M178.458 205.587L177.781 208.258H175.409L178.414 197.498H181.397L184.374 208.258H181.925L181.21 205.587H178.458ZM180.902 203.834L180.324 201.559C180.164 200.916 179.988 200.031 179.839 199.377H179.806C179.663 200.036 179.498 200.938 179.344 201.564L178.777 203.839H180.907L180.902 203.834Z" fill="white"/>
<path d="M186.383 199.509H183.775V197.498H191.353V199.509H188.712V208.258H186.378V199.509H186.383Z" fill="white"/>
<path d="M201.013 202.746C201.013 206.433 199.086 208.417 196.268 208.417C193.302 208.417 191.695 205.955 191.695 202.921C191.695 199.888 193.494 197.338 196.433 197.338C199.527 197.338 201.013 199.926 201.013 202.746ZM194.155 202.899C194.155 205.109 194.986 206.521 196.378 206.521C197.771 206.521 198.558 204.955 198.558 202.834C198.558 200.905 197.826 199.234 196.373 199.234C194.92 199.234 194.155 200.74 194.155 202.894V202.899Z" fill="white"/>
<path d="M202.537 197.651C203.28 197.52 204.343 197.426 205.493 197.426C206.957 197.426 208.052 197.646 208.795 198.261C209.439 198.795 209.747 199.542 209.747 200.515C209.747 201.817 208.894 202.79 207.915 203.174V203.218C208.658 203.521 209.065 204.218 209.313 205.263C209.61 206.472 209.923 207.856 210.127 208.263H207.722C207.568 207.955 207.304 207.027 207.039 205.735C206.775 204.394 206.357 204.026 205.443 204.021H204.843V208.263H202.526V197.651H202.537ZM204.854 202.301H205.636C206.753 202.301 207.419 201.647 207.419 200.712C207.419 199.778 206.836 199.201 205.779 199.19C205.317 199.19 205.014 199.223 204.86 199.267V202.306L204.854 202.301Z" fill="white"/>
<path d="M213.319 208.258V203.933L210.226 197.498H212.852L213.837 200.08C214.128 200.828 214.354 201.476 214.591 202.207H214.624C214.833 201.504 215.064 200.828 215.345 200.064L216.297 197.498H218.873L215.659 203.856V208.263H213.325L213.319 208.258Z" fill="white"/>
<path d="M225.169 205.587L224.492 208.258H222.12L225.125 197.498H228.108L231.086 208.258H228.637L227.921 205.587H225.169ZM227.613 203.834L227.035 201.559C226.875 200.916 226.699 200.031 226.551 199.377H226.518C226.375 200.036 226.209 200.938 226.055 201.564L225.488 203.839H227.618L227.613 203.834Z" fill="white"/>
<path d="M234.3 197.498V203.927C234.3 205.702 234.939 206.51 235.973 206.51C237.008 206.51 237.674 205.752 237.674 203.927V197.498H240.008V203.713C240.008 206.867 238.516 208.422 235.918 208.422C233.32 208.422 231.967 206.9 231.967 203.702V197.503H234.3V197.498Z" fill="white"/>
<path d="M243.827 199.509H241.219V197.498H248.797V199.509H246.156V208.258H243.822V199.509H243.827Z" fill="white"/>
<path d="M252.369 197.498V201.691H255.837V197.498H258.171V208.258H255.837V203.757H252.369V208.258H250.036V197.498H252.369Z" fill="white"/>
<path d="M269.03 202.746C269.03 206.433 267.103 208.417 264.285 208.417C261.319 208.417 259.712 205.955 259.712 202.921C259.712 199.888 261.511 197.338 264.45 197.338C267.544 197.338 269.03 199.926 269.03 202.746ZM262.166 202.899C262.166 205.109 262.997 206.521 264.39 206.521C265.782 206.521 266.569 204.955 266.569 202.834C266.569 200.905 265.837 199.234 264.384 199.234C262.931 199.234 262.166 200.74 262.166 202.894V202.899Z" fill="white"/>
<path d="M270.554 197.652C271.297 197.52 272.359 197.426 273.51 197.426C274.974 197.426 276.069 197.646 276.812 198.262C277.456 198.795 277.764 199.542 277.764 200.515C277.764 201.817 276.911 202.79 275.931 203.174V203.218C276.674 203.521 277.082 204.219 277.329 205.263C277.626 206.472 277.94 207.856 278.144 208.263H275.739C275.585 207.955 275.32 207.027 275.056 205.735C274.792 204.394 274.374 204.026 273.46 204.021H272.86V208.263H270.543V197.652H270.554ZM272.871 202.301H273.653C274.77 202.301 275.436 201.647 275.436 200.713C275.436 199.778 274.853 199.201 273.796 199.19C273.333 199.19 273.031 199.223 272.877 199.267V202.306L272.871 202.301Z" fill="white"/>
<path d="M281.782 197.498V208.258H279.449V197.498H281.782Z" fill="white"/>
<path d="M285.629 199.509H283.021V197.498H290.599V199.509H287.958V208.258H285.624V199.509H285.629Z" fill="white"/>
<path d="M294.177 208.258V203.933L291.084 197.498H293.709L294.694 200.08C294.986 200.828 295.212 201.476 295.448 202.207H295.481C295.69 201.504 295.922 200.828 296.202 200.064L297.155 197.498H299.73L296.516 203.856V208.263H294.182L294.177 208.258Z" fill="white"/>
<path d="M59.2988 140.258C59.2107 140.417 59.2107 140.499 59.1172 140.659V139.378C59.3869 139.219 59.7446 138.977 59.9207 138.818C59.6566 139.538 59.3869 140.021 59.2988 140.258Z" fill="white"/>
</g>
<defs>
<clipPath id="clip0_9_402">
<rect width="300" height="208" fill="white" transform="translate(0 0.422363)"/>
</clipPath>
</defs>
</svg>
