<svg width="31" height="32" viewBox="0 0 31 32" fill="none" xmlns="http://www.w3.org/2000/svg">
<path d="M19.5593 28.4994C19.4835 28.4994 19.395 28.4868 19.3192 28.4615C16.7791 27.7412 14.1126 27.7412 11.5725 28.4615C11.1049 28.5879 10.6121 28.3225 10.4857 27.8549C10.3467 27.3873 10.6247 26.8945 11.0923 26.7681C13.9483 25.9593 16.956 25.9593 19.8121 26.7681C20.2796 26.9071 20.5577 27.3873 20.4187 27.8549C20.2923 28.2467 19.9384 28.4994 19.5593 28.4994Z" fill="#230C44"/>
<path d="M24.5511 8.73448C23.2368 6.08063 20.6967 4.12184 17.7522 3.47734C14.6687 2.79492 11.5093 3.52789 9.09559 5.47404C6.66921 7.40756 5.29174 10.3015 5.29174 13.3977C5.29174 16.6707 7.25053 20.0955 10.2077 22.0795V23.1284C10.195 23.4823 10.1824 24.0257 10.6121 24.468C11.0544 24.9229 11.7115 24.9735 12.2297 24.9735H18.7126C19.395 24.9735 19.9132 24.7839 20.267 24.4301C20.7472 23.9372 20.7346 23.3054 20.722 22.9641V22.0795C24.6395 19.4383 27.1038 13.8652 24.5511 8.73448ZM17.6132 15.3817L16.261 17.7323C16.084 18.0356 15.7681 18.2125 15.4395 18.2125C15.2753 18.2125 15.111 18.1746 14.972 18.0861C14.517 17.8207 14.3654 17.2394 14.6181 16.7971L15.6923 14.9268H14.6308C13.9989 14.9268 13.4808 14.6488 13.2027 14.1812C12.9247 13.701 12.95 13.1196 13.2659 12.5636L14.6181 10.2131C14.8835 9.75811 15.4648 9.60646 15.9071 9.8592C16.3621 10.1246 16.5137 10.7059 16.261 11.1482L15.1868 13.0185H16.2483C16.8802 13.0185 17.3983 13.2966 17.6764 13.7641C17.9544 14.2444 17.9291 14.8383 17.6132 15.3817Z" fill="#230C44"/>
</svg>
