<svg width="39" height="39" viewBox="0 0 39 39" fill="none" xmlns="http://www.w3.org/2000/svg">
<g clip-path="url(#clip0_207_1612)">
<path d="M33.5075 14.2153C31.8013 6.90027 25.2525 3.60693 19.5 3.60693C19.5 3.60693 19.5 3.60693 19.4838 3.60693C13.7475 3.60693 7.1825 6.88443 5.47625 14.1994C3.575 22.3694 8.71 29.2886 13.3575 33.6428C15.08 35.2578 17.29 36.0653 19.5 36.0653C21.71 36.0653 23.92 35.2578 25.6263 33.6428C30.2738 29.2886 35.4088 22.3853 33.5075 14.2153ZM19.5 22.1478C16.6725 22.1478 14.3813 19.9153 14.3813 17.1603C14.3813 14.4053 16.6725 12.1728 19.5 12.1728C22.3275 12.1728 24.6188 14.4053 24.6188 17.1603C24.6188 19.9153 22.3275 22.1478 19.5 22.1478Z" fill="white"/>
</g>
<defs>
<clipPath id="clip0_207_1612">
<rect width="39" height="38" fill="white" transform="translate(0 0.835938)"/>
</clipPath>
</defs>
</svg>
