<svg width="19" height="19" viewBox="0 0 19 19" fill="none" xmlns="http://www.w3.org/2000/svg">
<path d="M16.25 9.21484C16.25 9.36403 16.1907 9.5071 16.0852 9.61259C15.9798 9.71808 15.8367 9.77734 15.6875 9.77734H10.0625V15.4023C10.0625 15.5515 10.0032 15.6946 9.89775 15.8001C9.79226 15.9056 9.64918 15.9648 9.5 15.9648C9.35082 15.9648 9.20774 15.9056 9.10225 15.8001C8.99676 15.6946 8.9375 15.5515 8.9375 15.4023V9.77734H3.3125C3.16332 9.77734 3.02024 9.71808 2.91475 9.61259C2.80926 9.5071 2.75 9.36403 2.75 9.21484C2.75 9.06566 2.80926 8.92259 2.91475 8.8171C3.02024 8.71161 3.16332 8.65234 3.3125 8.65234H8.9375V3.02734C8.9375 2.87816 8.99676 2.73509 9.10225 2.6296C9.20774 2.52411 9.35082 2.46484 9.5 2.46484C9.64918 2.46484 9.79226 2.52411 9.89775 2.6296C10.0032 2.73509 10.0625 2.87816 10.0625 3.02734V8.65234H15.6875C15.8367 8.65234 15.9798 8.71161 16.0852 8.8171C16.1907 8.92259 16.25 9.06566 16.25 9.21484Z" fill="#1B1B1B"/>
</svg>
