<svg width="56" height="56" viewBox="0 0 56 56" fill="none" xmlns="http://www.w3.org/2000/svg">
<path d="M38.025 4.64087H18.7984C10.447 4.64087 5.46829 9.61959 5.46829 17.971V37.1746C5.46829 45.549 10.447 50.5277 18.7984 50.5277H38.002C46.3534 50.5277 51.3322 45.549 51.3322 37.1976V17.971C51.3551 9.61959 46.3764 4.64087 38.025 4.64087ZM18.3854 41.6945C18.3854 42.6351 17.6054 43.4152 16.6647 43.4152C15.724 43.4152 14.9439 42.6351 14.9439 41.6945V36.9452C14.9439 36.0045 15.724 35.2244 16.6647 35.2244C17.6054 35.2244 18.3854 36.0045 18.3854 36.9452V41.6945ZM30.1325 41.6945C30.1325 42.6351 29.3524 43.4152 28.4117 43.4152C27.471 43.4152 26.6909 42.6351 26.6909 41.6945V32.173C26.6909 31.2323 27.471 30.4522 28.4117 30.4522C29.3524 30.4522 30.1325 31.2323 30.1325 32.173V41.6945ZM41.8795 41.6945C41.8795 42.6351 41.0994 43.4152 40.1587 43.4152C39.218 43.4152 38.438 42.6351 38.438 41.6945V27.4237C38.438 26.483 39.218 25.7029 40.1587 25.7029C41.0994 25.7029 41.8795 26.483 41.8795 27.4237V41.6945ZM41.8795 20.1736C41.8795 21.1142 41.0994 21.8943 40.1587 21.8943C39.218 21.8943 38.438 21.1142 38.438 20.1736V17.948C32.5874 23.9592 25.2685 28.2037 17.0777 30.2457C16.94 30.2916 16.8023 30.2916 16.6647 30.2916C15.8846 30.2916 15.1963 29.7639 14.9898 28.9838C14.7604 28.0661 15.311 27.1254 16.2517 26.896C23.9836 24.9687 30.8666 20.9077 36.3272 15.1719H33.4592C32.5186 15.1719 31.7385 14.3918 31.7385 13.4511C31.7385 12.5105 32.5186 11.7304 33.4592 11.7304H40.1817C40.2734 11.7304 40.3423 11.7763 40.434 11.7763C40.5488 11.7992 40.6635 11.7992 40.7782 11.8451C40.8929 11.891 40.9847 11.9598 41.0994 12.0286C41.1682 12.0745 41.2371 12.0975 41.3059 12.1434C41.3288 12.1663 41.3288 12.1892 41.3518 12.1892C41.4436 12.281 41.5124 12.3728 41.5812 12.4646C41.65 12.5563 41.7189 12.6252 41.7418 12.7169C41.7877 12.8087 41.7877 12.9005 41.8106 13.0152C41.8336 13.1299 41.8795 13.2446 41.8795 13.3823C41.8795 13.4053 41.9024 13.4282 41.9024 13.4511V20.1736H41.8795Z" fill="#230C44"/>
</svg>
